<svg xmlns="http://www.w3.org/2000/svg" xmlns:xlink="http://www.w3.org/1999/xlink" width="1800" height="300" viewBox="0 0 1800 300"><defs><clipPath id="b"><rect width="1800" height="300"/></clipPath></defs><g id="a" clip-path="url(#b)"><g transform="translate(0 100)"><path d="M186.313,655.884a12.063,12.063,0,0,0,4.328-10.4,9.752,9.752,0,0,0-7.25-8.279c-3.825-.825-8.185,1.458-9.347,5.195-.639-7.2-1.376-14.71-5.206-20.845a22.075,22.075,0,0,0-15.985-10.241,19.807,19.807,0,0,0-17.424,7.113,17.976,17.976,0,0,0-2.211,18.507c2.095,4.346,5.954,7.58,10,10.211a64.522,64.522,0,0,0,44.129,9.654Z" transform="translate(-130.568 -457.624)" fill="#f2f2f2"/><path d="M160.333,617.633a105.567,105.567,0,0,1,14.712,14.609,105.878,105.878,0,0,1,16.57,27.691c.3.731-.889,1.049-1.184.326A105.28,105.28,0,0,0,159.465,618.5C158.852,618,159.725,617.138,160.333,617.633Z" transform="translate(-149.034 -461.818)" fill="#fff"/><path d="M503.044,149.129H341.181a2.329,2.329,0,0,0-2.327,2.327V261.137a2.329,2.329,0,0,0,2.327,2.327H503.044a2.329,2.329,0,0,0,2.327-2.327V151.456a2.329,2.329,0,0,0-2.327-2.327Zm1.662,112.008a1.663,1.663,0,0,1-1.662,1.662H341.181a1.662,1.662,0,0,1-1.662-1.662V151.456a1.663,1.663,0,0,1,1.662-1.662H503.044a1.663,1.663,0,0,1,1.662,1.662Z" transform="translate(-268.939 -149.129)" fill="#3f3d56"/><rect width="165.852" height="0.665" transform="translate(70.248 9.32)" fill="#3f3d56"/><circle cx="1.994" cy="1.994" r="1.994" transform="translate(73.904 2.991)" fill="#3f3d56"/><circle cx="1.994" cy="1.994" r="1.994" transform="translate(79.637 2.991)" fill="#3f3d56"/><circle cx="1.994" cy="1.994" r="1.994" transform="translate(85.37 2.991)" fill="#3f3d56"/><path d="M570.6,214.282H542.681a2.327,2.327,0,1,1,0-4.653H570.6a2.327,2.327,0,0,1,0,4.653Z" transform="translate(-403.467 -189.521)" fill="#ccc"/><path d="M551.322,248.282H485.181a2.327,2.327,0,1,1,0-4.653h66.141a2.327,2.327,0,0,1,0,4.653Z" transform="translate(-365.078 -212.22)" fill="#ccc"/><path d="M723.073,415.656a12.676,12.676,0,1,1,12.676-12.676A12.676,12.676,0,0,1,723.073,415.656Zm0-24.478a11.8,11.8,0,1,0,11.8,11.8A11.8,11.8,0,0,0,723.073,391.178Z" transform="translate(-516.993 -310.145)" fill="#3f3d56"/><path d="M403.337,313.513a12.676,12.676,0,1,1,12.676-12.676A12.676,12.676,0,0,1,403.337,313.513Zm0-24.478a11.8,11.8,0,1,0,11.8,11.8A11.8,11.8,0,0,0,403.337,289.036Z" transform="translate(-303.527 -241.952)" fill="#3f3d56"/><path d="M421.321,319.521a1.252,1.252,0,0,1-1.253-1.251v-7.112a1.252,1.252,0,0,1,1.251-1.251h0a1.252,1.252,0,0,1,1.251,1.251v7.112A1.252,1.252,0,0,1,421.321,319.521Zm-3.265,0a1.256,1.256,0,0,1-1.269-1.251V314.44a1.252,1.252,0,0,1,1.251-1.25h.018a1.252,1.252,0,0,1,1.25,1.25v3.831A1.252,1.252,0,0,1,418.055,319.521Zm-3.3,0a1.252,1.252,0,0,1-1.253-1.251V307.333a1.252,1.252,0,0,1,1.251-1.251h0a1.252,1.252,0,0,1,1.251,1.251v10.938A1.252,1.252,0,0,1,414.758,319.521Zm-3.284,0a1.251,1.251,0,0,1-1.252-1.252v-1.643a1.25,1.25,0,0,1,2.5,0v1.643A1.252,1.252,0,0,1,411.474,319.521Z" transform="translate(-316.587 -253.916)" fill="#ff4800"/><path d="M981.88,697.513a12.676,12.676,0,1,1,12.676-12.676A12.676,12.676,0,0,1,981.88,697.513Zm0-24.477a11.8,11.8,0,1,0,11.8,11.8A11.8,11.8,0,0,0,981.88,673.036Z" transform="translate(-689.781 -498.322)" fill="#3f3d56"/><path d="M998.088,703.2l-2.471,3.779a1.338,1.338,0,0,1,.305.856,1.36,1.36,0,1,1-2.719,0,1.585,1.585,0,0,1,.024-.261l-1.631-.95a1.354,1.354,0,0,1-1.613.2l-1.735,1.626v1.621a1.213,1.213,0,0,0,1.208,1.211H999.73a1.216,1.216,0,0,0,1.211-1.211v-6.01l-1.66-1.1A1.365,1.365,0,0,1,998.088,703.2Z" transform="translate(-702.494 -518.883)" fill="#ff4800"/><path d="M990.653,697.375a1.36,1.36,0,0,1,1.36,1.36h0v.175l1.7.953a1.357,1.357,0,0,1,.861-.308,1.5,1.5,0,0,1,.295.031l2.477-3.833a1.355,1.355,0,1,1,2.458-.783,1.434,1.434,0,0,1-.037.321l1.172.783V693.8a1.216,1.216,0,0,0-1.211-1.211H989.456a1.213,1.213,0,0,0-1.208,1.211v6.5l1.133-1.086a1.357,1.357,0,0,1,1.273-1.827Z" transform="translate(-702.494 -511.963)" fill="#ff4800"/><path d="M565.4,313.513a12.676,12.676,0,1,1,12.676-12.676A12.676,12.676,0,0,1,565.4,313.513Zm0-24.478a11.8,11.8,0,1,0,11.8,11.8A11.8,11.8,0,0,0,565.4,289.036Z" transform="translate(-411.728 -241.952)" fill="#3f3d56"/><path d="M568.754,321.664a.922.922,0,0,1-.653-1.573l4.684-4.7a.781.781,0,0,1,.557-.231h0a.782.782,0,0,1,.557.23l2.172,2.172a.469.469,0,0,0,.334.138h0a.469.469,0,0,0,.334-.139l3.067-3.072a.157.157,0,0,0,0-.223l-.992-.991a.472.472,0,0,1,.334-.807h3.524a.473.473,0,0,1,.472.472v3.522a.472.472,0,0,1-.806.334l-.994-.994a.157.157,0,0,0-.223,0l-4.153,4.15a.782.782,0,0,1-.556.23h0a.782.782,0,0,1-.557-.231l-2.173-2.173a.484.484,0,0,0-.668,0l-3.608,3.608A.915.915,0,0,1,568.754,321.664Z" transform="translate(-421.812 -258.184)" fill="#ff4800"/><path d="M565.4,413.513a12.676,12.676,0,1,1,12.676-12.676A12.676,12.676,0,0,1,565.4,413.513Z" transform="translate(-411.728 -308.715)" fill="#e6e6e6"/><path d="M723.4,310.513a12.676,12.676,0,1,1,12.676-12.676A12.676,12.676,0,0,1,723.4,310.513Z" transform="translate(-517.214 -239.949)" fill="#e6e6e6"/><path d="M416.322,388.161a12.723,12.723,0,0,0-6.212,1.629,11.8,11.8,0,0,1,2.26,23.093,12.156,12.156,0,0,0,1.512.4,12.541,12.541,0,0,0,2.44.236,12.677,12.677,0,0,0,0-25.353Z" transform="translate(-316.512 -308.714)" fill="#e6e6e6"/><path d="M383.913,390.54a12.294,12.294,0,0,0-2.44-.239,12.69,12.69,0,1,0,2.44.239Zm.858,23.771a11.8,11.8,0,1,1-3.3-23.136c.349,0,.695.017,1.037.043a11.8,11.8,0,0,1,2.26,23.093Z" transform="translate(-288.912 -310.143)" fill="#3f3d56"/><path d="M411.056,410.619a7.11,7.11,0,0,0-8.5-5.353c-.179.041-.365.091-.529.142l1.694,7.444,7.444-1.691C411.132,410.988,411.1,410.8,411.056,410.619Z" transform="translate(-311.114 -320.016)" fill="#ff4800"/><path d="M398.613,415.733l-7.447,1.691-1.691-7.444a7.107,7.107,0,1,0,9.132,5.753Z" transform="translate(-299.392 -323.281)" fill="#ff4800"/><path d="M795.274,555.656A12.676,12.676,0,1,1,807.95,542.98,12.676,12.676,0,0,1,795.274,555.656Zm0-24.478a11.8,11.8,0,1,0,11.8,11.8A11.8,11.8,0,0,0,795.274,531.178Z" transform="translate(-565.197 -403.614)" fill="#3f3d56"/><path d="M810.51,563.319a2.346,2.346,0,1,1,2.344-2.348,2.346,2.346,0,0,1-2.344,2.348Zm-5.469,0a2.347,2.347,0,0,1-2.344-2.344v-5.469a2.344,2.344,0,0,1,4.689,0v5.469a2.347,2.347,0,0,1-2.344,2.344Zm-5.468,0a2.349,2.349,0,0,1-2.346-2.346v-2.185a2.346,2.346,0,0,1,4.692,0v2.185a2.349,2.349,0,0,1-2.346,2.346Z" transform="translate(-574.963 -418.873)" fill="#ff4800"/><path d="M205.233,559.182l3.864-.438.148-15.111-5.7.647Z" transform="translate(-135.891 -362.946)" fill="#a0616a"/><path d="M0,0H12.221V4.722h-7.5A4.722,4.722,0,0,1,0,0Z" transform="translate(81.065 198.54) rotate(173.526)" fill="#2f2e41"/><path d="M89.08,559.563h3.888l1.85-15H89.079Z" transform="translate(-59.472 -363.569)" fill="#a0616a"/><path d="M0,0H12.221V4.722h-7.5A4.722,4.722,0,0,1,0,0H0Z" transform="translate(40.994 199.605) rotate(179.997)" fill="#2f2e41"/><path d="M243.543,532.21l2.22,7.222,12.052,26.081,3.172,24.739-7.295.317-4.44-22.836L234.028,551.24l-13.321,43.135-6.026-.634s5.075-55.821,12.052-61.53C226.733,532.21,238.151,526.819,243.543,532.21Z" transform="translate(-186.037 -403.286)" fill="#2f2e41"/><circle cx="7.79" cy="7.79" r="7.79" transform="translate(39.868 82.184)" fill="#a0616a"/><path d="M261.145,480.575s.951-32.351-12.37-30.131-7.771,33.461-7.771,33.461,2.854,5.709,9.832-.634S261.145,480.575,261.145,480.575Z" transform="translate(-202.846 -350.223)" fill="#ff4800"/><path d="M357.1,450.37a3.189,3.189,0,0,1-4.849.639l-9.978,5.376.522-5.867,9.4-4.205a3.207,3.207,0,0,1,4.909,4.057Z" transform="translate(-271.219 -346.946)" fill="#a0616a"/><path d="M261.4,454.283l16.2,2.738,14.515-6.852,2.2,4.712L278.421,465s-16.822,1.142-20.711-3.294a4.537,4.537,0,0,1-1.264-4.421,4.371,4.371,0,0,1,4.949-3Z" transform="translate(-213.812 -350.113)" fill="#ff4800"/><path d="M204.594,403.679a.321.321,0,0,0-.045-.513,4.53,4.53,0,0,1,.436-7.941c2.29-1.092,5.394-.242,7.087-2.341a3.936,3.936,0,0,0,.73-3.2,6.933,6.933,0,0,0-3.524-4.462A12.823,12.823,0,0,0,189.9,397.638c.215,1.907.8,4.046-.33,5.6-1,1.363-2.882,1.619-4.538,1.957a17.083,17.083,0,0,0-9.384,5.109,11.9,11.9,0,0,0-2.968,10.055,9.173,9.173,0,0,0,7.222,7.22,9.869,9.869,0,0,0,8.066-2.819,17.159,17.159,0,0,0,4.348-7.592c1.013-3.351,1.413-6.962,3.242-9.947,1.79-2.921,5.647-5.015,8.67-3.494a.324.324,0,0,0,.364-.044Z" transform="translate(-157.863 -305.52)" fill="#2f2e41"/><path d="M938.867,524.675a3.221,3.221,0,0,0,1.152-4.8l7.506-41.538-7-.092-5.212,41.076a3.238,3.238,0,0,0,3.559,5.357Z" transform="translate(-666.389 -368.855)" fill="#ffb8b8"/><path d="M749.065,462.891l-2.659,12.63.332,28.251h4.985l2.327-27.587,3.656-11.633Z" transform="translate(-498.324 -309.041)" fill="#ffb8b8"/><path d="M798.639,465.742l-2.659,12.63.332,28.251H801.3l2.327-27.587,3.656-11.633Z" transform="translate(-531.421 -310.944)" fill="#ffb8b8"/><path d="M4.948,0h7.859V4.948H0A4.948,4.948,0,0,1,4.948,0Z" transform="translate(241.726 194.423) rotate(-0.144)" fill="#2f2e41"/><path d="M4.948,0h7.858V4.948H0A4.948,4.948,0,0,1,4.948,0Z" transform="translate(258.326 194.958) rotate(-0.144)" fill="#2f2e41"/><circle cx="8.163" cy="8.163" r="8.163" transform="translate(254.709 75.585)" fill="#ffb8b8"/><path d="M914.413,442.9c-2.484-3.9-10.282-13.14-21.885-7.835a4.933,4.933,0,0,0-2.848,4.862c.561,7.411,1.27,26.295-4.774,37.594,0,0,17.616,5.318,27.254.332,0,0-3.324-22.269,0-26.59a17.917,17.917,0,0,0,2.663-4.562,4.285,4.285,0,0,0-.41-3.8Z" transform="translate(-633.5 -338.957)" fill="#3f3d56"/><path d="M957.9,461.02l3.262,1.359a1.236,1.236,0,0,1,.759,1.089l.3,7.19-7.312-.665Z" transform="translate(-680.234 -357.357)" fill="#3f3d56"/><path d="M876.564,564.02s-7.312,13.627-5.983,26.257l10.3,1.662,7.312-17.616-1.662,17.948,10.636.332s6.98-25.925,4.653-28.251Z" transform="translate(-623.829 -426.123)" fill="#2f2e41"/><path d="M850.129,498.561a3.221,3.221,0,0,0,2.562-4.222l14.833-27.962-6.642-2.224-12.508,28.222a3.238,3.238,0,0,0,1.755,6.188Z" transform="translate(-607.779 -359.448)" fill="#ffb8b8"/><path d="M893.116,444.944l-2.747-1.229s-2.329-1.444-4.394,1.734-4.3,10.141-4.3,10.141l8.964,2.522Z" transform="translate(-631.346 -345.585)" fill="#3f3d56"/><path d="M904.68,381.839c.293-1.018.208-2.395-.778-2.78a3.529,3.529,0,0,0-1.637.014,4.368,4.368,0,0,1-3.018-.831A8.692,8.692,0,0,1,897,375.2l-.905-1.7a7.376,7.376,0,0,1-.514-1.106,4.362,4.362,0,0,1,1.163-4.348,6.307,6.307,0,0,1,4.308-1.689,11.628,11.628,0,0,1,4.6.986,20.362,20.362,0,0,1,6.865,4.612c1.274,1.3,2.433,3,2.167,4.8a7.027,7.027,0,0,1-2.205,3.556l-3.538,3.735a5.2,5.2,0,0,1-2.171,1.6,1.791,1.791,0,0,1-2.24-1A10.35,10.35,0,0,1,904.68,381.839Z" transform="translate(-640.5 -294.161)" fill="#2f2e41"/><path d="M441.591,749.536H128.832a.332.332,0,1,1,0-.665H441.591a.332.332,0,1,1,0,.665Z" transform="translate(-128.5 -549.536)" fill="#3f3d56"/><path d="M741.839,440.436h-9.306a1,1,0,1,1,0-1.994h9.306a1,1,0,0,1,0,1.994Z" transform="translate(-531.105 -342.284)" fill="#ff4800"/><path d="M741.839,427.436h-9.306a1,1,0,1,1,0-1.994h9.306a1,1,0,0,1,0,1.994Z" transform="translate(-531.105 -333.604)" fill="#ff4800"/><path d="M741.839,414.436h-9.306a1,1,0,1,1,0-1.994h9.306a1,1,0,0,1,0,1.994Z" transform="translate(-531.105 -324.925)" fill="#ff4800"/></g><g transform="translate(341 100)"><path d="M39.206,0,22.881,31.842h3.3V57.807H9.568L0,76.469l118.555,60.783,39.206-76.469Z" fill="#f2f2f2"/><rect width="181.76" height="91.189" transform="translate(35.759 20.713)" fill="#3f3d56"/><rect width="134.156" height="0.309" transform="translate(61.261 53.48)" fill="#ff4800" opacity="0.3"/><rect width="134.156" height="0.309" transform="translate(61.415 61.207)" fill="#ff4800" opacity="0.3"/><rect width="134.156" height="0.309" transform="translate(61.415 76.663)" fill="#ff4800" opacity="0.3"/><rect width="134.156" height="0.309" transform="translate(61.415 83.464)" fill="#ff4800" opacity="0.3"/><rect width="134.156" height="0.309" transform="translate(61.415 68.935)" fill="#ff4800" opacity="0.3"/><ellipse cx="57.495" cy="5.255" rx="57.495" ry="5.255" transform="translate(117.674 189.49)" fill="#3f3d56"/><path d="M209.769,200.008l-.427-.448,19.969-19.033,17.6,12.662,14.235-15.782,6.242,5.306,16.979-10.188,18.86,12.676,29.6-16.837.305.537L303.2,185.928l-18.852-12.671-17.023,10.214-6.123-5.2L247,194.014l-17.636-12.685Z" transform="translate(-144.631 -116.32)" fill="#ff4800"/><path d="M596.435,698.312c1.453,5.371,6.429,8.7,6.429,8.7s2.621-5.381,1.168-10.752-6.429-8.7-6.429-8.7S594.983,692.941,596.435,698.312Z" transform="translate(-473.792 -514.127)" fill="#3f3d56"/><path d="M582.054,709.205c3.987,3.881,4.473,9.846,4.473,9.846s-5.977-.326-9.963-4.207S572.091,705,572.091,705,578.068,705.325,582.054,709.205Z" transform="translate(-457.276 -526.174)" fill="#ff4800"/><circle cx="10.355" cy="10.355" r="10.355" transform="translate(226.174 6.185)" fill="#ff4800" opacity="0.4"/><circle cx="7.264" cy="7.264" r="7.264" transform="translate(210.1 14.222)" fill="#ff4800" opacity="0.4"/><circle cx="3.864" cy="3.864" r="3.864" transform="translate(204.536 150.851)" fill="#ff4800" opacity="0.4"/><circle cx="2.937" cy="2.937" r="2.937" transform="translate(139.621 171.871)" fill="#ff4800" opacity="0.4"/><circle cx="3.864" cy="3.864" r="3.864" transform="translate(128.802 131.995)" fill="#ff4800" opacity="0.4"/><circle cx="4.018" cy="4.018" r="4.018" transform="translate(183.979 49.616)" fill="#ff4800"/><path d="M715.255,534.718l-3.407.378a45.832,45.832,0,0,0,0,15.9c1.514,9.084,3.407,18.169,3.407,18.169s1.514,29.524,2.271,29.9,7.57,2.65,7.949.378.379-54.127.379-54.127l5.3,24.982s.757,31.417,2.271,31.417,6.435-.379,6.435-3.028,1.136-37.473,1.136-37.473-.378-25.739-1.893-26.5S715.255,534.718,715.255,534.718Z" transform="translate(-553.368 -408.298)" fill="#2f2e41"/><path d="M722.548,739.586s-3.407-.378-4.164,0a3.031,3.031,0,0,0,0,4.542c1.893,1.514,6.813,3.785,8.327,3.785a7.83,7.83,0,0,0,3.028-.757l-.757-6.435Z" transform="translate(-557.633 -549.954)" fill="#2f2e41"/><path d="M783.149,739.99l.378,5.3s4.921.757,5.3,0,4.164-2.65,4.542-3.028.757-4.542-1.514-4.921-3.028.757-3.028.757Z" transform="translate(-603.093 -548.466)" fill="#2f2e41"/><path d="M662.306,432.612s-9.084,8.706-7.949,13.248,10.22,17.79,10.22,17.79,8.706,4.542,9.841,0-6.056-3.407-6.056-3.407l-5.678-13.626,6.435-9.084Z" transform="translate(-514.044 -337.987)" fill="#ffb8b8"/><path d="M801.564,323.26s8.275-5.322,8.084-8.978-5.18-15.184-5.18-15.184-3.9-8.114-5.454-4.8,2.039,6.846,2.039,6.846l2.318,11.308-6.3,6.009Z" transform="translate(-612.712 -241.879)" fill="#ffb8b8"/><circle cx="6.813" cy="6.813" r="6.813" transform="translate(161.509 60.181)" fill="#ffb8b8"/><path d="M734.169,351.345l1.136,7.192,8.327-1.514s-.378-7.192-.378-7.949S734.169,351.345,734.169,351.345Z" transform="translate(-569.253 -280.188)" fill="#ffb8b8"/><path d="M710.1,376.229s9.463-2.271,10.6-1.514,6.813,1.514,6.813,1.514l6.435,9.841-1.893,12.491s-.378,20.061.379,23.468,4.921,3.785-3.785,4.542-10.22-.378-16.276,1.136-10.977-.757-9.463-2.271,4.164-25.739,1.135-28.01-4.164-14-4.164-14S710.1,378.122,710.1,376.229Z" transform="translate(-545.566 -297.88)" fill="#d0cde1"/><path d="M785.6,376.018l1.135-1.136L789,372.611s7.381,3.217,7,4.353-2.839,7.759-2.839,7.759l-3.407,1.136Z" transform="translate(-604.785 -296.533)" fill="#d0cde1"/><path d="M686.66,403.981l-4.542-.757s-3.407,3.785-4.542,5.3-3.407,5.3-3.407,5.3l7.949,5.678,6.056-6.435Z" transform="translate(-527.8 -317.683)" fill="#d0cde1"/><path d="M728.642,312.587l-.07-.546a4.292,4.292,0,0,0-1.364.214,2.241,2.241,0,0,1,.084-.981,4.361,4.361,0,0,0-1.262.549l-.275-1-3.784,1.865A7.98,7.98,0,0,0,718.4,315.4a5.742,5.742,0,0,0-.123,4.893,39.739,39.739,0,0,0,2.363,4.473,11.176,11.176,0,0,0,1.074,1.828,5.106,5.106,0,0,0,6.222,1.066,3.6,3.6,0,0,0,1.724-1.774,11.526,11.526,0,0,0,.344-1.469c.249-1.017.538-3.118,1.365-3.761.364-.283,1.085.656,1.386.307a3.224,3.224,0,0,0,.131-3.361,24.525,24.525,0,0,0-1.615-3.149A14.924,14.924,0,0,0,728.642,312.587Z" transform="translate(-557.942 -253.848)" fill="#2f2e41"/><rect width="19.783" height="19.783" transform="translate(3.92 35.551)" fill="#3f3d56"/></g><g transform="translate(616 100)"><path d="M519.539,131.567c-.26-.173-.522-.337-.782-.5a113.52,113.52,0,0,0-23.977-11.623l-1.953,26.935H480.45V115.507c-.779-.161-1.564-.313-2.35-.457v31.324H463.39a30.533,30.533,0,0,1-30.533-30.533h0c-.788.17-1.57.352-2.353.546v29.987H418.524l-1.86-25.684a113.706,113.706,0,0,0-24.463,13c-.131.09-.263.182-.391.272-.66.463-1.311.934-1.958,1.412V238.129h35.31l-.624-8.643L421.1,182.031h69.142l-3.433,47.455-.624,8.643h34.919V132.606Q520.327,132.077,519.539,131.567ZM430.5,174.194h-9.969l-1.842-25.467H430.5Zm47.6,0H461.357v-.5a1.845,1.845,0,0,0-1.848-1.845H452.23a1.844,1.844,0,0,0-1.845,1.845v.5H432.857V148.727H478.1Zm2.35,0V148.727h12.208l-1.842,25.467Z" transform="translate(-337.032 -115.051)" fill="#f2f2f2"/><path d="M932.293,723.57l.233-5.247a16.949,16.949,0,0,1,7.9-2c-3.8,3.1-3.322,9.087-5.9,13.261a10.194,10.194,0,0,1-7.475,4.711l-3.177,1.945a17.082,17.082,0,0,1,3.6-13.842,16.507,16.507,0,0,1,3.032-2.818C931.277,721.586,932.293,723.57,932.293,723.57Z" transform="translate(-711.439 -536.811)" fill="#f2f2f2"/><path d="M361.96,686.668l-7.667-2.321a25.846,25.846,0,0,1,.02-12.436c3.157,6.78,12.179,8.332,17.378,13.708a15.547,15.547,0,0,1,4.146,12.822l1.678,5.428a26.051,26.051,0,0,1-19.1-10.534,25.165,25.165,0,0,1-3.022-5.543C358.645,687.423,361.96,686.668,361.96,686.668Z" transform="translate(-311.565 -505.659)" fill="#f2f2f2"/><path d="M488.292,582.486a.608.608,0,0,1-.176.424.593.593,0,0,1-.421.173h-2.4a.6.6,0,0,1-.6-.6V509.9c0-1.6-.537-2.9-1.2-2.9H303.625c-.663,0-1.2,1.3-1.2,2.9v72.145a.6.6,0,0,1-.54.594c-.484.048-.967.09-1.448.128l-.036,0c-.263.024-.525.042-.788.063h0c-.137-.248-.269-.5-.4-.755a.624.624,0,0,1-.066-.278V506.131c0-.442.018-.887.048-1.326a16.958,16.958,0,0,1,.224-1.8c.5-2.774,1.645-4.651,2.941-4.657H484.769a1.4,1.4,0,0,1,.549.116,2.141,2.141,0,0,1,.678.475,4.2,4.2,0,0,1,.666.911,11.985,11.985,0,0,1,1.257,4.756c0,.018,0,.036,0,.054.042.484.063.976.06,1.469l.042,6.4.027,3.815.081,11.972.03,4.251Z" transform="translate(-273.404 -383.916)" fill="#e6e6e6"/><path d="M791.616,782.972l-82.326.092a.355.355,0,1,1,0-.711l82.326-.092a.355.355,0,1,1,0,.711Z" transform="translate(-560.852 -583.063)" fill="#cacaca"/><path d="M607.52,427.312H592.939a.778.778,0,0,0-.777.779v23.033H608.3V428.091a.778.778,0,0,0-.779-.779ZM600.279,440.4a1.73,1.73,0,0,1-1.722-1.722v-2.657a1.722,1.722,0,0,1,3.444,0v2.657a1.73,1.73,0,0,1-1.722,1.722Z" transform="translate(-478.943 -334.086)" fill="#2f2e41"/><path d="M573.291,306.911H510.964a2.023,2.023,0,0,0-2.02,2.02v42.059a2.022,2.022,0,0,0,2.02,2.02h62.327a2.022,2.022,0,0,0,2.02-2.02V308.931A2.023,2.023,0,0,0,573.291,306.911Z" transform="translate(-420.569 -249.63)" fill="#3f3d56"/><path d="M576.2,311.8H514.912a1.083,1.083,0,0,0-1.08,1.083V353.9a1.082,1.082,0,0,0,1.08,1.08H576.2a1.082,1.082,0,0,0,1.08-1.08V312.879a1.083,1.083,0,0,0-1.08-1.083Z" transform="translate(-423.998 -253.058)" fill="#fff"/><path d="M591.995,504.6v2.222a.435.435,0,0,0,.434.434H607.8a.437.437,0,0,0,.434-.434V504.6Z" transform="translate(-478.825 -388.301)" fill="#3f3d56"/><path d="M595.5,506.627H559.042a.671.671,0,0,1-.656-.809l.566-2.687a.674.674,0,0,1,.656-.533h35.331a.674.674,0,0,1,.656.533l.566,2.687a.671.671,0,0,1-.656.809Z" transform="translate(-455.24 -386.895)" fill="#2f2e41"/><rect width="1.123" height="0.674" rx="0.337" transform="translate(104.626 116.187)" fill="#3f3d56"/><rect width="1.123" height="0.674" rx="0.337" transform="translate(106.872 116.187)" fill="#3f3d56"/><rect width="1.123" height="0.674" rx="0.337" transform="translate(109.118 116.187)" fill="#3f3d56"/><rect width="1.123" height="0.674" rx="0.337" transform="translate(111.364 116.187)" fill="#3f3d56"/><rect width="1.123" height="0.674" rx="0.337" transform="translate(113.61 116.187)" fill="#3f3d56"/><rect width="1.123" height="0.674" rx="0.337" transform="translate(115.856 116.187)" fill="#3f3d56"/><rect width="1.123" height="0.674" rx="0.337" transform="translate(118.102 116.187)" fill="#3f3d56"/><rect width="1.123" height="0.674" rx="0.337" transform="translate(120.348 116.187)" fill="#3f3d56"/><rect width="1.123" height="0.674" rx="0.337" transform="translate(122.594 116.187)" fill="#3f3d56"/><rect width="1.123" height="0.674" rx="0.337" transform="translate(124.84 116.187)" fill="#3f3d56"/><rect width="1.123" height="0.674" rx="0.337" transform="translate(127.086 116.187)" fill="#3f3d56"/><rect width="1.123" height="0.674" rx="0.337" transform="translate(129.332 116.187)" fill="#3f3d56"/><rect width="1.123" height="0.674" rx="0.337" transform="translate(131.578 116.187)" fill="#3f3d56"/><rect width="1.123" height="0.674" rx="0.337" transform="translate(133.824 116.187)" fill="#3f3d56"/><rect width="1.123" height="0.674" rx="0.337" transform="translate(136.07 116.187)" fill="#3f3d56"/><rect width="1.123" height="0.674" rx="0.337" transform="translate(138.316 116.187)" fill="#3f3d56"/><rect width="1.123" height="0.674" rx="0.337" transform="translate(104.6 117.31)" fill="#3f3d56"/><rect width="1.123" height="0.674" rx="0.337" transform="translate(106.846 117.31)" fill="#3f3d56"/><rect width="1.123" height="0.674" rx="0.337" transform="translate(109.092 117.31)" fill="#3f3d56"/><rect width="1.123" height="0.674" rx="0.337" transform="translate(111.338 117.31)" fill="#3f3d56"/><rect width="1.123" height="0.674" rx="0.337" transform="translate(113.584 117.31)" fill="#3f3d56"/><rect width="1.123" height="0.674" rx="0.337" transform="translate(115.83 117.31)" fill="#3f3d56"/><rect width="1.123" height="0.674" rx="0.337" transform="translate(118.076 117.31)" fill="#3f3d56"/><rect width="1.123" height="0.674" rx="0.337" transform="translate(120.322 117.31)" fill="#3f3d56"/><rect width="1.123" height="0.674" rx="0.337" transform="translate(122.568 117.31)" fill="#3f3d56"/><rect width="1.123" height="0.674" rx="0.337" transform="translate(124.814 117.31)" fill="#3f3d56"/><rect width="1.123" height="0.674" rx="0.337" transform="translate(127.06 117.31)" fill="#3f3d56"/><rect width="1.123" height="0.674" rx="0.337" transform="translate(129.306 117.31)" fill="#3f3d56"/><rect width="1.123" height="0.674" rx="0.337" transform="translate(131.552 117.31)" fill="#3f3d56"/><rect width="1.123" height="0.674" rx="0.337" transform="translate(133.798 117.31)" fill="#3f3d56"/><rect width="1.123" height="0.674" rx="0.337" transform="translate(136.044 117.31)" fill="#3f3d56"/><rect width="1.123" height="0.674" rx="0.337" transform="translate(138.29 117.31)" fill="#3f3d56"/><rect width="8.984" height="0.674" rx="0.337" transform="translate(115.381 118.658)" fill="#3f3d56"/><path d="M577.145,329.654H519.8a.228.228,0,1,1,0-.456h57.345a.228.228,0,1,1,0,.456Z" transform="translate(-428.024 -265.264)" fill="#cacaca"/><ellipse cx="1.336" cy="1.366" rx="1.336" ry="1.366" transform="translate(94.342 60.038)" fill="#3f3d56"/><ellipse cx="1.336" cy="1.366" rx="1.336" ry="1.366" transform="translate(98.959 60.038)" fill="#3f3d56"/><ellipse cx="1.336" cy="1.366" rx="1.336" ry="1.366" transform="translate(103.576 60.038)" fill="#3f3d56"/><path d="M694.813,317.28h-3.28a.248.248,0,1,0,0,.5h3.279a.248.248,0,1,0,0-.5Z" transform="translate(-548.472 -256.904)" fill="#3f3d56"/><path d="M694.813,320.4h-3.28a.248.248,0,1,0,0,.5h3.279a.248.248,0,1,0,0-.5Z" transform="translate(-548.472 -259.094)" fill="#3f3d56"/><path d="M694.813,323.52h-3.28a.248.248,0,1,0,0,.5h3.279a.248.248,0,1,0,0-.5Z" transform="translate(-548.472 -261.281)" fill="#3f3d56"/><rect width="9.115" height="1.949" rx="0.975" transform="translate(116.889 77.713)" fill="#ff4800"/><rect width="18.373" height="1.949" rx="0.975" transform="translate(112.26 81.611)" fill="#e6e6e6"/><rect width="18.373" height="1.949" rx="0.975" transform="translate(112.26 85.509)" fill="#e6e6e6"/><path d="M474.512,525.911H456.6a2.388,2.388,0,1,0,0,4.777h6.568V549.2h4.777v-18.51h6.568a2.388,2.388,0,1,0,0-4.777Z" transform="translate(-382.177 -403.247)" fill="#3f3d56"/><path d="M355.451,450.961H307.539a19.348,19.348,0,0,1-19.082-16.61l-1.7-6.238a140.044,140.044,0,0,0-15.877-36.693c-3.209-5.211-4.86-10.255-1.109-15.111l.094-.122c3.009-3.916,17.983-4.764,22.865-4.928q.289-.01.581-.01h29.8q.292,0,.581.01a14.583,14.583,0,0,1,12.61,8.037,15.027,15.027,0,0,1-.853,15.384c-10.468,15.725-13.673,25.585-10.392,31.971,3.174,6.176,12.9,9.334,30.619,9.937a6.994,6.994,0,0,1,6.961,7.245,6.821,6.821,0,0,1-6.733,7.12Q355.681,450.961,355.451,450.961Z" transform="translate(-251.293 -294.759)" fill="#3f3d56"/><path d="M422.98,674.829h17.913a2.388,2.388,0,0,0,0-4.777h-6.568v-40.3h-4.777v40.3H422.98a2.388,2.388,0,0,0,0,4.777Z" transform="translate(-358.595 -476.084)" fill="#3f3d56"/><path d="M379.785,354.135l.375,2.282c.178,1.106.821,8.922.344,9.855-.042-1.741-3.284-4.478-5.385-3.853l-3.3.732-2.046.455-1.665.365-4.839,1.057c-.008-.056-.015-.116-.023-.172s-.023-.142-.037-.212a4.208,4.208,0,0,0-.486-1.29,3.219,3.219,0,0,1-.461,1.517.264.264,0,0,0-.02.038,3.8,3.8,0,0,1-.284.4.065.065,0,0,0-.013.012s-.994-15.85-.89-16c.076-.1.153-.205.233-.3s.157-.2.24-.3a.13.13,0,0,0,.027-.033,10.745,10.745,0,0,1,.74-.791c.076-.074.156-.148.235-.222a11.028,11.028,0,0,1,4.233-2.442c.178-.055.363-.1.55-.155s.374-.092.564-.131l.064-.013c.091-.019.185-.035.276-.05.115-.02.23-.038.343-.052a11.117,11.117,0,0,1,4.393.247s0,0,.006,0a11.33,11.33,0,0,1,3.366,1.5c1.786,1.18,2.482,3.1,2.976,5.263C379.48,352.586,379.625,353.357,379.785,354.135Z" transform="translate(-316.83 -276.151)" fill="#2f2e41"/><path d="M269.963,582.86l3.086,1.676,8.169-11.295-4.555-2.474Z" transform="translate(-189.365 -400.364)" fill="#ffb6b6"/><path d="M478.851,712.842l5.6,1.754-.892,2.347,3.841,5.575a1.568,1.568,0,0,1-1.848,2.356l-6.522-2.478-.242-2.749L477.47,721.8l-2.459-.934Z" transform="translate(-396.767 -534.37)" fill="#2f2e41"/><path d="M469.545,517.579a3.467,3.467,0,0,1-4.281-3.153l-26.321-9.469,4.83-4.2,24.982,9.947a3.486,3.486,0,0,1,.789,6.879Z" transform="translate(-371.467 -385.601)" fill="#ffb6b6"/><path d="M402.945,436.26s-4.433.1-4.827,5.159S407.4,459,408.9,461.063s18.145,4.605,18.145,4.605l5.659-4.108c-5.946-3.853-11.372-6.807-15.014-6.674Z" transform="translate(-342.823 -340.362)" fill="#ff4800"/><path d="M396.1,503.548l1.08,4.641s.011,4.28.769,5.069,17.3-.792,17.3-.792a59.178,59.178,0,0,1-1.731-12.115Z" transform="translate(-341.418 -385.319)" fill="#ffb6b6"/><path d="M431.1,585.657l-5.971-3.284c-.114-7.77,4.56-18.284,10.1-29.3-12.4,2.132-24.092,2.815-34.208.236a6.539,6.539,0,0,1-4.676-7.9q.059-.246.137-.486c1.211-3.694-1.5-6.009.993-10.072,6.567-2.243,12.806-2.876,18.51-.9l3.574,7.9,17.717-2.293a6.533,6.533,0,0,1,7.268,5.76q.036.288.047.579C441.015,562.7,437,577.814,431.1,585.657Z" transform="translate(-341.455 -408.06)" fill="#2f2e41"/><circle cx="7.406" cy="7.406" r="7.406" transform="translate(45.282 73.13) rotate(-11.564)" fill="#ffb6b6"/><path d="M378.7,411.682l6.825-.4a1.386,1.386,0,0,1,1.363.855l1.929,4.676,8.016,6.626a16.622,16.622,0,0,1,3.181,9.255c.007,5.216,1.126,17.289,1.126,17.289s-4.632-6.52-7.491-4.786c-.486.3-.657.9-1.167,1.2-.254.152-.841,0-1.1.157-3.94,2.339-8.048,4.624-8.432,4.223-.754-.787-1.668-4.806-1.668-4.806l-6.248-22.955a8.5,8.5,0,0,1,1.209-7.154,2.569,2.569,0,0,1,1.319-1.147C378.516,414.511,378.008,412.372,378.7,411.682Z" transform="translate(-326.417 -322.838)" fill="#ff4800"/><path d="M351.028,610.2l2.881-2-6.527-12.313-4.252,2.956Z" transform="translate(-240.688 -417.983)" fill="#ffb6b6"/><path d="M456.612,597.141l-4.515,4.036c-7.18-8-12.607-19.22-17.207-31.961a76.968,76.968,0,0,1-29.074-15.981c-2.692-2.277-4.709-5.2-2.414-7.978q.161-.195.336-.376c2.71-2.786,9.584-2.255,13.609-4.807l8.993,9.612-.566,2.577,16.891,5.722a6.524,6.524,0,0,1,3.981,8.365q-.095.275-.213.541Z" transform="translate(-345.837 -413.183)" fill="#2f2e41"/><path d="M576.891,747.638l4.612-3.632,1.433,2.062,6.771-.021a1.568,1.568,0,0,1,.9,2.856l-5.728,3.982-2.4-1.353,1.032,2.307-2.16,1.5Z" transform="translate(-468.231 -556.23)" fill="#2f2e41"/><path d="M381.863,538.529a3.468,3.468,0,0,1-1.55-5.086l-15.451-23.317,6.385-.485,14.092,22.9a3.486,3.486,0,0,1-3.476,5.988Z" transform="translate(-319.504 -391.834)" fill="#ffb6b6"/><path d="M368.449,431.556s-3.613-2.57-6.953,1.253S358.435,452.45,358.4,455c-.01.8,1.144,2.522,2.733,4.513.713.894,1.515,1.841,2.338,2.783.476.545.066,1.68.544,2.21s1.84.449,2.293.938c2.148,2.321,3.893,4.088,3.893,4.088l6.992.086c.079-5.2-3.481-9.837-8.054-14.322Z" transform="translate(-314.974 -336.47)" fill="#ff4800"/><path d="M374.257,351.721c-.274.135-.54.266-.8.389a24.816,24.816,0,0,1-3.241,1.318,4.08,4.08,0,0,0-.829-1.357,3.242,3.242,0,0,1-.137,1.622,9.167,9.167,0,0,1-5.087-.2c1.074,1.989,1.868,6.182,1.811,9.921a13.86,13.86,0,0,1-.877,5.156l-.751-2.284a14.226,14.226,0,0,0-.418-2.416c-.5-2.222-.973-.736-1.665.365l-4.839,1.057c-.008-.056-.015-.116-.023-.172s-.023-.142-.037-.212a4.207,4.207,0,0,0-.486-1.29,3.219,3.219,0,0,1-.461,1.517.259.259,0,0,0-.02.038,3.8,3.8,0,0,1-.284.4.064.064,0,0,0-.013.012c-3.124.418-5.315-15.694-.89-15.994.129-.009.153-.2.233-.307s.157-.2.241-.3a.129.129,0,0,0,.027-.033c.237-.274.481-.537.74-.791.076-.074.156-.148.235-.222a11.2,11.2,0,0,1,4.234-2.439c.178-.055.362-.108.55-.158s.374-.092.564-.131l.064-.013c.091-.019.185-.035.276-.05.115-.02.23-.038.343-.052a2.8,2.8,0,0,1,1.055.924l3.092-.633q.123-.025.248-.042h.006C370.974,344.7,373.455,347.8,374.257,351.721Z" transform="translate(-310.979 -276.418)" fill="#2f2e41"/><path d="M358.587,344.685a5.14,5.14,0,0,1-2.166,1.088,1.762,1.762,0,0,1-1.977-1.057c-.273-.96.594-1.834,1.373-2.458l2.471-1.978a5.974,5.974,0,0,1,1.515-.979,2.019,2.019,0,0,1,1.748.058,1.877,1.877,0,0,1,.825,1.634,3.489,3.489,0,0,1-.612,1.79,6.3,6.3,0,0,1-4.087,2.779" transform="translate(-312.16 -272.23)" fill="#2f2e41"/><path d="M383.512,529.911H365.6a2.388,2.388,0,0,0,0,4.777h6.568V553.2h4.777v-18.51h6.568a2.388,2.388,0,0,0,0-4.777Z" transform="translate(-318.345 -406.053)" fill="#3f3d56"/><path d="M344.28,781.972l-130.99.092a.355.355,0,0,1,0-.711l130.99-.092a.355.355,0,0,1,0,.711Z" transform="translate(-212.934 -582.362)" fill="#cacaca"/><path d="M567.621,509.35l2.916,3.178,13.645-9.735-4.3-4.69Z" transform="translate(-398.156 -349.392)" fill="#a0616a"/><path d="M777.609,651.181v0l-.3-3.174-.134-.063-.785-.373-3.705-1.753-.078-.084-.743-.812-4.117,3.78,5.577,6.078,3.825,4.168.128-.119a5.407,5.407,0,0,0,.328-7.646Z" transform="translate(-602.109 -486.727)" fill="#2f2e41"/><path d="M517.018,604.562l4.127,1.254,6.8-15.321-6.091-1.85Z" transform="translate(-362.661 -412.903)" fill="#a0616a"/><path d="M735.312,756.26a5.361,5.361,0,0,0-3.2-2.627l-1.872-2.583-.146.012-4.947.454-.11-.033-1.051-.319-1.624,5.347,13.307,4.042.051-.17A5.39,5.39,0,0,0,735.312,756.26Z" transform="translate(-570.27 -561.171)" fill="#2f2e41"/><path d="M769.2,488.318s26.348,25.439,9.691,33.313h-5.148a34.1,34.1,0,0,0-5.089-10.131c-.486-.637-2.309-.507-2.815-1.128-3.09-3.788-6.44-7.041-8.753-6.912l.553,17.577.9,6.27c.47,3.241-12.8,31.54-12.8,31.54l-8.343-3.279s8.692-23.308,8.794-26.669l-6.965-36.947Z" transform="translate(-580.809 -376.878)" fill="#2f2e41"/><path d="M769.923,362.949a1.569,1.569,0,0,1-.514.466,3.626,3.626,0,0,1-1.078.4c-5.932,1.346-25.311,4.138-30.342,2.806-.618-.161-1.021-.388-1.152-.687-.421-.943-.367-4.929-.12-9.742.045-.9,1.039-1.878,1.1-2.821.042-.708-.851-1.373-.8-2.093.328-4.866.752-9.825,1.036-12.96.179-2.015.3-3.275.3-3.275l-3.06-19.3.143-.236.161-.081,9.867-4.884.537-1.373a2.125,2.125,0,0,1,1.967-1.346l6.5-.027a2.118,2.118,0,0,1,1.729.878l1.761,2.439,11.644,7.464-.045.137-5.464,16.626-.027,1.3v0l-.2,10.419.564,1.412-.636,2.317a10.525,10.525,0,0,0,1.86,4.72,47.776,47.776,0,0,1,4.048,5.278v0C770.153,361.648,770.305,362.388,769.923,362.949Z" transform="translate(-579.34 -250.255)" fill="#ff4800"/><path d="M829.4,584.647l-1.408,1.78s-12.952,9.062-13.4,9.908l-2.047,1.937-4.953-5.294,2.576-3.228a20.219,20.219,0,0,1,7.756-5.938h0l3.947-3.5Z" transform="translate(-630.056 -441.405)" fill="#2f2e41"/><path d="M846.059,431.13,843.7,408.3l-.623-9.4,6.6-1.194s-.262,6.719.6,10.509c.854,3.741.113,22.41.061,22.909a3.212,3.212,0,1,1-4.284,0Z" transform="translate(-654.947 -313.321)" fill="#a0616a"/><path d="M841.035,367.71l-8.486,1.756-.742-2.958-.865-.918-1.728-9.053-2.479-5.3.644-18.135,6.3,3.34.008.006c.963,1.046,1.627,2.542,2.731,4.044,3.478,4.732,3.864,16.229,3.759,22.527,0,.1.1.212.227.327a3.491,3.491,0,0,1,.634,4.367Z" transform="translate(-643.483 -268)" fill="#ff4800"/><path d="M711.776,434.13l2.359-22.83.622-9.4-6.6-1.194s.262,6.719-.6,10.509c-.854,3.741-.113,22.41-.061,22.909a3.212,3.212,0,1,0,4.284,0Z" transform="translate(-559.089 -315.426)" fill="#a0616a"/><path d="M715.922,352.313l-1.839,3.935-.642,1.37-1.729,9.052-.863.917-.743,2.959-.349-.072-6.3-1.3-1.836-.379a3.491,3.491,0,0,1,.633-4.368c.125-.113.23-.224.227-.328-.1-6.3.281-17.794,3.759-22.526,1.1-1.5,1.767-3,2.732-4.042,0,0,0-.006.006-.006l2.347-3.842.143-.236.161-.081Z" transform="translate(-555.374 -268.184)" fill="#ff4800"/><circle cx="8.648" cy="8.648" r="8.648" transform="translate(163.042 38.4)" fill="#a0616a"/><path d="M769.855,238.875a8.867,8.867,0,0,0-1.23-4.866,4.055,4.055,0,0,0-4.269-1.767,1.775,1.775,0,0,0-.884-1.636,4.663,4.663,0,0,0-2.027-.511,18.136,18.136,0,0,0-5.069,0,6.181,6.181,0,0,0-4.239,2.672l-.018.042-.164.794a.754.754,0,0,1-.373.508.74.74,0,0,1-.63.045.684.684,0,0,0-.917.74l.045.316-.475-.09a.682.682,0,0,0-.767.911l.131.361a.731.731,0,0,0-.522.23.668.668,0,0,0-.09.782,6.214,6.214,0,0,0,2.191,2.2,5.164,5.164,0,0,0,1.3.558q.143.04.3.072a30.769,30.769,0,0,0,11.151.334,6.316,6.316,0,0,0-.248,2.257,2.371,2.371,0,0,0,1.424,2,2.986,2.986,0,0,0,.52.125,3.208,3.208,0,0,1,.5.122,1.452,1.452,0,0,1,.424,2.484s.782.648.881.615a2.01,2.01,0,0,0,.919-.818A14.119,14.119,0,0,0,769.855,238.875Z" transform="translate(-588.444 -195.621)" fill="#2f2e41"/></g><g transform="translate(1103 118.241)"><ellipse cx="39.774" cy="3.034" rx="39.774" ry="3.034" transform="translate(0 175.692)" fill="#e6e6e6"/><path d="M313.26,285.109l-15.868-4.328q6.356-6,5.53-11.3H313.26Z" transform="translate(-260.604 -239.45)" fill="#9f616a"/><path d="M109.2,356.886l-5.125.721L97.9,300.867l-9.857,56.5-5.289.24V285.961h32.7Z" transform="translate(-54.858 -189.572)" fill="#2f2e41"/><path d="M272.011,684.342h0a3.605,3.605,0,0,0,3.575-2.635l.374-5.587-.755-3.962a4.359,4.359,0,0,0-6.038,0l-.648,8.3a3.605,3.605,0,0,0,3.491,3.884Z" transform="translate(-241.456 -505.591)" fill="#2f2e41"/><path d="M334.778,684.342h0a3.605,3.605,0,0,0,3.575-2.635l.374-5.587-.755-3.962a4.359,4.359,0,0,0-6.038,0l-.648,8.3a3.605,3.605,0,0,0,3.491,3.884Z" transform="translate(-283.066 -505.591)" fill="#2f2e41"/><circle cx="9.136" cy="9.136" r="9.136" transform="translate(41.357 19.213)" fill="#9f616a"/><path d="M303.723,353.117H268.861c4.518-20.94,4.506-37.805.907-51.445a3.645,3.645,0,0,1,2.216-4.332l9.379-3.607c2.816,3.636,6.789,5.225,12.983,2.885l4.915,1.008a5.05,5.05,0,0,1,4.03,5.28c-.362,5.334-.219,10.71-.53,15.35C301.8,332.625,301.381,343.827,303.723,353.117Z" transform="translate(-241.69 -255.526)" fill="#e6e6e6"/><path d="M312.261,223.429s5.289-6.011,11.54-.24l1.683.481-1.2.962s6.251,2.885,5.77,8.9a2.756,2.756,0,0,0-1.443,0c-.481.24-.721,2.885-.721,2.885a15.182,15.182,0,0,0-.962-2.164c-.24-.24-3.606,2.645-9.136-1.683,0,0-1.683,4.328-3.606,3.847a4.54,4.54,0,0,0-5.77,2.885S301.923,225.352,312.261,223.429Z" transform="translate(-266.577 -207.1)" fill="#2f2e41"/><path d="M369.626,387.075l-3.086,4.137a4.054,4.054,0,0,0,.874,5.71h0a4.054,4.054,0,0,0,6.378-2.645l.883-5.518,1.683-23.8-1.2-12.021-7.694,2.885,2.164,10.338Z" transform="translate(-305.91 -294.773)" fill="#9f616a"/><path d="M362.332,327.024l9.376-4.328-.481-3.406a13.984,13.984,0,0,0-8.929-13.039l-2.852-1.106Z" transform="translate(-301.741 -263.092)" fill="#e6e6e6"/><path d="M253.482,384.221l3.086,4.137a4.054,4.054,0,0,1-.874,5.71h0a4.054,4.054,0,0,1-6.378-2.645l-.883-5.518-1.683-23.8,1.2-12.021,7.694,2.885L253.482,363.3Z" transform="translate(-227.031 -292.881)" fill="#9f616a"/><path d="M257.553,324.171l-9.376-4.328.481-3.406a13.984,13.984,0,0,1,8.929-13.039l2.852-1.106Z" transform="translate(-227.977 -261.201)" fill="#e6e6e6"/><path d="M683.724,492.946H523.278a2.531,2.531,0,0,1-2.528-2.528V420.644a2.531,2.531,0,0,1,2.528-2.528H683.724a2.531,2.531,0,0,1,2.528,2.528v69.774a2.531,2.531,0,0,1-2.528,2.528ZM523.278,419.127a1.519,1.519,0,0,0-1.517,1.517v69.774a1.518,1.518,0,0,0,1.517,1.517H683.724a1.519,1.519,0,0,0,1.517-1.517V420.644a1.519,1.519,0,0,0-1.517-1.517Z" transform="translate(-408.674 -337.984)" fill="#e6e6e6"/><path d="M544.767,443.616a1.517,1.517,0,1,0,0,3.034H566a1.517,1.517,0,0,0,0-3.034Z" transform="translate(-423.59 -354.888)" fill="#e6e6e6"/><path d="M697.408,473.721v28.128H554.21v-14.81c.992-.637,1.989-1.271,3-1.883,4.3-2.631,8.9-5.091,13.915-6a21.006,21.006,0,0,1,7.184-.09,40.993,40.993,0,0,1,7.31,2.152,49.93,49.93,0,0,0,7.169,2.248,20.991,20.991,0,0,0,7.271.143c4.6-.691,8.93-2.541,13.238-4.215,4.335-1.683,8.8-3.274,13.493-3.483a40.279,40.279,0,0,1,13.6,2.242c8.96,2.765,18.109,6.867,27.6,4.054,9.634-2.852,18.5-11.085,29.173-8.643a.4.4,0,0,1,.252.158Z" transform="translate(-430.855 -374.444)" fill="#e6e6e6"/><path d="M697.205,474.211a.432.432,0,0,1-.49.215,15.968,15.968,0,0,0-3.88-.4c-10.5.185-18.577,8.64-28.846,9.9-9.259,1.139-17.973-3.363-26.678-5.716a31.6,31.6,0,0,0-13.841-1.04c-4.619.822-8.954,2.712-13.306,4.389-4.191,1.614-8.547,3.115-13.085,3.19-4.99.084-9.483-1.973-14.111-3.54a25.125,25.125,0,0,0-7.426-1.525,22.464,22.464,0,0,0-7.318,1.133c-4.918,1.564-9.348,4.35-13.662,7.118a.383.383,0,0,1-.254.069.463.463,0,0,1-.2-.843l.2-.126c.99-.637,1.985-1.271,2.99-1.883,4.29-2.631,8.882-5.091,13.886-6a20.919,20.919,0,0,1,7.169-.09,40.845,40.845,0,0,1,7.294,2.152,49.749,49.749,0,0,0,7.154,2.248,20.9,20.9,0,0,0,7.256.143c4.595-.691,8.912-2.541,13.211-4.215,4.326-1.683,8.783-3.274,13.465-3.483a40.12,40.12,0,0,1,13.572,2.242c8.942,2.765,18.072,6.867,27.539,4.054,9.614-2.852,18.457-11.085,29.112-8.643a.4.4,0,0,1,.251.158A.46.46,0,0,1,697.205,474.211Z" transform="translate(-430.653 -374.444)" fill="#ff4800"/><circle cx="2.093" cy="2.093" r="2.093" transform="translate(140.992 102.891)" fill="#ff4800"/><circle cx="2.093" cy="2.093" r="2.093" transform="translate(193.907 100.2)" fill="#ff4800"/><circle cx="2.093" cy="2.093" r="2.093" transform="translate(258.48 97.51)" fill="#ff4800"/><path d="M606.267,593.616a1.517,1.517,0,1,0,0,3.034H627.5a1.517,1.517,0,1,0,0-3.034Z" transform="translate(-464.36 -454.328)" fill="#e6e6e6"/><circle cx="5.73" cy="5.73" r="5.73" transform="translate(122.525 134.907)" fill="#ff4800"/><path d="M758.267,593.616a1.517,1.517,0,1,0,0,3.034H779.5a1.517,1.517,0,0,0,0-3.034Z" transform="translate(-565.125 -454.328)" fill="#e6e6e6"/><circle cx="5.73" cy="5.73" r="5.73" transform="translate(173.76 134.907)" fill="#ff4800"/><path d="M910.267,593.616a1.517,1.517,0,1,0,0,3.034H931.5a1.517,1.517,0,0,0,0-3.034Z" transform="translate(-665.891 -454.328)" fill="#e6e6e6"/><circle cx="5.73" cy="5.73" r="5.73" transform="translate(224.994 134.907)" fill="#ff4800"/><path d="M810.49,320.566H731.333c-1.543,0-2.794-.891-2.8-1.989v-17.2c0-1.1,1.252-1.989,2.8-1.989H810.49c1.543,0,2.794.891,2.8,1.989v17.2C813.284,319.675,812.033,320.565,810.49,320.566Zm-79.157-20.387c-.926,0-1.676.535-1.677,1.193v17.2c0,.659.751,1.193,1.677,1.193H810.49c.926,0,1.676-.535,1.677-1.193v-17.2c0-.659-.751-1.193-1.677-1.193Z" transform="translate(-546.423 -259.272)" fill="#e6e6e6"/><path d="M786.614,328.391a1.687,1.687,0,0,0-1.685,1.685v11.8a1.687,1.687,0,0,0,1.685,1.685H846.95a1.687,1.687,0,0,0,1.685-1.685v-11.8a1.687,1.687,0,0,0-1.685-1.685Z" transform="translate(-583.806 -278.502)" fill="#ff4800"/><circle cx="3.708" cy="3.708" r="3.708" transform="translate(207.527 53.934)" fill="#fff"/><path d="M862.078,346.616a1.517,1.517,0,1,0,0,3.034h21.235a1.517,1.517,0,0,0,0-3.034Z" transform="translate(-633.945 -290.584)" fill="#fff"/><path d="M634.49,201.566H555.333c-1.543,0-2.794-.891-2.8-1.989v-17.2c0-1.1,1.252-1.989,2.8-1.989H634.49c1.543,0,2.794.891,2.8,1.989v17.2C637.284,200.675,636.033,201.565,634.49,201.566Zm-79.157-20.387c-.926,0-1.676.535-1.677,1.193v17.2c0,.659.751,1.193,1.677,1.193H634.49c.926,0,1.676-.535,1.677-1.193v-17.2c0-.659-.751-1.193-1.677-1.193Z" transform="translate(-429.747 -180.384)" fill="#e6e6e6"/><path d="M610.614,209.391a1.687,1.687,0,0,0-1.685,1.685v11.8a1.687,1.687,0,0,0,1.685,1.685H670.95a1.687,1.687,0,0,0,1.685-1.685v-11.8a1.687,1.687,0,0,0-1.685-1.685Z" transform="translate(-467.131 -199.613)" fill="#ff4800"/><circle cx="3.708" cy="3.708" r="3.708" transform="translate(148.203 13.822)" fill="#fff"/><path d="M686.078,227.616a1.517,1.517,0,1,0,0,3.034h21.235a1.517,1.517,0,0,0,0-3.034Z" transform="translate(-517.269 -211.696)" fill="#fff"/></g><g transform="translate(1408 25.292)"><path d="M516.674,281.811H264.347a6.5,6.5,0,0,1-6.5-6.5V119.725a4.765,4.765,0,0,1,4.76-4.76H518.328a4.847,4.847,0,0,1,4.842,4.842V275.315A6.5,6.5,0,0,1,516.674,281.811Z" transform="translate(-196.682 -109.529)" fill="#f2f2f2"/><path d="M520.1,291.026H284.941a6.07,6.07,0,0,1-6.252-5.854V149.682a4.5,4.5,0,0,1,4.633-4.342H521.645a4.574,4.574,0,0,1,4.709,4.413V285.172A6.07,6.07,0,0,1,520.1,291.026Z" transform="translate(-209.316 -127.944)" fill="#fff"/><path d="M522.939,110.984H257.619v-3.308a6.526,6.526,0,0,1,6.52-6.516h252.28a6.526,6.526,0,0,1,6.52,6.516Z" transform="translate(-196.541 -101.16)" fill="#ccc"/><circle cx="1.687" cy="1.687" r="1.687" transform="translate(71.24 3.235)" fill="#fff"/><circle cx="1.687" cy="1.687" r="1.687" transform="translate(77.642 3.235)" fill="#fff"/><circle cx="1.687" cy="1.687" r="1.687" transform="translate(84.044 3.235)" fill="#fff"/><path d="M534.865,303.8H352.625a6.9,6.9,0,0,1-6.891-6.891V209.04a5.159,5.159,0,0,1,5.153-5.153H536.52a5.242,5.242,0,0,1,5.236,5.236v87.783A6.9,6.9,0,0,1,534.865,303.8ZM350.887,204.674a4.371,4.371,0,0,0-4.366,4.366v87.866a6.11,6.11,0,0,0,6.1,6.1h182.24a6.11,6.11,0,0,0,6.1-6.1V209.122a4.453,4.453,0,0,0-4.448-4.448Z" transform="translate(-249.962 -163.438)" fill="#ccc"/><path d="M369.534,307.633h169.64a6.3,6.3,0,0,0,6.3-6.3V227.881a6.3,6.3,0,0,0-6.3-6.3H369.534a6.3,6.3,0,0,0-6.3,6.3v73.452A6.3,6.3,0,0,0,369.534,307.633Z" transform="translate(-260.572 -174.166)" fill="#f2f2f2"/><circle cx="3.544" cy="3.544" r="3.544" transform="translate(124.681 61.698)" fill="#ccc"/><circle cx="3.544" cy="3.544" r="3.544" transform="translate(124.681 75.085)" fill="#ccc"/><circle cx="3.544" cy="3.544" r="3.544" transform="translate(124.681 88.473)" fill="#ccc"/><circle cx="3.544" cy="3.544" r="3.544" transform="translate(124.681 101.86)" fill="#ccc"/><path d="M589.1,266.642H472.547a.394.394,0,1,1,0-.788H589.1a.394.394,0,0,1,0,.788Z" transform="translate(-326.604 -201.007)" fill="#ccc"/><path d="M589.1,300.642H472.547a.394.394,0,1,1,0-.787H589.1a.394.394,0,0,1,0,.787Z" transform="translate(-326.604 -221.62)" fill="#ccc"/><path d="M589.1,334.642H472.547a.394.394,0,1,1,0-.788H589.1a.394.394,0,0,1,0,.788Z" transform="translate(-326.604 -242.232)" fill="#ccc"/><path d="M589.1,368.642H472.547a.394.394,0,1,1,0-.788H589.1a.394.394,0,0,1,0,.788Z" transform="translate(-326.604 -262.845)" fill="#ccc"/><path d="M508.541,381.423H497.122a1.971,1.971,0,0,1-1.969-1.969V368.823a1.971,1.971,0,0,1,1.969-1.969h11.419a1.971,1.971,0,0,1,1.969,1.969v10.631a1.971,1.971,0,0,1-1.969,1.969Z" transform="translate(-340.548 -262.239)" fill="#ff4800"/><path d="M573.541,360.811H562.122a1.971,1.971,0,0,1-1.969-1.969V334.823a1.971,1.971,0,0,1,1.969-1.969h11.419a1.971,1.971,0,0,1,1.969,1.969v24.018A1.971,1.971,0,0,1,573.541,360.811Z" transform="translate(-379.955 -241.626)" fill="#ff4800"/><path d="M639.541,340.2H628.122a1.971,1.971,0,0,1-1.969-1.969V300.823a1.971,1.971,0,0,1,1.969-1.969h11.419a1.971,1.971,0,0,1,1.969,1.969v37.406A1.971,1.971,0,0,1,639.541,340.2Z" transform="translate(-419.968 -221.013)" fill="#ff4800"/><path d="M707.541,320.191H696.122a1.971,1.971,0,0,1-1.969-1.969v-50.4a1.971,1.971,0,0,1,1.969-1.969h11.419a1.971,1.971,0,0,1,1.969,1.969v50.4A1.971,1.971,0,0,1,707.541,320.191Z" transform="translate(-461.193 -201.007)" fill="#ff4800"/><path d="M589.1,402.642H472.547a.394.394,0,1,1,0-.788H589.1a.394.394,0,0,1,0,.788Z" transform="translate(-326.604 -283.458)" fill="#3f3d56"/><path d="M898.164,579.41a3.959,3.959,0,0,1,6.032-.686l12.5-6.453-.778,7.27-11.754,5.013a3.981,3.981,0,0,1-6-5.144Z" transform="translate(-584.467 -386.773)" fill="#ffb8b8"/><path d="M923.949,541.482a1.773,1.773,0,0,1-.6-.871l-.994-3.213a1.777,1.777,0,0,1,.625-1.938l10.134-7.655,10.976-20.361a5.708,5.708,0,1,1,9.017,7l-6.244,13.179a18.259,18.259,0,0,1-9.238,8.937l-11.876,5.151a1.773,1.773,0,0,1-1.445-.016A1.742,1.742,0,0,1,923.949,541.482Z" transform="translate(-599.494 -346.134)" fill="#3f3d56"/><circle cx="9.671" cy="9.671" r="9.671" transform="translate(344.217 133.472)" fill="#ffb8b8"/><path d="M877.845,657.068h-4.827l-2.3-18.619h7.125Z" transform="translate(-527.88 -387.063)" fill="#ffb8b8"/><path d="M858.77,682.233h9.31v5.862H852.908A5.862,5.862,0,0,1,858.77,682.233Z" transform="translate(-517.08 -413.607)" fill="#2f2e41"/><path d="M917.845,657.069h-4.827l-2.3-18.62h7.125Z" transform="translate(-552.13 -387.063)" fill="#ffb8b8"/><path d="M898.77,682.234h9.31V688.1H892.909A5.862,5.862,0,0,1,898.77,682.234Z" transform="translate(-541.331 -413.608)" fill="#2f2e41"/><path d="M986.122,674.212h-5.657a1.775,1.775,0,0,1-1.711-1.311l-8.142-30.2a.2.2,0,0,0-.387.063l1.645,28.642a1.772,1.772,0,0,1-1.916,1.867l-6.358-.53a1.777,1.777,0,0,1-1.613-1.561l-5.792-60.142,2.241,1.345,21-3.565,8.449,63.388a1.772,1.772,0,0,1-1.757,2.006Z" transform="translate(-620.055 -408.93)" fill="#2f2e41"/><path d="M962.576,550.051A12.969,12.969,0,0,1,956,548.2a1.764,1.764,0,0,1-.841-1.807c.738-4.523,4.6-27.723,8.114-40.37,1.431-5.151,4.6-7.926,9.405-8.246a13.381,13.381,0,0,1,13.94,12.285c1.149,12.776-3.517,30.929-5.577,38.14a1.77,1.77,0,0,1-2.791.908l-4.2-3.266a1.391,1.391,0,0,0-1.778.074C968.74,549.076,965.379,550.051,962.576,550.051Z" transform="translate(-619.417 -341.595)" fill="#3f3d56"/><path d="M904.36,443.738,907.9,458.7l-5.12,12.6,3.545-12.206Z" transform="translate(-547.318 -269.019)" opacity="0.2"/><path d="M992.368,452.766a6.511,6.511,0,0,0,2.515-.455c.352-.136.718-.247,1.069-.383a8.67,8.67,0,0,0,5.221-7.83,11.276,11.276,0,0,0-4.206-8.682,16.28,16.28,0,0,0-9.188-3.473c-3.573-.272-7.6.634-9.594,3.609a3.134,3.134,0,0,0-.588,2.71,1.734,1.734,0,0,0,.488.75c.892.793,1.781.2,2.69.144a2.974,2.974,0,0,1,2.775,2.124,6.4,6.4,0,0,1-.1,3.7,9.225,9.225,0,0,0-.466,2.248,2.26,2.26,0,0,0,.937,1.99,2.579,2.579,0,0,0,2.587-.272,17.965,17.965,0,0,1,2.3-1.473,2.034,2.034,0,0,1,2.469.5,2.734,2.734,0,0,1,.312.9c.44,2.006.339,1.888.779,3.894Z" transform="translate(-632.962 -301.671)" fill="#2f2e41"/><path d="M879.692,639.265l-60.556-21.089a4.156,4.156,0,0,1-2.555-5.286L832.316,567.7a3.045,3.045,0,0,1,3.873-1.872l62.6,21.8a3.1,3.1,0,0,1,1.9,3.94l-15.719,45.136a4.156,4.156,0,0,1-5.286,2.555Z" transform="translate(-535.275 -382.767)" fill="#e6e6e6"/><path d="M832.387,624.2l52.952,18.441a4.026,4.026,0,0,0,5.126-2.478l12.707-36.487a4.026,4.026,0,0,0-2.478-5.126L847.743,580.11a4.026,4.026,0,0,0-5.126,2.478l-12.707,36.487a4.026,4.026,0,0,0,2.478,5.126Z" transform="translate(-543.36 -391.39)" fill="#fff"/><path d="M865.7,620.184l-2.622-.913a.569.569,0,0,1-.35-.723l.913-2.622a.569.569,0,0,1,.723-.35l2.622.913a.569.569,0,0,1,.349.723l-.913,2.622A.569.569,0,0,1,865.7,620.184Z" transform="translate(-563.37 -413.008)" fill="#ff4800"/><path d="M859.686,637.44l-2.622-.913a.569.569,0,0,1-.35-.723l.913-2.622a.568.568,0,0,1,.723-.35l2.622.913a.569.569,0,0,1,.35.723l-.913,2.622A.569.569,0,0,1,859.686,637.44Z" transform="translate(-559.727 -423.47)" fill="#3f3d56"/><path d="M853.676,654.7l-2.623-.913a.568.568,0,0,1-.349-.723l.913-2.622a.569.569,0,0,1,.723-.35l2.622.913a.569.569,0,0,1,.35.723l-.913,2.622A.569.569,0,0,1,853.676,654.7Z" transform="translate(-556.084 -433.931)" fill="#ccc"/><path d="M895.032,630.7,882.4,626.3a.568.568,0,1,1,.374-1.073l12.635,4.4a.568.568,0,1,1-.374,1.073Z" transform="translate(-575.085 -418.862)" fill="#ccc"/><path d="M889.023,647.961l-12.635-4.4a.568.568,0,0,1,.374-1.073l12.635,4.4a.568.568,0,1,1-.373,1.073Z" transform="translate(-571.442 -429.323)" fill="#ccc"/><path d="M883.013,665.217l-12.635-4.4a.568.568,0,0,1,.374-1.073l12.635,4.4a.568.568,0,1,1-.374,1.073Z" transform="translate(-567.799 -439.785)" fill="#ccc"/><path d="M971.174,658.663c.092-.221.179-.445.259-.674a11.906,11.906,0,0,0-7.328-15.16l-4.153,11.925Z" transform="translate(-622.334 -429.55)" fill="#ff4800"/><path d="M938.911,655.572l4.153-11.925a11.906,11.906,0,1,0,7.07,15.834Z" transform="translate(-602.502 -429.642)" fill="#3f3d56"/><path d="M994.625,605.25a3.96,3.96,0,0,1,4.323-4.263l5.856-12.794,3.875,6.2-6.155,11.2a3.981,3.981,0,0,1-7.9-.342Z" transform="translate(-643.348 -396.427)" fill="#ffb8b8"/><path d="M1012.453,550.863a1.773,1.773,0,0,1-1.01-.315l-2.765-1.914a1.778,1.778,0,0,1-.7-1.91l3.25-12.277-3.929-22.8a5.708,5.708,0,0,1,11.416-.055l3.22,14.223a18.258,18.258,0,0,1-1.754,12.733l-6.166,11.382a1.774,1.774,0,0,1-1.146.879A1.756,1.756,0,0,1,1012.453,550.863Z" transform="translate(-651.037 -346.545)" fill="#3f3d56"/><path d="M980.705,797.628H905.894a.394.394,0,1,1,0-.787h74.811a.394.394,0,1,1,0,.787Z" transform="translate(-589.323 -522.92)" fill="#ccc"/><path d="M490.54,656.57h4.827l2.3-18.619h-7.124Z" transform="translate(-297.392 -386.761)" fill="#a0616a"/><path d="M589.914,782.4h9.507a6.058,6.058,0,0,1,6.058,6.058v.2H589.914Z" transform="translate(-397.997 -514.162)" fill="#2f2e41"/><path d="M441.54,656.57h4.827l2.3-18.619h-7.124Z" transform="translate(-267.685 -386.761)" fill="#a0616a"/><path d="M540.914,782.4h9.507a6.058,6.058,0,0,1,6.058,6.058v.2H540.914Z" transform="translate(-368.291 -514.162)" fill="#2f2e41"/><circle cx="9.671" cy="9.671" r="9.671" transform="translate(184.441 121.563)" fill="#a0616a"/><path d="M567.085,650.81h-8.958a1.772,1.772,0,0,1-1.771-1.793l.52-42.537a.591.591,0,0,0-1.177-.079l-5.213,42.851a1.774,1.774,0,0,1-1.759,1.558h-9.044a1.772,1.772,0,0,1-1.767-1.91l5.972-76.416.162-.018,28.6-3.088-3.793,79.745A1.77,1.77,0,0,1,567.085,650.81Z" transform="translate(-366.47 -385.019)" fill="#2f2e41"/><path d="M551.129,515.724a1.77,1.77,0,0,1-1.766-1.716c-.156-4.832-.424-21.551,2.686-33.825a16.113,16.113,0,0,1,14.881-12.143h0a16.214,16.214,0,0,1,15.97,10.247c5.227,13.27,10.166,29.628,4.009,32.193-8.07,3.362-29.343,4.861-35.671,5.24Q551.183,515.724,551.129,515.724Z" transform="translate(-373.363 -323.569)" fill="#3f3d56"/><path d="M640.537,398.861a4.147,4.147,0,0,0,.491.43l-1.015,19.5-4.223,2.162,2.43,6.8,7.847-3.1a3.15,3.15,0,0,0,1.979-3.221l-2.056-22.12a4.133,4.133,0,1,0-5.453-.45Z" transform="translate(-425.81 -277.401)" fill="#a0616a"/><path d="M625.678,460.273l2.97,8.442a1.772,1.772,0,0,1-1.334,2.328l-8.759,1.7a4.921,4.921,0,0,1-3.24-9.293l7.865-4.151a1.772,1.772,0,0,1,2.5.979Z" transform="translate(-411.395 -318.156)" fill="#3f3d56"/><path d="M529.878,398.861a4.135,4.135,0,0,1-.491.43l1.015,19.5,4.223,2.162-2.43,6.8-7.847-3.1a3.15,3.15,0,0,1-1.979-3.221l2.056-22.12a4.133,4.133,0,1,1,5.453-.45Z" transform="translate(-357.04 -277.401)" fill="#a0616a"/><path d="M538.886,459.211a1.77,1.77,0,0,1,1.473.082l7.865,4.151a4.921,4.921,0,0,1-3.24,9.293l-8.759-1.7a1.772,1.772,0,0,1-1.334-2.328l2.971-8.441A1.77,1.77,0,0,1,538.886,459.211Z" transform="translate(-364.578 -318.156)" fill="#3f3d56"/><path d="M579.322,409.434a6.356,6.356,0,0,1,3.56-5.972c2.94-1.517,4.786-4.754,3.977-7.71-1.036-3.784-6.185-6.237-10.357-4.936a19.121,19.121,0,0,0-3.253,1.512l-2.726,1.461a28.263,28.263,0,0,0-3.36,1.984,11.149,11.149,0,0,0-4.437,10.446,14.906,14.906,0,0,0,6.5,9.789,11,11,0,0,0,4.457,1.981,5.922,5.922,0,0,0,4.7-1.065c1.888-1.606,1.693-4.3,1.083-6.543A4.757,4.757,0,0,1,579.322,409.434Z" transform="translate(-381.455 -276.552)" fill="#2f2e41"/><path d="M572.705,797.628H497.894a.394.394,0,1,1,0-.787h74.811a.394.394,0,1,1,0,.787Z" transform="translate(-341.971 -522.92)" fill="#ccc"/><path d="M245.224,533.815l-61.73,25.325a4.325,4.325,0,0,1-5.637-2.357l-18.9-46.061a3.169,3.169,0,0,1,1.727-4.129L224.5,480.411a3.223,3.223,0,0,1,4.2,1.757l18.876,46.011A4.325,4.325,0,0,1,245.224,533.815Z" transform="translate(-136.586 -330.937)" fill="#e6e6e6"/><path d="M194.917,562.757,248.9,540.612a4.189,4.189,0,0,0,2.286-5.466l-15.259-37.194a4.189,4.189,0,0,0-5.466-2.286l-53.979,22.144a4.189,4.189,0,0,0-2.286,5.466l15.259,37.194a4.189,4.189,0,0,0,5.466,2.286Z" transform="translate(-145.773 -340.141)" fill="#fff"/><rect width="0.858" height="0.143" transform="translate(89.057 168.28) rotate(-22.306)" fill="#e6e6e6"/><path d="M248.139,530.347l-1.6.658-.054-.132,1.6-.658Zm-3.207,1.315-1.6.658-.054-.132,1.6-.658Zm-3.206,1.316-1.6.658-.054-.132,1.6-.658Zm-3.206,1.315-1.6.658-.054-.132,1.6-.658Zm-3.206,1.315-1.6.658-.054-.132,1.6-.658Zm-3.206,1.315-1.6.658-.054-.132,1.6-.658ZM228.9,538.24l-1.6.658-.054-.132,1.6-.658Zm-3.206,1.315-1.6.658-.054-.132,1.6-.658Zm-3.206,1.315-1.6.658-.054-.132,1.6-.658Zm-3.206,1.315-1.6.658-.054-.132,1.6-.658Zm-3.206,1.315-1.6.658-.054-.132,1.6-.658Zm-3.206,1.315-1.6.658-.054-.132,1.6-.658Zm-3.206,1.315-1.6.658-.054-.132,1.6-.658Zm-3.206,1.316-1.6.658-.054-.132,1.6-.658Zm-3.206,1.315-1.6.658-.054-.132,1.6-.658Zm-3.206,1.315-1.6.658-.054-.132,1.6-.658Z" transform="translate(-160.631 -361.277)" fill="#e6e6e6"/><rect width="0.858" height="0.143" transform="translate(35.357 190.31) rotate(-22.306)" fill="#e6e6e6"/><rect width="0.858" height="0.143" transform="translate(68.047 191.27) rotate(-22.306)" fill="#e6e6e6"/><path d="M234.886,588.711l-1.579.648-.054-.132,1.579-.648Zm-3.159,1.3-1.579.648-.054-.132,1.579-.648Zm-3.159,1.3-1.579.648-.054-.132,1.579-.648Zm-3.159,1.3-1.579.648-.054-.132,1.579-.648Zm-3.159,1.3-1.579.648-.054-.132,1.579-.648Zm-3.159,1.3-1.579.648-.054-.132,1.579-.648Zm-3.159,1.3-1.579.648L214.3,597l1.579-.648Zm-3.159,1.3-1.579.648-.054-.132,1.579-.648Z" transform="translate(-168.364 -396.66)" fill="#e6e6e6"/><rect width="0.858" height="0.143" transform="translate(40.404 202.611) rotate(-22.306)" fill="#e6e6e6"/><rect width="0.858" height="0.143" transform="translate(54.96 203.439) rotate(-22.306)" fill="#e6e6e6"/><path d="M225.5,619.663l-1.625.667-.054-.132,1.625-.667ZM222.249,621l-1.625.667-.054-.132,1.625-.667ZM219,622.33l-1.625.667-.054-.132,1.625-.667Z" transform="translate(-172.11 -415.425)" fill="#e6e6e6"/><rect width="0.858" height="0.143" transform="translate(42.791 208.431) rotate(-22.306)" fill="#e6e6e6"/><rect width="0.858" height="0.143" transform="translate(59.034 213.37) rotate(-22.306)" fill="#e6e6e6"/><path d="M235.847,644.886l-1.625.667-.054-.132,1.625-.667Zm-3.25,1.333-1.625.667-.054-.132,1.625-.667Zm-3.25,1.333-1.625.667-.054-.132,1.625-.667Z" transform="translate(-178.384 -430.717)" fill="#e6e6e6"/><rect width="0.858" height="0.143" transform="translate(46.866 218.362) rotate(-22.306)" fill="#e6e6e6"/><path d="M233.132,579.018l45.743-18.766a4.52,4.52,0,0,0,2.464-5.891L272.1,531.833l-.089.04-11.225,26.84-8.326-3.481a1.079,1.079,0,0,0-.959.06,1.15,1.15,0,0,0-.477.564l-5.883,14.065-6.087-2.544a1.084,1.084,0,0,0-1.419.582C237.593,568.054,233.84,577.263,233.132,579.018Z" transform="translate(-181.697 -362.257)" fill="#ff4800"/><path d="M232.572,578.832l-.132-.055,4.707-11.256a1.216,1.216,0,0,1,1.59-.652l5.967,2.5,5.85-13.988a1.216,1.216,0,0,1,1.59-.652l8.205,3.431,11.283-26.981.132.055-11.338,27.113-8.337-3.487a1.072,1.072,0,0,0-1.4.576l-5.9,14.12-6.1-2.55a1.073,1.073,0,0,0-1.4.575Z" transform="translate(-181.277 -361.858)" fill="#3f3d56"/><circle cx="1.001" cy="1.001" r="1.001" transform="translate(54.78 202.179)" fill="#3f3d56"/><circle cx="1.001" cy="1.001" r="1.001" transform="translate(67.867 190.011)" fill="#3f3d56"/><circle cx="1.001" cy="1.001" r="1.001" transform="translate(88.246 166.985)" fill="#3f3d56"/><path d="M177.971,560.425a3.975,3.975,0,0,0,1.421-5.927l2.972-29.06h-6.423l-2.362,28.376a4,4,0,0,0,4.392,6.611Z" transform="translate(-144.738 -358.381)" fill="#ffb8b8"/><circle cx="9.088" cy="9.088" r="9.088" transform="translate(30.043 132.844)" fill="#ffb8b8"/><path d="M193.383,521.695a1.662,1.662,0,0,1-1.6-1.221,91.9,91.9,0,0,0-5.63-13.294,11.012,11.012,0,0,1,6.253-15.2h0a11.007,11.007,0,0,1,14.144,7.012,54.47,54.47,0,0,1,2.062,18.165,1.669,1.669,0,0,1-1.308,1.541l-13.563,2.962A1.657,1.657,0,0,1,193.383,521.695Z" transform="translate(-152.542 -337.714)" fill="#ff6584"/><path d="M137.081,659.485h4.536l2.158-17.5H137.08Z" transform="translate(-83.105 -389.209)" fill="#ffb8b8"/><path d="M0,0H14.256V5.508H5.508A5.508,5.508,0,0,1,0,0Z" transform="translate(67.258 274.488) rotate(179.997)" fill="#2f2e41"/><path d="M21.882,647.887l3.975,2.185,10.321-14.292-5.866-3.226Z" transform="translate(-13.266 -383.49)" fill="#ffb8b8"/><path d="M0,0H14.256V5.508H5.508A5.508,5.508,0,0,1,0,0Z" transform="translate(18.228 274.488) rotate(-151.199)" fill="#2f2e41"/><path d="M175.963,636.135a1.665,1.665,0,0,1-1.65-1.451l-5.673-43.715a.925.925,0,0,0-1.727-.328L143.27,633.536a1.674,1.674,0,0,1-2.051.753l-5.153-1.963a1.665,1.665,0,0,1-.949-2.184l16.378-40.233a1.283,1.283,0,0,0,.084-.319c2.218-17.169,7.862-25.9,9.539-28.168a1.289,1.289,0,0,0,.183-1.174l-.231-.692a1.664,1.664,0,0,1,.32-1.619c6.043-6.883,16.575-3.127,16.68-3.088l.053.02.033.045c11.81,16.2,7.443,68.8,6.448,79.181a1.66,1.66,0,0,1-1.53,1.5l-6.983.538C176.049,636.134,176.006,636.135,175.963,636.135Z" transform="translate(-122.2 -375.57)" fill="#2f2e41"/><path d="M254.707,483.822a3.9,3.9,0,0,0-.089.607L238.724,493.6l-3.863-2.224-4.119,5.392,6.457,4.6a2.96,2.96,0,0,0,3.551-.087l16.39-12.93a3.884,3.884,0,1,0-2.433-4.529Z" transform="translate(-180.248 -331.334)" fill="#ffb8b8"/><path d="M226.17,502.79l-5.137,6.658a1.665,1.665,0,0,1-2.517.138l-5.815-6.039a4.624,4.624,0,0,1,5.671-7.305l7.294,4.078a1.665,1.665,0,0,1,.505,2.47Z" transform="translate(-168.225 -340.091)" fill="#ff6584"/><path d="M184.248,520.037l-8.275-1.494a1.665,1.665,0,0,1-1.282-2.171l2.683-7.943a4.624,4.624,0,0,1,9.1,1.67l-.262,8.352a1.665,1.665,0,0,1-1.96,1.586Z" transform="translate(-146.213 -345.771)" fill="#ff6584"/><path d="M155.176,439.054c2.336,1.6,5.4,3.242,7.788,1.539a4.341,4.341,0,0,0,1.425-5c-1.142-3.267-4.281-4.7-7.282-5.807-3.9-1.433-8.15-2.573-12.177-1.547s-7.587,4.926-6.86,9.018c.585,3.291,3.689,6.029,3.248,9.342-.444,3.335-4.194,5.09-7.5,5.686s-7.015.787-9.395,3.165c-3.035,3.034-2.277,8.456.579,11.659s7.166,4.655,11.342,5.642c5.533,1.308,11.518,1.995,16.773-.175s9.345-8.012,7.822-13.49a18.821,18.821,0,0,0-3.622-6.173,17.2,17.2,0,0,1-3.5-6.23,6.477,6.477,0,0,1,1.17-5.667,1.642,1.642,0,0,0,.22-1.919Z" transform="translate(-114.608 -299.212)" fill="#2f2e41"/><path d="M177.705,797.628H102.894a.394.394,0,1,1,0-.787h74.811a.394.394,0,1,1,0,.787Z" transform="translate(-102.5 -522.92)" fill="#ccc"/></g><g transform="translate(875 131.89)"><path d="M322.091,130.255,366.928,91.9l.208.563-44.679,38.216Z" transform="translate(-233.986 -66.765)" fill="#2f2e41"/><circle cx="6.571" cy="6.571" r="6.571" transform="translate(130.185 20.677)" fill="#ff4800"/><path d="M770.912,285.276h-60a1.957,1.957,0,0,1,0-3.913h60a1.957,1.957,0,0,1,0,3.913Z" transform="translate(-578.773 -243.478)" fill="#ff4800"/><path d="M770.912,313.542h-60a1.957,1.957,0,1,1,0-3.914h60a1.957,1.957,0,0,1,0,3.914Z" transform="translate(-578.772 -264.012)" fill="#ff4800"/><path d="M736.922,341.809H710.914a1.957,1.957,0,1,1,0-3.914h26.008a1.957,1.957,0,0,1,0,3.914Z" transform="translate(-578.772 -284.546)" fill="#ff4800"/><circle cx="4.504" cy="4.504" r="4.504" transform="translate(143.327 72.58)" fill="#e6e7e8"/><path d="M799.467,454H758.343a1.341,1.341,0,1,1,0-2.682h41.124a1.341,1.341,0,0,1,0,2.682Z" transform="translate(-613.675 -366.943)" fill="#e6e7e8"/><path d="M768.557,473.374H758.343a1.341,1.341,0,1,1,0-2.682h10.214a1.341,1.341,0,1,1,0,2.682Z" transform="translate(-613.675 -381.017)" fill="#e6e7e8"/><circle cx="4.504" cy="4.504" r="4.504" transform="translate(128.952 117.621)" fill="#e6e7e8"/><path d="M746.916,618.659H705.792a1.341,1.341,0,0,1,0-2.682h41.124a1.341,1.341,0,0,1,0,2.682Z" transform="translate(-575.499 -486.561)" fill="#e6e7e8"/><path d="M730.5,638.033H705.792a1.341,1.341,0,0,1,0-2.683H730.5a1.341,1.341,0,0,1,0,2.683Z" transform="translate(-575.499 -500.635)" fill="#e6e7e8"/><path d="M723.618,657.407H705.792a1.341,1.341,0,0,1,0-2.682h17.826a1.341,1.341,0,1,1,0,2.682Z" transform="translate(-575.499 -514.71)" fill="#e6e7e8"/><path d="M244.964,673.129c-7.034-3.333-12.273-10.039-11.456-17.409a37.609,37.609,0,0,0,23.771,7.895c3.454-.027,7.323-.378,9.833,1.56a6.607,6.607,0,0,1,2.356,5.03,20.777,20.777,0,0,1-.834,5.747l.14.452C260.515,676.93,252,676.462,244.964,673.129Z" transform="translate(-233.317 -515.433)" fill="#f2f2f2"/><path d="M233.4,655.412a27.3,27.3,0,0,0,13.3,12.322,14.074,14.074,0,0,0,4.056,1.192,9.171,9.171,0,0,0,4.219-.552,19.345,19.345,0,0,1,3.881-1.234,4.967,4.967,0,0,1,3.753,1.012,10.147,10.147,0,0,1,2.668,3.655,9.973,9.973,0,0,0,2.967,4.06c.178.123-.07.378-.247.256-2.553-1.764-2.921-4.955-4.949-7.092a4.773,4.773,0,0,0-3.837-1.6,15,15,0,0,0-3.961,1.187,9.84,9.84,0,0,1-4.116.675,13.205,13.205,0,0,1-4.106-1.044,28.333,28.333,0,0,1-7.768-4.834,26.488,26.488,0,0,1-6.208-7.881C232.955,655.348,233.3,655.23,233.4,655.412Z" transform="translate(-233.033 -515.143)" fill="#fff"/><path d="M259.11,697.255a5.508,5.508,0,0,1-6.192,1.574c-.2-.086-.038-.386.167-.3a5.1,5.1,0,0,0,5.758-1.474C258.987,696.88,259.253,697.081,259.11,697.255Z" transform="translate(-247.411 -545.412)" fill="#fff"/><path d="M302.351,689.677a7.406,7.406,0,0,0-3.185-5.164c-.177-.123.07-.379.247-.256a7.7,7.7,0,0,1,3.3,5.381c.025.206-.339.244-.364.039Z" transform="translate(-281.032 -536.14)" fill="#fff"/><path d="M247.854,669.6a2.5,2.5,0,0,0,.965-2.238c-.028-.205.336-.243.364-.039a2.8,2.8,0,0,1-1.062,2.478.208.208,0,0,1-.257.028.149.149,0,0,1-.01-.228Z" transform="translate(-243.765 -523.764)" fill="#fff"/><path d="M305.311,598.756c.022.127.043.255.068.383a27.822,27.822,0,0,0,1.374,5c.045.126.093.253.142.378a30.153,30.153,0,0,0,6.916,10.439,31.693,31.693,0,0,0,3.955,3.308c1.96,1.387,4.222,2.742,5.463,4.611a4.964,4.964,0,0,1,.352.6l-5.588,11.307c-.027.021-.051.043-.077.064l-.2.459-.235-.144c-.045-.027-.089-.057-.134-.084-.03-.019-.059-.038-.088-.053l-.027-.018c-.028-.015-.052-.032-.078-.047q-.666-.419-1.328-.849s0,0,0,0a46.7,46.7,0,0,1-9.095-7.526c-.078-.086-.159-.173-.234-.264a28.207,28.207,0,0,1-3.08-4.144,24.274,24.274,0,0,1-1.309-2.48,20.025,20.025,0,0,1-1.742-6.97,18.253,18.253,0,0,1,4.675-13.68C305.127,598.951,305.217,598.854,305.311,598.756Z" transform="translate(-281.913 -474.051)" fill="#f2f2f2"/><path d="M315.84,598.5a25.463,25.463,0,0,0,1.615,17.621,11.058,11.058,0,0,0,2.23,3.2,7.464,7.464,0,0,0,3.532,1.807,16.8,16.8,0,0,1,3.741,1.046,3.943,3.943,0,0,1,2.125,2.882,10.4,10.4,0,0,1-.476,4.538,10.218,10.218,0,0,0-.527,5.044c.05.2-.308.283-.358.084-.717-2.873,1.167-5.778,1.1-8.684a3.9,3.9,0,0,0-1.787-3.429,12.932,12.932,0,0,0-3.769-1.128,8.089,8.089,0,0,1-3.538-1.646,10.325,10.325,0,0,1-2.367-3.1,24.147,24.147,0,0,1-2.544-8.288,26.665,26.665,0,0,1,.687-10.032C315.552,598.2,315.894,598.292,315.84,598.5Z" transform="translate(-292.299 -473.714)" fill="#fff"/><path d="M306.287,651.3a4.761,4.761,0,0,1-5.7-2c-.095-.183.233-.348.328-.164a4.411,4.411,0,0,0,5.309,1.854C306.449,650.914,306.512,651.228,306.287,651.3Z" transform="translate(-282.095 -510.588)" fill="#fff"/><path d="M343.541,664.762a7.864,7.864,0,0,0,1.111-6.1c-.049-.2.309-.284.358-.084a8.185,8.185,0,0,1-1.17,6.344C343.719,665.113,343.421,664.949,343.541,664.762Z" transform="translate(-313.292 -517.428)" fill="#fff"/><path d="M315.116,619.762a3.089,3.089,0,0,0,2.238-1.378c.118-.189.416-.025.3.163a3.462,3.462,0,0,1-2.472,1.529c-.1.012-.191-.023-.211-.115A.18.18,0,0,1,315.116,619.762Z" transform="translate(-292.555 -488.249)" fill="#fff"/><path d="M379.842,307.551l9.511,10.1,22.138,8.115,2.66-4.942-17.036-9.059s-7.681-8.025-12.237-9.678Z" transform="translate(-339.684 -258.533)" fill="#a0616a"/><circle cx="3.282" cy="3.282" r="3.282" transform="translate(70.823 61.932)" fill="#a0616a"/><path d="M354.8,276.446l-6.8,6-.032.008c-3.161.807-7.726-2.921-11-6.191a6.019,6.019,0,0,1-.277-8.213h0a6.032,6.032,0,0,1,6.1-1.823l5.526,1.524Z" transform="translate(-307.257 -232.33)" fill="#3f3d56"/><path d="M201.584,549.146h4.685l2.229-18.071h-6.915Z" transform="translate(-146.442 -385.804)" fill="#a0616a"/><path d="M430.249,728.85h1.319l5.149-2.094,2.759,2.094h0a5.88,5.88,0,0,1,5.88,5.88v.191H430.249Z" transform="translate(-376.302 -567.038)" fill="#2f2e41"/><path d="M125.584,549.146h4.685l2.229-18.071h-6.915Z" transform="translate(-91.231 -385.804)" fill="#a0616a"/><path d="M354.249,728.85h1.319l5.149-2.094,2.759,2.094h0a5.88,5.88,0,0,1,5.88,5.88v.191H354.249Z" transform="translate(-321.092 -567.038)" fill="#2f2e41"/><path d="M332.214,450.352a49.734,49.734,0,0,0,.821,12.856c1.368,6.291,1.368,24.01,1.368,24.01l3.009,34.527,9.027-.821,2.462-57.717,8.753,19.421-.821,2.735,1.093.684s-.82,5.334-.272,5.334a6.536,6.536,0,0,1,1.915.821l-1.094,28.175,9.3-.274,3.283-39.663-3.556-22.7-.274-4.377-1.231.051-.627-1.829-1.151-3.146Z" transform="translate(-305.006 -364.851)" fill="#2f2e41"/><path d="M317.986,293.363l-.049-.068c-2.6-3.645,1.312-12.4,1.9-13.674l-2.488-.807.56-4.762.265-2.123-1.9-1.9-.005-.047-1.094-9.574-1.591-6.359a13.961,13.961,0,0,1,3.962-13.529l3.677-3.467,4.469-6.613H332.9l2.471,4.668A10.5,10.5,0,0,1,343.5,245.83l-.56,12.242,2.192,15.242v2.758l2.467,2.742-.539,2.694,1.878.8.829,3.869c.343.453,2.608,3.473,2.608,4.3,0,.124-.092.244-.288.377-1.543,1.045-10.075,3.176-13.85,1.665-4.022-1.608-20.01.8-20.171.829Z" transform="translate(-291.25 -206.482)" fill="#3f3d56"/><path d="M341.488,755.381a.324.324,0,0,1-.324.326H264.492a.326.326,0,0,1,0-.651h76.671a.325.325,0,0,1,.326.324Z" transform="translate(-255.65 -587.596)" fill="#ccc"/><circle cx="9.545" cy="9.545" r="9.545" transform="translate(29.435 2.731)" fill="#a0616a"/><path d="M348.848,164.838a25.96,25.96,0,0,1-4.406-.422,13.166,13.166,0,0,1-5.481-4.239h0a12.753,12.753,0,0,1-1.24-3.954,11.6,11.6,0,0,1,2.267-9.157,3.666,3.666,0,0,1,1.513-1.225c.054-.019.109-.036.164-.051a4.523,4.523,0,0,0,2.285-1.334,3.738,3.738,0,0,1,.384-.375,5.572,5.572,0,0,1,2.354-1.107c1.391-.334,3.381.085,5.914,1.245a6.252,6.252,0,0,0,3.774.214.354.354,0,0,1,.331.123,2.5,2.5,0,0,0,1.682.721c.387.027.779.573,1.251,1.285.107.161.232.35.323.465l.018-.216.213.247a3.036,3.036,0,0,1-1.5,4.908,5.92,5.92,0,0,1-1.2.159c-.244.016-.5.032-.739.067a4.577,4.577,0,0,0-3.476,2.881,1.2,1.2,0,0,1-1.821.534,1.978,1.978,0,0,0-1.793-.375,1.313,1.313,0,0,0-.6.643,1.711,1.711,0,0,1-.668.74c-.994.48-1.119,2.718-.815,4.595.293,1.809.931,3.128,1.55,3.208.477.062.531.1.563.183l.029.077-.056.069A1.954,1.954,0,0,1,348.848,164.838Z" transform="translate(-308.954 -142.863)" fill="#2f2e41"/><circle cx="16.902" cy="16.902" r="16.902" transform="translate(69.815 60.535)" fill="#ff4800"/><path d="M531.6,414.457l-.11,0a2.251,2.251,0,0,1-1.668-.867l-2.664-3.425A2.255,2.255,0,0,1,527.55,407l.1-.074a2.257,2.257,0,0,1,3.163.394,1.351,1.351,0,0,0,1,.521,1.326,1.326,0,0,0,1.048-.42l5.409-5.709a2.256,2.256,0,0,1,3.185-.086l.088.083a2.256,2.256,0,0,1,.087,3.185l-8.393,8.859A2.249,2.249,0,0,1,531.6,414.457Z" transform="translate(-446.356 -330.396)" fill="#fff"/><path d="M386.912,312.713l6.63,12.186,19.347,13.478,3.83-4.1L402.547,321.18s-5.388-9.714-9.374-12.471Z" transform="translate(-344.82 -263.344)" fill="#a0616a"/><circle cx="3.282" cy="3.282" r="3.282" transform="translate(67.522 70.383)" fill="#a0616a"/><path d="M378.021,276.289l-4.169-10.007,1.508-5.53a6.033,6.033,0,0,1,4.681-4.317h0a6.019,6.019,0,0,1,6.922,4.429c1.142,4.483,2.019,10.311-.288,12.618l-.023.023Z" transform="translate(-335.332 -225.296)" fill="#3f3d56"/><path d="M723.687,241.366h-.045a.926.926,0,0,1-.686-.357l-1.1-1.409a.928.928,0,0,1,.162-1.3l.039-.031a.928.928,0,0,1,1.3.162.556.556,0,0,0,.412.214.545.545,0,0,0,.431-.173l2.225-2.349a.928.928,0,0,1,1.31-.035l.036.034a.928.928,0,0,1,.036,1.31l-3.453,3.645A.926.926,0,0,1,723.687,241.366Z" transform="translate(-588.004 -210.403)" fill="#fff"/><path d="M919.5,630.4c1.956,1.327,4.129,2.821,4.76,5.244a3.985,3.985,0,0,1-.406,3.1,9.282,9.282,0,0,1-1.979,2.127,14.55,14.55,0,0,0-2.412,2.431c-.308.43.4.84.709.414,1.246-1.742,3.317-2.728,4.414-4.6,1.3-2.21.432-4.832-1.176-6.621a18.564,18.564,0,0,0-3.5-2.807C919.48,629.4,919.069,630.108,919.5,630.4Z" transform="translate(-731.592 -496.475)" fill="#e6e7e8"/><path d="M944.5,630.4c1.956,1.327,4.129,2.821,4.76,5.244a3.985,3.985,0,0,1-.406,3.1,9.288,9.288,0,0,1-1.979,2.127,14.555,14.555,0,0,0-2.412,2.431c-.308.43.4.84.709.414,1.246-1.742,3.317-2.728,4.414-4.6,1.3-2.21.432-4.832-1.176-6.621a18.559,18.559,0,0,0-3.5-2.807C944.48,629.4,944.069,630.108,944.5,630.4Z" transform="translate(-749.753 -496.475)" fill="#e6e7e8"/><path d="M691.85,410.558c.435-.3.024-1.006-.414-.709a18.567,18.567,0,0,0-3.5,2.807c-1.607,1.789-2.473,4.411-1.176,6.621,1.1,1.869,3.168,2.856,4.414,4.6.3.426,1.016.016.709-.414a14.55,14.55,0,0,0-2.412-2.431A9.281,9.281,0,0,1,687.5,418.9a3.985,3.985,0,0,1-.406-3.1c.63-2.423,2.8-3.917,4.76-5.244Z" transform="translate(-562.194 -336.766)" fill="#e6e7e8"/><path d="M666.85,410.558c.435-.3.024-1.006-.414-.709a18.565,18.565,0,0,0-3.5,2.807c-1.607,1.789-2.473,4.411-1.176,6.621,1.1,1.869,3.168,2.856,4.414,4.6.3.426,1.016.016.709-.414a14.55,14.55,0,0,0-2.412-2.431A9.282,9.282,0,0,1,662.5,418.9a3.985,3.985,0,0,1-.406-3.1c.63-2.423,2.8-3.917,4.76-5.244Z" transform="translate(-544.032 -336.766)" fill="#e6e7e8"/></g></g></svg>