<svg width="539" height="521" viewBox="0 0 539 521" fill="none" xmlns="http://www.w3.org/2000/svg">
<g clip-path="url(#clip0_155_1225)">
<path d="M490.839 497.713C490.264 497.74 489.695 497.589 489.208 497.281C488.722 496.973 488.342 496.523 488.12 495.992C487.898 495.461 487.844 494.874 487.967 494.312C488.089 493.749 488.382 493.238 488.804 492.847L488.997 492.083C488.971 492.021 488.946 491.96 488.92 491.899C488.341 490.531 487.37 489.364 486.13 488.546C484.89 487.727 483.436 487.294 481.95 487.299C480.464 487.305 479.013 487.749 477.779 488.577C476.545 489.404 475.583 490.578 475.014 491.951C472.739 497.429 469.843 502.916 469.13 508.708C468.816 511.269 468.949 513.864 469.522 516.379C464.179 504.726 461.405 492.06 461.388 479.24C461.386 476.023 461.565 472.809 461.923 469.612C462.219 466.991 462.629 464.389 463.153 461.805C466.017 447.787 472.164 434.649 481.092 423.468C485.412 421.111 488.906 417.485 491.103 413.081C491.899 411.497 492.462 409.807 492.773 408.063C492.286 408.127 490.936 400.704 491.303 400.248C490.624 399.218 489.408 398.705 488.666 397.699C484.977 392.697 479.894 393.571 477.24 400.368C471.572 403.229 471.517 407.974 474.995 412.537C477.208 415.441 477.512 419.369 479.454 422.477C479.254 422.733 479.046 422.981 478.846 423.236C475.195 427.932 472.012 432.974 469.344 438.29C469.993 432.334 469.219 426.31 467.085 420.711C464.922 415.494 460.868 411.1 457.299 406.59C453.011 401.172 444.218 403.537 443.463 410.404C443.456 410.471 443.448 410.537 443.441 410.604C443.972 410.903 444.491 411.22 444.998 411.556C445.636 411.982 446.131 412.591 446.417 413.303C446.703 414.015 446.767 414.797 446.601 415.546C446.435 416.295 446.047 416.977 445.487 417.501C444.927 418.026 444.222 418.369 443.463 418.486L443.386 418.498C443.574 420.409 443.908 422.303 444.384 424.163C439.805 441.873 449.692 448.324 463.809 448.613C464.12 448.773 464.424 448.933 464.736 449.085C462.055 456.681 460.374 464.594 459.734 472.624C459.371 477.362 459.393 482.121 459.798 486.855L459.774 486.687C458.751 481.423 455.943 476.673 451.823 473.239C445.705 468.214 437.061 466.363 430.461 462.323C429.759 461.873 428.943 461.632 428.11 461.63C427.276 461.628 426.459 461.865 425.756 462.312C425.052 462.758 424.491 463.397 424.139 464.153C423.786 464.908 423.657 465.749 423.766 466.575C423.775 466.634 423.784 466.693 423.793 466.751C424.777 467.152 425.735 467.614 426.662 468.134C427.192 468.433 427.711 468.75 428.219 469.086C428.857 469.512 429.351 470.121 429.637 470.833C429.923 471.545 429.987 472.327 429.821 473.076C429.655 473.825 429.267 474.507 428.707 475.031C428.147 475.556 427.442 475.899 426.684 476.016L426.606 476.028C426.55 476.036 426.502 476.044 426.446 476.052C428.127 480.066 430.487 483.761 433.422 486.975C436.285 502.435 448.584 503.902 461.739 499.4H461.747C463.191 505.672 465.282 511.777 467.988 517.617H490.28C490.36 517.37 490.432 517.114 490.504 516.866C488.441 516.996 486.369 516.873 484.336 516.499C485.99 514.469 487.644 512.424 489.298 510.394C489.335 510.356 489.369 510.316 489.402 510.274C490.241 509.236 491.087 508.205 491.926 507.166L491.927 507.165C491.972 503.981 491.605 500.804 490.839 497.713Z" fill="#F2F2F2"/>
<path d="M453.693 299.478C459.602 278.026 470.623 259.756 488.417 245.7C489.121 244.612 490.227 243.848 491.494 243.575C492.761 243.303 494.084 243.544 495.173 244.245L535.788 270.469C536.875 271.173 537.639 272.28 537.912 273.546C538.185 274.813 537.944 276.136 537.242 277.225L502.519 331.004C501.815 332.091 500.708 332.855 499.442 333.128C498.175 333.401 496.852 333.16 495.763 332.458L455.148 306.235C454.06 305.531 453.296 304.424 453.024 303.157C452.751 301.891 452.992 300.568 453.693 299.478Z" fill="#F2F2F2"/>
<path d="M467.296 285.246C468.818 273.912 478.195 262.325 489.619 250.673C490.279 249.654 491.315 248.939 492.501 248.683C493.688 248.428 494.927 248.653 495.947 249.31L530.852 271.848C531.87 272.507 532.586 273.543 532.841 274.73C533.097 275.916 532.871 277.155 532.214 278.175L501.315 326.031C500.656 327.049 499.619 327.765 498.433 328.02C497.247 328.276 496.008 328.05 494.987 327.393L473.365 313.432C468.827 310.495 465.64 305.878 464.502 300.594C463.365 295.31 464.369 289.791 467.296 285.246Z" fill="white"/>
<path d="M470.412 331.461C465.258 309.815 466.117 288.495 474.942 267.607C475.036 266.315 475.638 265.112 476.616 264.263C477.595 263.414 478.871 262.988 480.163 263.078L528.387 266.5C529.679 266.593 530.882 267.195 531.731 268.174C532.58 269.153 533.006 270.428 532.916 271.721L528.385 335.574C528.292 336.867 527.69 338.069 526.711 338.918C525.732 339.767 524.457 340.193 523.164 340.103L474.94 336.681C473.648 336.588 472.445 335.986 471.596 335.008C470.747 334.029 470.321 332.753 470.412 331.461Z" fill="#F2F2F2"/>
<path d="M475.478 312.437C471.354 301.77 473.991 287.1 478.391 271.386C478.478 270.175 479.042 269.049 479.959 268.254C480.875 267.459 482.07 267.06 483.28 267.144L524.724 270.085C525.935 270.172 527.061 270.736 527.856 271.653C528.651 272.569 529.05 273.764 528.966 274.974L524.934 331.796C524.847 333.006 524.283 334.132 523.366 334.927C522.45 335.722 521.255 336.121 520.045 336.037L494.371 334.215C488.98 333.827 483.963 331.315 480.421 327.233C476.879 323.15 475.102 317.829 475.478 312.437Z" fill="white"/>
<path d="M474.568 197.834L453.909 121.367C453.024 118.13 450.902 115.371 448 113.684C445.099 111.998 441.651 111.52 438.4 112.354C436.718 112.785 435.142 113.554 433.768 114.615C432.393 115.675 431.249 117.004 430.404 118.521C429.56 120.038 429.034 121.711 428.857 123.438C428.681 125.165 428.858 126.91 429.378 128.566L453.273 207.339L465.775 255.816C463.954 257.206 462.605 259.123 461.912 261.307C461.219 263.49 461.214 265.834 461.9 268.02C462.585 270.206 463.926 272.129 465.742 273.526C467.558 274.923 469.76 275.727 472.048 275.829C474.337 275.931 476.601 275.326 478.534 274.096C480.467 272.867 481.975 271.072 482.852 268.955C483.729 266.839 483.934 264.504 483.438 262.267C482.941 260.031 481.769 258.001 480.079 256.454L474.568 197.834Z" fill="#FFA877"/>
<path d="M325.575 211.063L346.761 134.74C347.649 131.504 347.229 128.048 345.592 125.119C343.955 122.19 341.231 120.022 338.01 119.083C336.343 118.597 334.595 118.455 332.872 118.667C331.149 118.879 329.487 119.44 327.987 120.315C326.488 121.19 325.183 122.361 324.151 123.757C323.119 125.153 322.382 126.745 321.985 128.435L302.408 208.39L288.464 256.472C286.189 256.741 284.052 257.703 282.343 259.229C280.634 260.754 279.436 262.769 278.911 264.999C278.387 267.229 278.562 269.567 279.413 271.694C280.263 273.821 281.748 275.635 283.665 276.889C285.582 278.143 287.839 278.777 290.129 278.703C292.418 278.63 294.63 277.854 296.463 276.48C298.296 275.106 299.662 273.201 300.375 271.024C301.088 268.846 301.113 266.502 300.447 264.31L325.575 211.063Z" fill="#FFA877"/>
<path d="M446.816 504.239L433.315 504.238L426.893 452.165L446.818 452.166L446.816 504.239Z" fill="#FFA877"/>
<path d="M447.291 518.323L405.775 518.321V517.796C405.776 513.511 407.478 509.401 410.509 506.37C413.539 503.34 417.649 501.638 421.934 501.637L429.519 495.884L443.667 501.638L447.292 501.638L447.291 518.323Z" fill="#212529"/>
<path d="M351.811 504.375L338.52 502.004L341.338 449.611L360.954 453.11L351.811 504.375Z" fill="#FFA877"/>
<path d="M349.806 518.323L308.936 511.034L309.028 510.517C309.78 506.298 312.178 502.551 315.693 500.1C319.208 497.648 323.553 496.694 327.772 497.446L336.249 493.113L349.168 501.261L352.735 501.898L349.806 518.323Z" fill="#212529"/>
<path d="M353.125 264.814C353.125 264.814 340.543 282.635 341.056 288.616C341.569 294.596 346.013 289.825 341.569 294.596C337.126 299.367 334.537 296.166 336.72 302.06C338.903 307.955 339.792 304.138 338.903 307.955C338.014 311.771 339.792 457.76 339.792 457.76H362.929C362.929 457.76 375.977 373.109 374.325 369.157C372.673 365.205 372.711 366.925 374.469 362.726C376.228 358.526 377.883 353.529 377.883 353.529L396.171 302.061L410.278 374.528L426.883 460.64H449.055C449.055 460.64 452.852 334.01 454.531 332.433C456.209 330.855 454.201 327.309 452.095 325.265C449.988 323.221 450.408 321.146 451.087 316.936C451.766 312.725 454.629 310.377 454.531 307.735C454.432 305.092 460.653 263.109 450.877 256.429C441.102 249.75 353.125 264.814 353.125 264.814Z" fill="#212529"/>
<path d="M430.487 87.2994L404.607 80.593L392.526 63.9307L363.835 67.4577L357.728 90.1852L337.303 102.041C373.917 102.26 354.199 208.335 359.581 215.178C363.96 220.748 337.722 233.997 345.945 242.449C354.169 250.901 351.128 247.519 349.22 256.721C347.312 265.922 333.402 275.66 349.22 275.564C365.038 275.467 460.485 274.103 457.758 263.195C455.031 252.287 455.074 255.057 450.962 248.218C446.85 241.379 444.082 245.2 445.466 235.108C446.85 225.016 442.356 217.21 445.486 212.744C450.292 205.89 445.449 156.407 440.918 157.728L430.487 87.2994Z" fill="#00A2E2"/>
<path d="M423.098 87.6532C423.098 87.6532 442.029 79.6105 448.847 94.6093C451.024 99.3999 452.858 111.433 454.625 108.764C456.391 106.096 454.687 111.946 455.78 111.953C456.756 111.959 458.257 110.381 457.123 115.82C456.767 117.604 456.87 119.449 457.42 121.183C457.971 122.917 458.951 124.484 460.27 125.736L427.367 145.443L423.098 87.6532Z" fill="#00A2E2"/>
<path d="M351.968 101.288C351.968 101.288 333.037 93.2457 326.219 108.245C324.302 112.463 324.779 121.836 321.045 120.784C317.311 119.731 319.962 123.696 319.469 125.073C318.92 126.609 321.317 130.953 317.951 129.433C314.584 127.912 314.796 139.372 314.796 139.372L347.699 159.078L351.968 101.288Z" fill="#00A2E2"/>
<path d="M360.945 78.8252L355.491 88.3699C355.491 88.3699 340.492 96.5511 340.492 97.9146C340.492 99.2782 343.219 110.412 340.492 119.162C337.765 127.912 345.698 144.368 347.31 157.91C354.128 215.178 333.854 235.987 329.584 272.447L372.852 285.084C372.852 285.084 380.035 189.271 380.035 167.455C380.035 145.638 360.945 78.8252 360.945 78.8252Z" fill="#212529"/>
<path d="M400.486 74.7349L411.633 81.0747C411.633 81.0747 426.219 84.2908 426.394 85.6431C426.568 86.9955 426.62 101.369 430.442 109.699C434.264 118.029 433.211 122.458 443.506 147.084C448.765 159.667 460.841 260.334 460.841 260.334L419.541 278.395C419.541 278.395 400.179 184.285 397.392 162.647C394.605 141.009 400.486 74.7349 400.486 74.7349Z" fill="#212529"/>
<path d="M372.616 61.7344C388.187 61.7344 400.81 49.1116 400.81 33.5406C400.81 17.9695 388.187 5.34668 372.616 5.34668C357.045 5.34668 344.422 17.9695 344.422 33.5406C344.422 49.1116 357.045 61.7344 372.616 61.7344Z" fill="#FFA877"/>
<path d="M391.171 55.4462C384.507 50.2369 393.617 27.3205 382.611 32.2119C382.611 32.2119 369.16 23.6519 366.457 29.277C363.328 35.7904 352.199 32.8356 345.363 30.5366C345.9 29.2877 346.282 27.9776 346.5 26.6357C345.238 27.6299 343.901 28.5253 342.502 29.3138C341.563 28.8121 340.732 28.1306 340.056 27.3082C339.389 26.5445 338.972 25.5951 338.86 24.5873C338.749 23.5796 338.948 22.5619 339.432 21.6709C340.569 19.9222 342.917 19.3841 344.299 17.8311C344.459 17.6127 344.563 17.3588 344.603 17.0913C344.643 16.8237 344.617 16.5504 344.529 16.2949C344.364 15.67 344.339 15.0166 344.456 14.381C344.573 13.7454 344.828 13.1435 345.204 12.6179C345.58 12.0924 346.067 11.6562 346.631 11.3406C347.195 11.0249 347.821 10.8374 348.466 10.7916C348.725 10.7995 348.982 10.7434 349.215 10.6284C350.375 9.91839 351.446 9.07274 352.407 8.10933C350.805 8.1827 352.764 -1.62317 368.646 0.234105C372.645 0.0873746 374.733 4.49747 378.671 5.19451C388.215 -0.259622 396.735 7.60799 400.881 15.1285C405.026 22.6492 409.514 46.8862 391.171 55.4462Z" fill="#212529"/>
<path d="M270.87 15H18.14C13.3319 15.004 8.72177 16.9151 5.32101 20.314C1.92026 23.7129 0.00665358 28.3219 0 33.13V260.86C0.00625236 265.669 1.91942 270.279 5.31998 273.68C8.72053 277.081 13.3309 278.994 18.14 279H270.87C275.678 278.993 280.287 277.08 283.686 273.679C287.085 270.278 288.996 265.668 289 260.86V33.13C288.996 28.323 287.084 23.7141 283.685 20.315C280.286 16.9159 275.677 15.0044 270.87 15Z" fill="white"/>
<path d="M155.395 67.2676H128.395C127.068 67.2676 125.797 66.7408 124.859 65.8031C123.921 64.8654 123.395 63.5937 123.395 62.2676C123.395 60.9415 123.921 59.6697 124.859 58.732C125.797 57.7944 127.068 57.2676 128.395 57.2676H155.395C156.721 57.2676 157.992 57.7944 158.93 58.732C159.868 59.6697 160.395 60.9415 160.395 62.2676C160.395 63.5937 159.868 64.8654 158.93 65.8031C157.992 66.7408 156.721 67.2676 155.395 67.2676Z" fill="#00A2E2"/>
<path d="M513.395 297H486.395C485.068 297 483.797 296.473 482.859 295.536C481.921 294.598 481.395 293.326 481.395 292C481.395 290.674 481.921 289.402 482.859 288.464C483.797 287.527 485.068 287 486.395 287H513.395C514.721 287 515.992 287.527 516.93 288.464C517.868 289.402 518.395 290.674 518.395 292C518.395 293.326 517.868 294.598 516.93 295.536C515.992 296.473 514.721 297 513.395 297Z" fill="#00A2E2"/>
<path d="M225.395 172H58.3945C57.0684 172 55.7967 171.473 54.859 170.536C53.9213 169.598 53.3945 168.326 53.3945 167C53.3945 165.674 53.9213 164.402 54.859 163.464C55.7967 162.527 57.0684 162 58.3945 162H225.395C226.721 162 227.992 162.527 228.93 163.464C229.868 164.402 230.395 165.674 230.395 167C230.395 168.326 229.868 169.598 228.93 170.536C227.992 171.473 226.721 172 225.395 172Z" fill="#E6E6E6"/>
<path d="M225.395 205H58.3945C57.0684 205 55.7967 204.473 54.859 203.536C53.9213 202.598 53.3945 201.326 53.3945 200C53.3945 198.674 53.9213 197.402 54.859 196.464C55.7967 195.527 57.0684 195 58.3945 195H225.395C226.721 195 227.992 195.527 228.93 196.464C229.868 197.402 230.395 198.674 230.395 200C230.395 201.326 229.868 202.598 228.93 203.536C227.992 204.473 226.721 205 225.395 205Z" fill="#E6E6E6"/>
<path d="M225.395 238H58.3945C57.0684 238 55.7967 237.473 54.859 236.536C53.9213 235.598 53.3945 234.326 53.3945 233C53.3945 231.674 53.9213 230.402 54.859 229.464C55.7967 228.527 57.0684 228 58.3945 228H225.395C226.721 228 227.992 228.527 228.93 229.464C229.868 230.402 230.395 231.674 230.395 233C230.395 234.326 229.868 235.598 228.93 236.536C227.992 237.473 226.721 238 225.395 238Z" fill="#E6E6E6"/>
<path d="M191.261 82.27H92.5306C87.7225 82.274 83.1124 84.1851 79.7117 87.584C76.3109 90.9829 74.3973 95.592 74.3906 100.4V130.13C74.3969 134.939 76.31 139.549 79.7106 142.95C83.1112 146.351 87.7215 148.264 92.5306 148.27H191.261C196.069 148.263 200.678 146.35 204.077 142.949C207.476 139.548 209.387 134.938 209.391 130.13V100.4C209.386 95.593 207.475 90.9841 204.076 87.585C200.677 84.1859 196.068 82.2744 191.261 82.27ZM207.391 130.13C207.391 134.411 205.69 138.516 202.663 141.543C199.637 144.57 195.531 146.27 191.251 146.27H120.378C108.712 146.27 97.5234 141.636 89.2742 133.386C81.025 125.137 76.3906 113.949 76.3906 102.283V100.4C76.3974 96.1224 78.1004 92.0222 81.126 88.9984C84.1517 85.9746 88.253 84.2742 92.5306 84.27H191.261C195.537 84.2746 199.637 85.9754 202.661 88.9994C205.685 92.0234 207.386 96.1235 207.391 100.4V130.13Z" fill="#E6E6E6"/>
<path d="M143 126C152.389 126 160 118.389 160 109C160 99.6112 152.389 92 143 92C133.611 92 126 99.6112 126 109C126 118.389 133.611 126 143 126Z" fill="#E6E6E6"/>
<path d="M182.11 148.27L106 148L130 142L132.99 132.13L156 132L162.89 141.76L180.29 146.27L181.87 146.68L182.11 148.27Z" fill="#E6E6E6"/>
<path d="M133.338 119.854C136.986 117.003 132 104.459 138.024 107.136C138.024 107.136 145.387 102.451 146.866 105.53C148.579 109.095 154.671 107.478 158.413 106.219C158.119 105.536 157.91 104.819 157.79 104.084C158.481 104.628 159.213 105.118 159.979 105.55C160.493 105.275 160.948 104.902 161.318 104.452C161.683 104.034 161.911 103.515 161.972 102.963C162.033 102.411 161.924 101.854 161.659 101.366C161.037 100.409 159.752 100.115 158.995 99.2647C158.908 99.1451 158.851 99.0062 158.829 98.8597C158.807 98.7133 158.821 98.5637 158.87 98.4238C158.96 98.0818 158.973 97.7241 158.909 97.3762C158.845 97.0283 158.706 96.6988 158.5 96.4111C158.294 96.1235 158.027 95.8847 157.719 95.7119C157.41 95.5391 157.067 95.4365 156.714 95.4114C156.572 95.4157 156.432 95.3851 156.304 95.3221C155.669 94.9335 155.083 94.4706 154.557 93.9432C155.434 93.9834 154.362 88.6159 145.668 89.6325C143.479 89.5522 142.336 91.9662 140.181 92.3477C134.956 89.3623 130.293 93.6688 128.024 97.7854C125.755 101.902 123.298 115.169 133.338 119.854Z" fill="#E6E6E6"/>
<path d="M270.87 15H18.14C13.3319 15.004 8.72177 16.9151 5.32101 20.314C1.92026 23.7129 0.00665358 28.3219 0 33.13V260.86C0.00625236 265.669 1.91942 270.279 5.31998 273.68C8.72053 277.081 13.3309 278.994 18.14 279H270.87C275.678 278.993 280.287 277.08 283.686 273.679C287.085 270.278 288.996 265.668 289 260.86V33.13C288.996 28.323 287.084 23.7141 283.685 20.315C280.286 16.9159 275.677 15.0044 270.87 15ZM287 260.86C287 265.141 285.3 269.246 282.273 272.273C279.246 275.3 275.141 277 270.86 277H132.201C115.103 277 98.1718 273.632 82.3751 267.089C66.5784 260.546 52.2252 250.955 40.1349 238.865C28.0447 226.775 18.4541 212.422 11.9109 196.625C5.36772 180.828 1.99999 163.897 2 146.799V33.13C2.00681 28.8524 3.70976 24.7521 6.73541 21.7283C9.76106 18.7046 13.8624 17.0042 18.14 17H270.87C275.147 17.0046 279.247 18.7054 282.271 21.7294C285.295 24.7534 286.995 28.8535 287 33.13V260.86Z" fill="#E6E6E6"/>
<path d="M534.907 519.942L219.55 520.25C219.235 520.248 218.934 520.122 218.712 519.899C218.49 519.676 218.365 519.374 218.365 519.059C218.365 518.744 218.49 518.442 218.712 518.219C218.934 517.996 219.235 517.87 219.55 517.868L534.907 517.561C535.222 517.563 535.524 517.689 535.746 517.912C535.968 518.135 536.092 518.437 536.092 518.752C536.092 519.066 535.968 519.368 535.746 519.591C535.524 519.815 535.222 519.941 534.907 519.942Z" fill="#CACACA"/>
</g>
<defs>
<clipPath id="clip0_155_1225">
<rect width="538.022" height="520.25" fill="white"/>
</clipPath>
</defs>
</svg>
