<svg width="886" height="709" viewBox="0 0 886 709" fill="none" xmlns="http://www.w3.org/2000/svg">
<g clip-path="url(#clip0_155_1110)">
<path d="M148.558 708.135C148.558 708.135 135.805 676.744 174.063 653.201L148.558 708.135Z" fill="#F0F0F0"/>
<path d="M132.873 707.564C132.873 707.564 128.983 685.19 98.873 685.382L132.873 707.564Z" fill="#F0F0F0"/>
<path d="M575.558 708.135C575.558 708.135 562.805 676.744 601.063 653.201L575.558 708.135Z" fill="#F0F0F0"/>
<path d="M559.874 707.564C559.874 707.564 555.984 685.19 525.874 685.382L559.874 707.564Z" fill="#F0F0F0"/>
<path d="M565.054 504.884C626.276 504.884 675.907 455.253 675.907 394.031C675.907 332.808 626.276 283.178 565.054 283.178C503.832 283.178 454.201 332.808 454.201 394.031C454.201 455.253 503.832 504.884 565.054 504.884Z" fill="#F0F0F0"/>
<path d="M565.358 394.03H565.663L571.145 708.317H559.572L565.358 394.03Z" fill="#F0F0F0"/>
<path d="M803.054 559.938C847.708 559.938 883.907 523.739 883.907 479.085C883.907 434.432 847.708 398.232 803.054 398.232C758.4 398.232 722.201 434.432 722.201 479.085C722.201 523.739 758.4 559.938 803.054 559.938Z" fill="#F0F0F0"/>
<path d="M803.276 479.085H803.498L807.496 708.317H799.055L803.276 479.085Z" fill="#F0F0F0"/>
<path d="M355.328 479.907C356.877 479.729 358.367 479.214 359.696 478.397C361.024 477.581 362.157 476.483 363.015 475.182C363.873 473.88 364.435 472.406 364.662 470.864C364.888 469.321 364.774 467.748 364.327 466.255L395.062 444.087L376.653 437.095L350.289 459.218C347.83 460.135 345.792 461.923 344.563 464.242C343.334 466.561 342.998 469.25 343.619 471.8C344.24 474.35 345.775 476.584 347.933 478.078C350.091 479.572 352.722 480.223 355.328 479.907Z" fill="#FFA877"/>
<path d="M332.796 697.353L323.037 697.352L318.394 659.71H332.798L332.796 697.353Z" fill="#FFA877"/>
<path d="M335.285 706.813L303.817 706.812V706.414C303.818 703.166 305.108 700.05 307.405 697.753C309.702 695.457 312.817 694.166 316.065 694.166L335.286 694.167L335.285 706.813Z" fill="#212529"/>
<path d="M258.253 697.353L248.494 697.352L243.852 659.71H258.255L258.253 697.353Z" fill="#FFA877"/>
<path d="M260.742 706.813L229.274 706.812V706.414C229.275 703.166 230.565 700.05 232.862 697.753C235.159 695.457 238.274 694.166 241.523 694.166L260.743 694.167L260.742 706.813Z" fill="#212529"/>
<path d="M265.791 488.031L245.109 601.135L237.875 690.973L261.361 689.818L274.73 602.578L307.96 526.618L317.85 689.608L339.47 689.678L351.103 483.507L265.791 488.031Z" fill="#212529"/>
<path d="M353.75 358.573L324.761 347.039L291.505 350.844L263.312 366.429C263.312 366.429 271.936 474.587 259.436 499.957C259.436 499.957 269.452 513.83 310.262 510.444C310.262 510.444 350.015 505.419 351.001 492.384C351.986 479.348 352.194 455.647 352.194 455.647L365.993 408.096L353.75 358.573Z" fill="#00A2E2"/>
<path d="M274.645 368.511L263.313 366.429C263.313 366.429 251.255 371.716 251.379 387.47C251.503 403.224 230.078 456.04 255.711 458.255C281.344 460.469 274.645 420.801 274.645 420.801V368.511Z" fill="#00A2E2"/>
<path d="M344.557 365.284L353.751 358.573C353.751 358.573 367.789 361.744 372.981 373.045C372.981 373.045 430.547 414.795 414.713 430.628C398.879 446.462 366.603 465.95 366.603 465.95L354.652 452.419L384.301 425.559L359.978 403.401L344.557 365.284Z" fill="#00A2E2"/>
<path d="M329.856 317.051C329.852 323.361 327.342 329.41 322.879 333.87C318.417 338.33 312.366 340.835 306.056 340.835C299.747 340.835 293.696 338.33 289.233 333.87C284.77 329.41 282.261 323.361 282.257 317.051V316.138C282.501 309.913 285.176 304.032 289.707 299.757C294.239 295.483 300.266 293.155 306.495 293.275C312.723 293.394 318.657 295.951 323.021 300.397C327.385 304.842 329.833 310.822 329.837 317.051H329.856Z" fill="#FFA877"/>
<path d="M309.674 313.215C311.196 312.965 312.846 312.728 314.211 313.428C317.176 314.944 316.494 319.244 318.114 322.082C318.754 323.208 319.789 324.128 320.215 325.346C320.642 326.564 320.38 328.086 321.05 329.262C322.018 330.961 324.643 331.211 326.366 330.2C327.996 329.07 329.177 327.404 329.703 325.492C330.276 323.872 330.757 322.082 332.139 321.022C332.642 320.736 333.093 320.367 333.473 319.932C333.759 319.355 333.869 318.707 333.79 318.068C333.79 313.952 333.15 310.761 334.082 306.772C335.574 300.341 336.938 297.162 332.212 292.393C329.793 289.982 326.68 288.389 323.309 287.838C320.264 287.339 315.782 291.59 312.7 291.492C304.863 291.182 298.249 283.922 290.777 286.267C287.509 287.293 284.677 289.378 282.726 292.192C279.072 297.576 279.401 299.659 279.93 306.084C279.923 306.571 280.065 307.05 280.338 307.454C280.613 307.783 281.057 307.959 281.325 308.294C281.613 308.737 281.722 309.272 281.63 309.792C281.548 310.839 281.304 311.866 280.905 312.837C280.804 313 280.742 313.183 280.723 313.373C280.704 313.563 280.729 313.755 280.795 313.934C280.945 314.137 281.16 314.283 281.404 314.348C284.449 315.444 287.738 313.331 290.996 313.385C294.254 313.44 297.348 315.62 300.709 315.145C303.675 314.689 306.684 313.708 309.674 313.215Z" fill="#212529"/>
<path d="M309.516 445.525C309.314 445.603 309.102 445.657 308.887 445.687L282.46 449.376C281.821 449.467 281.169 449.339 280.613 449.011C280.056 448.683 279.628 448.175 279.399 447.572L256.651 388.381C256.504 387.997 256.441 387.587 256.467 387.177C256.492 386.767 256.606 386.368 256.8 386.006C256.994 385.644 257.264 385.329 257.591 385.08C257.918 384.832 258.294 384.658 258.695 384.568L283.547 379.022C283.739 378.979 283.925 378.911 284.099 378.82L308.271 366.183C308.458 366.085 308.655 366.008 308.859 365.954L335.46 358.862C336.141 358.679 336.866 358.755 337.495 359.076C338.123 359.396 338.61 359.938 338.862 360.597L358.697 412.208C358.871 412.658 358.928 413.144 358.862 413.622C358.797 414.1 358.61 414.553 358.321 414.939L351.462 424.15C351.139 424.584 350.7 424.917 350.195 425.11L335.204 430.872C335.097 430.913 334.993 430.962 334.893 431.02L309.913 445.336C309.786 445.409 309.653 445.472 309.516 445.525Z" fill="white"/>
<path d="M321.811 366.753L318.433 367.654L309.481 370.041L309.465 370.045L297.21 376.453L292.661 378.832L292.659 378.833L285.828 382.404L285.641 382.446L278.545 384.029L275.115 384.795L261.127 387.917L283.087 445.058L297.501 443.046L301.036 442.552L308.569 441.499L308.656 441.488L332.863 427.614L347.592 421.954L354.316 412.924L335.201 363.184L321.811 366.753Z" fill="#E4E4E4"/>
<path d="M338.35 371.378L265.526 399.365L266.773 402.61L339.597 374.624L338.35 371.378Z" fill="white"/>
<path d="M342.507 382.195L269.684 410.182L270.931 413.427L343.754 385.44L342.507 382.195Z" fill="white"/>
<path d="M350.904 404.045L278.081 432.032L279.328 435.277L352.151 407.291L350.904 404.045Z" fill="white"/>
<path d="M321.811 366.753L343.613 423.483L340.368 424.73L318.433 367.654L321.811 366.753Z" fill="white"/>
<path d="M297.21 376.453L292.733 388.91L291.181 393.23L287.56 403.312L286.784 405.467L286.007 407.633L284.985 410.476L277.646 430.901L275.738 425.936L281.722 409.28L283.076 405.509L283.274 404.959L284.875 400.5L286.895 394.878L288.448 390.556L292.659 378.833L292.661 378.832L297.21 376.453Z" fill="white"/>
<path d="M278.545 384.028L301.035 442.552L297.501 443.046L275.115 384.795L278.545 384.028Z" fill="white"/>
<path d="M273.731 440.068C279.448 440.068 284.084 435.433 284.084 429.715C284.084 423.997 279.448 419.362 273.731 419.362C268.013 419.362 263.378 423.997 263.378 429.715C263.378 435.433 268.013 440.068 273.731 440.068Z" fill="#FFA877"/>
<path d="M701.225 367.951C802.832 367.951 885.2 285.583 885.2 183.976C885.2 82.3687 802.832 0 701.225 0C599.618 0 517.249 82.3687 517.249 183.976C517.249 285.583 599.618 367.951 701.225 367.951Z" fill="#E4E4E4"/>
<path opacity="0.1" d="M837.067 61.0945C854.228 101.237 856.555 146.173 843.635 187.874C830.714 229.574 803.386 265.322 766.535 288.728C729.683 312.135 685.71 321.675 642.472 315.645C599.234 309.614 559.549 288.406 530.509 255.809C540.992 280.334 556.682 302.287 576.491 320.146C596.301 338.006 619.757 351.345 645.233 359.24C670.71 367.134 697.598 369.395 724.035 365.867C750.473 362.338 775.827 353.104 798.341 338.803C820.855 324.503 839.991 305.479 854.423 283.049C868.855 260.62 878.237 235.32 881.921 208.904C885.605 182.488 883.501 155.587 875.756 130.064C868.011 104.542 854.81 81.0084 837.067 61.0945Z" fill="#212529"/>
<path d="M700.72 183.975H700.214L691.116 705.577H710.323L700.72 183.975Z" fill="#E4E4E4"/>
<path d="M835 707.802H1C0.734784 707.802 0.480429 707.696 0.292892 707.509C0.105356 707.321 0 707.067 0 706.802C0 706.536 0.105356 706.282 0.292892 706.094C0.480429 705.907 0.734784 705.802 1 705.802H835C835.265 705.802 835.52 705.907 835.707 706.094C835.895 706.282 836 706.536 836 706.802C836 707.067 835.895 707.321 835.707 707.509C835.52 707.696 835.265 707.802 835 707.802Z" fill="#CACACA"/>
</g>
<defs>
<clipPath id="clip0_155_1110">
<rect width="885.201" height="708.317" fill="white"/>
</clipPath>
</defs>
</svg>
