<svg width="1144" height="637" viewBox="0 0 1144 637" fill="none" xmlns="http://www.w3.org/2000/svg">
<g clip-path="url(#clip0_20_331)">
<mask id="mask0_20_331" style="mask-type:luminance" maskUnits="userSpaceOnUse" x="0" y="0" width="1144" height="637">
<path d="M1144 0H0V637H1144V0Z" fill="white"/>
</mask>
<g mask="url(#mask0_20_331)">
<path opacity="0.1" d="M1144 416.31C1144.06 449.406 1135.03 481.882 1117.88 510.19C1117.88 544.81 1101.74 576.19 1075.56 599.06C1069.01 604.776 1061.95 609.89 1054.48 614.34C1054.18 614.53 1053.87 614.71 1053.56 614.89C1053 615.22 1052.44 615.55 1051.87 615.89L1051.34 616.2C1048.95 617.55 1046.51 618.85 1044.02 620.07C1021.08 631.353 995.829 637.171 970.26 637.07H217.17C211.17 637.07 205.224 636.83 199.33 636.35C178.387 634.701 157.807 629.935 138.27 622.21C134.457 620.703 130.717 619.083 127.05 617.35C125.304 616.53 123.574 615.687 121.86 614.82C120.79 614.28 119.72 613.72 118.66 613.16C112.229 609.74 105.998 605.954 100 601.82C94.5187 598.068 89.2443 594.022 84.2004 589.7C50.1704 560.5 29.1204 520.09 29.1204 475.5C10.046 446.128 -0.0717957 411.842 0.000383508 376.82C0.000383508 277.68 79.2404 197.31 177 197.31C180 197.31 183 197.4 186 197.56C186.43 197.56 186.85 197.56 187.28 197.62C203.76 169.53 225.79 143.72 252.28 121C324.52 59.1001 430.1 20.0801 547.71 20.0801C646.53 20.0801 736.86 47.6301 806.05 93.1501C832.269 78.3289 861.883 70.5595 892 70.6001C989.74 70.6001 1069 150.97 1069 250.11C1068.99 256.383 1068.65 262.651 1068 268.89C1091.56 285.568 1110.76 307.668 1123.99 333.325C1137.22 358.982 1144.08 387.444 1144 416.31Z" fill="#9D3E0B"/>
<path opacity="0.1" d="M910.691 273.97V263.24C919.083 259.832 926.03 253.613 930.342 245.648C934.654 237.682 936.063 228.465 934.327 219.575C932.591 210.685 927.818 202.674 920.827 196.916C913.835 191.157 905.059 188.008 896.001 188.008C886.943 188.008 878.166 191.157 871.174 196.916C864.183 202.674 859.41 210.685 857.674 219.575C855.938 228.465 857.347 237.682 861.659 245.648C865.971 253.613 872.918 259.832 881.311 263.24V273.97C871.527 276.69 862.687 282.065 855.771 289.5C848.446 278.51 837.415 270.517 824.691 266.98V256.24C833.083 252.832 840.03 246.613 844.342 238.648C848.654 230.682 850.063 221.465 848.327 212.575C846.591 203.685 841.818 195.674 834.827 189.916C827.835 184.157 819.059 181.008 810.001 181.008C800.943 181.008 792.166 184.157 785.174 189.916C778.183 195.674 773.41 203.685 771.674 212.575C769.938 221.465 771.347 230.682 775.659 238.648C779.971 246.613 786.918 252.832 795.311 256.24V266.97C786.611 269.385 778.64 273.905 772.101 280.13C764.804 270.335 754.458 263.243 742.691 259.97V249.24C751.083 245.832 758.03 239.613 762.342 231.648C766.654 223.682 768.063 214.465 766.327 205.575C764.591 196.685 759.818 188.674 752.827 182.916C745.835 177.157 737.059 174.008 728.001 174.008C718.943 174.008 710.166 177.157 703.174 182.916C696.183 188.674 691.41 196.685 689.674 205.575C687.938 214.465 689.347 223.682 693.659 231.648C697.971 239.613 704.918 245.832 713.311 249.24V259.97C703.301 262.76 694.286 268.328 687.311 276.03C684.201 268.058 679.278 260.919 672.93 255.181C666.582 249.443 658.985 245.262 650.741 242.97V232.24C659.133 228.832 666.08 222.613 670.392 214.648C674.704 206.682 676.113 197.465 674.377 188.575C672.641 179.685 667.868 171.674 660.877 165.916C653.885 160.157 645.109 157.008 636.051 157.008C626.993 157.008 618.216 160.157 611.225 165.916C604.233 171.674 599.46 179.685 597.724 188.575C595.988 197.465 597.397 206.682 601.709 214.648C606.021 222.613 612.968 228.832 621.361 232.24V242.97C610.645 245.953 601.085 252.116 593.944 260.645C586.803 269.173 582.415 279.666 581.361 290.74C576.314 287.236 570.712 284.61 564.791 282.97V272.24C573.183 268.832 580.13 262.613 584.442 254.648C588.754 246.682 590.163 237.465 588.427 228.575C586.691 219.685 581.918 211.674 574.927 205.916C567.935 200.157 559.158 197.008 550.101 197.008C541.043 197.008 532.266 200.157 525.275 205.916C518.283 211.674 513.51 219.685 511.774 228.575C510.038 237.465 511.447 246.682 515.759 254.648C520.071 262.613 527.018 268.832 535.411 272.24V282.97C527.941 285.05 520.994 288.681 515.022 293.626C509.05 298.571 504.187 304.719 500.751 311.67C496.117 308.693 491.06 306.434 485.751 304.97V294.24C494.143 290.832 501.09 284.613 505.402 276.648C509.714 268.682 511.123 259.465 509.387 250.575C507.651 241.685 502.878 233.674 495.887 227.916C488.895 222.157 480.119 219.008 471.061 219.008C462.003 219.008 453.226 222.157 446.235 227.916C439.243 233.674 434.47 241.685 432.734 250.575C430.998 259.465 432.407 268.682 436.719 276.648C441.031 284.613 447.978 290.832 456.371 294.24V304.97C451.361 306.352 446.575 308.447 442.161 311.19C438.7 304.353 433.854 298.313 427.929 293.454C422.004 288.595 415.132 285.025 407.751 282.97V272.24C416.143 268.832 423.09 262.613 427.402 254.648C431.714 246.682 433.123 237.465 431.387 228.575C429.651 219.685 424.878 211.674 417.887 205.916C410.895 200.157 402.119 197.008 393.061 197.008C384.003 197.008 375.226 200.157 368.235 205.916C361.243 211.674 356.47 219.685 354.734 228.575C352.998 237.465 354.407 246.682 358.719 254.648C363.031 262.613 369.978 268.832 378.371 272.24V282.97C370.426 285.18 363.079 289.145 356.871 294.572C350.663 300 345.752 306.752 342.501 314.33C336.908 310.037 330.543 306.859 323.751 304.97V294.24C332.143 290.832 339.09 284.613 343.402 276.648C347.714 268.682 349.123 259.465 347.387 250.575C345.651 241.685 340.878 233.674 333.887 227.916C326.895 222.157 318.119 219.008 309.061 219.008C300.003 219.008 291.226 222.157 284.235 227.916C277.243 233.674 272.47 241.685 270.734 250.575C268.998 259.465 270.407 268.682 274.719 276.648C279.031 284.613 285.978 290.832 294.371 294.24V304.97C282.781 308.182 272.564 315.104 265.284 324.677C258.003 334.249 254.061 345.944 254.061 357.97V605.97H364.001V583.97H416.001V605.97H526.001V583.97H605.001V543.97H673.001V560.97H755.001V567.97H841.001V574.97H951.001V326.97C951 314.944 947.058 303.249 939.778 293.677C932.497 284.104 922.28 277.182 910.691 273.97Z" fill="#9D3E0B"/>
<path d="M490.78 169H582.21C604.572 168.999 626.716 173.402 647.376 181.959C668.037 190.516 686.81 203.058 702.623 218.87C718.436 234.682 730.979 253.454 739.537 274.114C748.095 294.774 752.5 316.918 752.5 339.28V570H320.5V339.28C320.5 294.119 338.44 250.808 370.374 218.874C402.308 186.94 445.619 169 490.78 169Z" fill="#221108"/>
<path opacity="0.2" d="M500.78 178.28H572.21C594.572 178.278 616.716 182.682 637.376 191.239C658.037 199.795 676.81 212.338 692.623 228.15C708.436 243.962 720.979 262.734 729.537 283.394C738.095 304.054 742.5 326.197 742.5 348.56V560.71H330.5V348.56C330.5 303.399 348.44 260.087 380.374 228.154C412.308 196.22 455.619 178.28 500.78 178.28Z" fill="#221108"/>
<path d="M1044 602.59V620.05C1021.05 631.333 995.809 637.151 970.24 637.05H217.17C211.17 637.05 205.223 636.81 199.33 636.33C178.387 634.68 157.807 629.915 138.27 622.19C134.457 620.683 130.717 619.063 127.05 617.33C125.303 616.51 123.573 615.667 121.86 614.8C120.79 614.26 119.72 613.7 118.66 613.14C112.229 609.726 105.999 605.947 100 601.82V554.4C100 546.735 103.045 539.384 108.465 533.965C113.884 528.545 121.235 525.5 128.9 525.5H960.13C967.122 525.513 973.873 528.06 979.13 532.67L1034.13 580.87C1037.23 583.578 1039.71 586.917 1041.41 590.663C1043.12 594.409 1044 598.475 1044 602.59Z" fill="#221108"/>
<path d="M482.67 225.81C460.863 227.25 439.14 229.583 417.5 232.81C411.35 233.73 405.11 234.75 399.5 237.47C395.14 239.753 391.121 242.634 387.56 246.03C371.496 260.422 358.562 277.961 349.56 297.56C343.99 309.71 339.99 322.56 334.74 334.81C316.05 378.56 282.15 414.34 262.42 457.63C258.15 467 254.55 476.78 253.12 486.97C251.64 497.51 253.32 509.81 261.98 515.97C265.98 518.8 270.84 519.97 275.6 520.97C335.521 534.24 396.14 544.139 457.17 550.62C450.56 544.24 448.35 534.35 449.22 525.21C450.09 516.07 453.68 507.43 457.22 498.96C422.68 491.34 388.226 483.34 353.86 474.96C348.73 473.71 342.57 471.36 341.94 466.12C341.62 463.45 342.94 460.88 344.24 458.53C358.897 431.989 376.472 407.169 396.64 384.53C396.64 412.59 395.25 444.28 395.25 472.35H719.35C715.452 456.335 713.161 439.97 712.51 423.5C711 369.74 729.1 316.39 724.4 262.74C723.96 257.79 723.28 252.69 720.69 248.45C716.22 241.13 707.3 238.1 699.1 235.6C667.66 226.04 635.56 216.37 602.7 217.12C592.93 217.35 583.2 218.49 573.49 219.64C543.9 223.13 512.4 223.84 482.67 225.81Z" fill="#9D3E0B"/>
<path d="M330.879 548.32L354.479 623.85C354.63 624.328 354.929 624.746 355.334 625.043C355.739 625.34 356.227 625.5 356.729 625.5H457.999L433.999 537.5L332.939 545.27C332.587 545.299 332.246 545.407 331.941 545.585C331.636 545.764 331.375 546.008 331.178 546.301C330.98 546.594 330.851 546.927 330.799 547.277C330.747 547.626 330.775 547.983 330.879 548.32Z" fill="#946851"/>
<path d="M504 258.29C499.6 260.82 494.47 261.73 489.47 262.6L457.2 268.2C450.92 269.29 444.31 270.53 439.47 274.68C429.57 283.15 431.71 298.74 434.71 311.42L440.71 336.86C445.23 355.98 449.85 375.33 459.12 392.65C475.31 422.88 505.01 444.65 537.67 455.14C549.34 458.89 561.67 461.33 573.85 459.99C597.71 457.37 618.12 440.36 630.7 419.91C643.28 399.46 649.27 375.74 654.76 352.36C660.03 329.98 665.04 307.28 664.7 284.28C664.6 277.12 663.88 269.64 660.06 263.57C651.69 250.24 632.72 249.24 617.17 251.7C614.75 252.09 612.24 252.51 609.91 251.78C602.91 249.6 602.75 239.99 599.75 233.32C594.08 220.74 577.26 218.51 563.51 219.65C549.76 220.79 528.35 222.26 516.37 230.05C504.85 237.5 517.51 250.5 504 258.29Z" fill="#FBBEBE"/>
<path opacity="0.1" d="M504 258.29C499.6 260.82 494.47 261.73 489.47 262.6L457.2 268.2C450.92 269.29 444.31 270.53 439.47 274.68C429.57 283.15 431.71 298.74 434.71 311.42L440.71 336.86C445.23 355.98 449.85 375.33 459.12 392.65C475.31 422.88 505.01 444.65 537.67 455.14C549.34 458.89 561.67 461.33 573.85 459.99C597.71 457.37 618.12 440.36 630.7 419.91C643.28 399.46 649.27 375.74 654.76 352.36C660.03 329.98 665.04 307.28 664.7 284.28C664.6 277.12 663.88 269.64 660.06 263.57C651.69 250.24 632.72 249.24 617.17 251.7C614.75 252.09 612.24 252.51 609.91 251.78C602.91 249.6 602.75 239.99 599.75 233.32C594.08 220.74 577.26 218.51 563.51 219.65C549.76 220.79 528.35 222.26 516.37 230.05C504.85 237.5 517.51 250.5 504 258.29Z" fill="#221108"/>
<path d="M477.29 286.95C482.17 297.19 485.83 308.05 491.73 317.74C496.42 325.44 502.43 332.23 508.41 338.98C523.9 356.5 539.59 374.16 558.76 387.5C566.699 346.717 585.877 308.964 614.13 278.5C622.39 269.63 632.73 260.89 644.85 261.22C652.37 261.43 659.31 265.16 665.57 269.31C672.57 273.94 679.19 279.31 684.22 285.98C692.17 296.6 695.6 310.05 696.22 323.3C696.84 336.55 694.78 349.77 692.74 362.87L682.24 430.58C681.63 434.5 680.78 438.83 677.58 441.18C675.763 442.331 673.714 443.069 671.58 443.34C633.41 450.77 594.07 445.95 555.18 445.57C512.18 445.16 467.99 450.06 427.26 436.38C425.13 435.66 422.92 434.83 421.48 433.12C420.534 431.83 419.854 430.365 419.48 428.81C409.99 398.09 417.6 365.08 423.23 333.43C427.688 308.348 430.862 283.055 432.74 257.65C432.91 255.36 458.07 260.42 460.88 262.04C468.53 266.57 473.61 279.23 477.29 286.95Z" fill="#9D3E0B"/>
<g opacity="0.2">
<path d="M166.87 536.79C166.87 537.25 166.82 537.7 166.77 538.14C162.957 536.633 159.217 535.013 155.55 533.28C153.591 533.022 151.77 532.134 150.36 530.75C149.29 530.21 148.22 529.65 147.16 529.09C147.4 528.587 147.671 528.1 147.97 527.63C150.03 524.37 153.16 522.33 156.61 522.44C160.06 522.55 163.05 524.78 164.9 528.15C166.315 530.803 166.995 533.786 166.87 536.79Z" fill="#221108"/>
<path d="M167.409 519.67C167.341 522.669 166.475 525.596 164.899 528.15C162.839 531.4 159.709 533.44 156.259 533.33L155.549 533.28C153.59 533.022 151.769 532.134 150.359 530.75C149.403 529.842 148.597 528.789 147.969 527.63C146.589 524.968 145.914 521.996 146.009 518.999C146.103 516.002 146.964 513.079 148.509 510.51C150.569 507.25 153.699 505.21 157.149 505.32C160.599 505.43 163.589 507.66 165.439 511.03C166.854 513.683 167.534 516.666 167.409 519.67Z" fill="#221108"/>
<path d="M167.949 502.576C168.193 494.842 163.603 488.421 157.697 488.235C151.79 488.048 146.804 494.166 146.56 501.9C146.315 509.633 150.905 516.054 156.812 516.241C162.718 516.427 167.705 510.309 167.949 502.576Z" fill="#221108"/>
<path d="M168.496 485.456C168.74 477.722 164.15 471.301 158.244 471.115C152.337 470.928 147.351 477.046 147.107 484.78C146.862 492.513 151.452 498.934 157.359 499.121C163.265 499.307 168.251 493.189 168.496 485.456Z" fill="#221108"/>
<path d="M169.031 468.335C169.275 460.601 164.685 454.181 158.779 453.994C152.872 453.807 147.886 459.925 147.642 467.659C147.397 475.393 151.987 481.813 157.894 482C163.8 482.187 168.787 476.069 169.031 468.335Z" fill="#221108"/>
<path d="M122 349.55C120.592 347.643 119.322 345.638 118.2 343.55L146.46 339.82L116 339.1C113.285 332.661 111.912 325.736 111.966 318.748C112.019 311.76 113.497 304.857 116.31 298.46L156.43 320.9L119.68 292.06C123.387 286.064 128.291 280.896 134.085 276.88C139.879 272.865 146.439 270.087 153.355 268.72C160.271 267.353 167.394 267.427 174.28 268.937C181.166 270.447 187.667 273.361 193.377 277.496C199.086 281.631 203.881 286.9 207.463 292.971C211.045 299.043 213.337 305.788 214.195 312.786C215.053 319.783 214.459 326.882 212.45 333.639C210.441 340.397 207.061 346.668 202.52 352.06C204.708 355.027 206.569 358.222 208.07 361.59L171 379.43L210.33 367.6C212.807 375.769 213.209 384.428 211.498 392.791C209.787 401.155 206.017 408.96 200.53 415.5C206.242 423.248 209.657 432.448 210.386 442.047C211.114 451.645 209.126 461.255 204.649 469.777C200.172 478.299 193.387 485.389 185.069 490.235C176.752 495.081 167.238 497.488 157.617 497.181C147.996 496.874 138.655 493.865 130.663 488.498C122.672 483.132 116.353 475.624 112.428 466.834C108.503 458.044 107.132 448.327 108.471 438.794C109.81 429.262 113.805 420.298 120 412.93C113.178 403.671 109.666 392.388 110.029 380.894C110.392 369.399 114.608 358.36 122 349.55Z" fill="#9D3E0B"/>
<path opacity="0.1" d="M212.5 384.12C212.148 395.623 207.919 406.671 200.5 415.47C206.22 423.215 209.643 432.414 210.379 442.014C211.115 451.615 209.132 461.228 204.66 469.755C200.187 478.281 193.404 485.376 185.087 490.227C176.77 495.079 167.255 497.49 157.632 497.187C148.008 496.883 138.664 493.876 130.67 488.51C122.675 483.144 116.353 475.636 112.427 466.844C108.5 458.053 107.128 448.334 108.467 438.799C109.807 429.264 113.803 420.299 120 412.93C113.37 403.99 212.68 378.37 212.5 384.12Z" fill="#221108"/>
</g>
<path opacity="0.1" d="M68.0206 162.81C79.9665 162.81 89.6506 153.126 89.6506 141.18C89.6506 129.234 79.9665 119.55 68.0206 119.55C56.0747 119.55 46.3906 129.234 46.3906 141.18C46.3906 153.126 56.0747 162.81 68.0206 162.81Z" fill="#9D3E0B"/>
<path opacity="0.1" d="M158.169 43.26C170.115 43.26 179.799 33.5759 179.799 21.63C179.799 9.68408 170.115 0 158.169 0C146.223 0 136.539 9.68408 136.539 21.63C136.539 33.5759 146.223 43.26 158.169 43.26Z" fill="#9D3E0B"/>
<path opacity="0.1" d="M150.84 140.01C170.86 140.01 187.09 123.78 187.09 103.76C187.09 83.7394 170.86 67.5098 150.84 67.5098C130.82 67.5098 114.59 83.7394 114.59 103.76C114.59 123.78 130.82 140.01 150.84 140.01Z" fill="#9D3E0B"/>
<path d="M543 269.5C589.392 269.5 627 231.892 627 185.5C627 139.108 589.392 101.5 543 101.5C496.608 101.5 459 139.108 459 185.5C459 231.892 496.608 269.5 543 269.5Z" fill="#FBBEBE"/>
<path d="M508.88 20.6698C486.47 23.5098 462.28 27.2598 446.44 43.3598C437.58 52.3598 432.39 64.3598 428.12 76.2398C421.5 94.7398 416.57 114.24 418.12 133.87C419.5 151.43 426 169.39 420.74 186.21C418.32 193.95 413.57 200.71 409.88 207.92C403.04 221.31 399.82 236.32 398.64 251.31C397.82 261.62 397.98 272.23 401.37 282C404.98 292.4 412.02 301.25 416.48 311.31C423.08 326.17 423.74 342.89 424.25 359.14C424.76 375.39 425.19 391.53 425.57 407.72C425.81 417.9 425.83 428.8 420.2 437.29C440.99 428.96 462.07 420.46 479.86 406.86C497.65 393.26 512.05 373.65 514.35 351.37C516.21 333.31 510.11 315.51 504.85 298.13C491.85 255.13 483.45 209.29 492.91 165.38C496.32 149.57 504.61 131.92 520.52 129.01C530.23 127.24 539.92 131.67 548.67 136.25C569.35 147.07 590.67 161.07 598.37 183.1C605.37 203.02 599.48 225.21 590.37 244.23C581.26 263.25 568.86 280.74 561.78 300.62C550.91 331.12 553.97 366.83 572.03 393.7C590.09 420.57 623.46 437.1 655.55 432.76C653.04 421.92 645.17 413.16 640.95 402.86C633.28 384.15 638.45 362.63 646.7 344.17C654.95 325.71 666.21 308.5 671.37 288.9C675.01 275.1 675.45 260.68 675.43 246.41C675.43 223.95 674.32 201.48 672.16 179.12C670 156.76 666.7 134.12 659.58 112.61C653.86 95.3598 645.53 78.6798 633.07 65.4498C619.81 51.3598 602.55 41.8098 585.6 32.4498C575.46 26.8698 565.1 21.2198 553.72 19.1298C544.72 17.4798 535.26 15.1298 526.08 14.9798C519.84 14.8898 513.28 16.2398 508.88 20.6698Z" fill="#170800"/>
<path d="M666.981 129.089L612.939 118.604C611.366 118.299 609.845 119.326 609.539 120.898L583.647 254.35C583.342 255.922 584.37 257.444 585.942 257.749L639.984 268.234C641.557 268.539 643.078 267.512 643.383 265.939L669.275 132.488C669.581 130.916 668.553 129.394 666.981 129.089Z" fill="#221108"/>
<path d="M671.065 129.882L617.023 119.397C615.45 119.092 613.928 120.119 613.623 121.691L587.731 255.143C587.426 256.715 588.454 258.237 590.026 258.542L644.068 269.027C645.64 269.332 647.162 268.305 647.467 266.732L673.359 133.281C673.665 131.709 672.637 130.187 671.065 129.882Z" fill="#221108"/>
<path d="M642.207 155.554C643.264 150.105 642.297 145.334 640.047 144.898C637.797 144.461 635.116 148.524 634.059 153.973C633.002 159.422 633.969 164.193 636.219 164.63C638.469 165.066 641.15 161.003 642.207 155.554Z" fill="#9D3E0B"/>
<path d="M655 201C652.36 196.33 649.54 191.5 645.09 188.51C642.532 186.941 639.783 185.708 636.91 184.84C627.22 181.45 617.37 178.03 607.12 177.49C605.45 177.41 603.54 177.49 602.45 178.77C600.21 181.4 603.76 184.98 606.83 186.57L631.25 199.22L608.74 196.84C605.47 196.49 600.81 197.38 601.05 200.66C601.21 202.81 603.57 203.98 605.61 204.66C620.06 209.66 636.76 213.58 644.67 226.66C634.13 225.66 623.36 224.66 613.03 226.98C610.2 227.62 607.27 228.61 605.42 230.84C603.57 233.07 603.36 236.84 605.69 238.61C607.13 239.68 609.07 239.71 610.87 239.61C618.2 239.26 625.72 237.8 632.76 239.89C639.8 241.98 646.05 249.36 643.62 256.28C649.86 256.84 657.24 256.28 663.01 253.59C669.37 250.59 669.22 244.95 668.83 238.15C668 224.83 661.39 212.4 655 201Z" fill="#FBBEBE"/>
<path opacity="0.1" d="M648.689 418.99C643.093 379.638 635.416 340.61 625.689 302.07C620.689 282.07 615.009 261.73 616.439 241.15C637.099 243.78 655.609 245.73 674.649 237.29C674.959 248.1 682.799 257.29 685.649 267.74C687.559 274.74 686.839 282.15 687.589 289.36C688.339 296.57 690.589 303.56 692.519 310.57C702.095 345.307 704.353 381.655 699.149 417.31C681.479 419.41 666.319 421.72 648.689 418.99Z" fill="#221108"/>
<path d="M645.689 418.99C640.093 379.638 632.416 340.61 622.689 302.07C617.689 282.07 612.009 261.73 613.439 241.15C634.099 243.78 652.609 245.73 671.649 237.29C671.959 248.1 679.799 257.29 682.649 267.74C684.559 274.74 683.839 282.15 684.589 289.36C685.339 296.57 687.589 303.56 689.519 310.57C699.095 345.307 701.353 381.655 696.149 417.31C678.479 419.41 663.319 421.72 645.689 418.99Z" fill="#9D3E0B"/>
<path d="M356.631 613.77L366.421 370.9C366.577 367.039 368.23 363.391 371.03 360.729C373.83 358.067 377.557 356.6 381.421 356.64L767.941 360.34C769.989 360.361 772.011 360.805 773.879 361.645C775.747 362.484 777.422 363.701 778.797 365.218C780.173 366.736 781.22 368.521 781.873 370.463C782.526 372.404 782.77 374.46 782.591 376.5L762.171 609.17C761.85 612.829 760.186 616.239 757.499 618.743C754.812 621.247 751.293 622.667 747.621 622.73L371.741 629.23C369.717 629.264 367.708 628.885 365.836 628.116C363.964 627.346 362.269 626.203 360.855 624.756C359.44 623.308 358.336 621.587 357.61 619.698C356.883 617.809 356.55 615.792 356.631 613.77Z" fill="#221108"/>
<path d="M572.5 487C581.889 487 589.5 478.046 589.5 467C589.5 455.954 581.889 447 572.5 447C563.111 447 555.5 455.954 555.5 467C555.5 478.046 563.111 487 572.5 487Z" fill="#9D3E0B"/>
<path d="M936 453.26L935.2 460.12L922.2 570.98C888.31 594.61 861.95 571.9 861.72 570.98L845.34 459.6L844.41 453.26H936Z" fill="#221108"/>
<path opacity="0.1" d="M936 453.26L935.2 460.12C897.02 482.32 856.29 465.04 845.34 459.6L844.41 453.26H936Z" fill="#221108"/>
<path d="M842.5 447.24V457.24C842.5 457.24 893 486.6 938.5 457.24V447.24H842.5Z" fill="#9D3E0B"/>
<path d="M848.37 434.03C848.37 434.03 846.9 440.78 842.5 441.37V449.88H938.5V442.25C938.5 442.25 932.63 440.78 933.5 434.03H848.37Z" fill="#9D3E0B"/>
<path d="M890.21 447.24C914.124 447.24 933.51 441.652 933.51 434.76C933.51 427.867 914.124 422.28 890.21 422.28C866.296 422.28 846.91 427.867 846.91 434.76C846.91 441.652 866.296 447.24 890.21 447.24Z" fill="#9D3E0B"/>
<path opacity="0.1" d="M890.21 447.24C914.124 447.24 933.51 441.652 933.51 434.76C933.51 427.867 914.124 422.28 890.21 422.28C866.296 422.28 846.91 427.867 846.91 434.76C846.91 441.652 866.296 447.24 890.21 447.24Z" fill="#221108"/>
<path opacity="0.1" d="M928.22 434.03C928.22 439.03 911.8 443.13 891.53 443.13H890.45C876.84 443.03 865.08 441.13 859.08 438.29C856.37 437.01 854.83 435.56 854.83 434.03C854.83 431.49 859.03 429.19 865.83 427.54C874.279 425.693 882.912 424.817 891.56 424.93C911.8 424.93 928.22 429 928.22 434.03Z" fill="#221108"/>
<path opacity="0.1" d="M890.45 443.13C876.84 443.03 865.08 441.13 859.08 438.29L865.8 427.5L890.45 443.13Z" fill="#221108"/>
<path opacity="0.1" d="M852.101 434.73C851.581 434.62 850.891 434.8 850.791 435.32C850.777 435.585 850.847 435.847 850.991 436.07C852.137 437.883 853.803 439.308 855.771 440.16C856.107 440.349 856.477 440.468 856.861 440.51C857.06 440.534 857.263 440.497 857.441 440.404C857.619 440.312 857.766 440.167 857.861 439.99C857.916 439.839 857.938 439.678 857.926 439.518C857.914 439.357 857.868 439.201 857.791 439.06C857.485 438.519 857.061 438.055 856.551 437.7C855.211 436.65 853.841 435.02 852.101 434.73Z" fill="#221108"/>
<path d="M891.67 541.62C905.935 541.62 917.5 530.055 917.5 515.79C917.5 501.524 905.935 489.96 891.67 489.96C877.404 489.96 865.84 501.524 865.84 515.79C865.84 530.055 877.404 541.62 891.67 541.62Z" fill="#9D3E0B"/>
<path d="M188.33 515.85H200.44C207.07 515.85 213.429 518.484 218.118 523.172C222.806 527.861 225.44 534.22 225.44 540.85V578H163.33V540.85C163.33 534.22 165.964 527.861 170.652 523.172C175.341 518.484 181.7 515.85 188.33 515.85Z" fill="#221108"/>
<path opacity="0.1" d="M188.33 515.85H200.44C207.07 515.85 213.429 518.484 218.118 523.172C222.806 527.861 225.44 534.22 225.44 540.85V578H163.33V540.85C163.33 534.22 165.964 527.861 170.652 523.172C175.341 518.484 181.7 515.85 188.33 515.85Z" fill="#221108"/>
<path d="M191.9 529.52C194.645 529.52 196.87 527.295 196.87 524.55C196.87 521.805 194.645 519.58 191.9 519.58C189.155 519.58 186.93 521.805 186.93 524.55C186.93 527.295 189.155 529.52 191.9 529.52Z" fill="#221108"/>
<path d="M191.9 523.31C194.645 523.31 196.87 521.085 196.87 518.34C196.87 515.595 194.645 513.37 191.9 513.37C189.155 513.37 186.93 515.595 186.93 518.34C186.93 521.085 189.155 523.31 191.9 523.31Z" fill="#221108"/>
<path d="M191.9 517.09C194.645 517.09 196.87 514.865 196.87 512.12C196.87 509.375 194.645 507.15 191.9 507.15C189.155 507.15 186.93 509.375 186.93 512.12C186.93 514.865 189.155 517.09 191.9 517.09Z" fill="#221108"/>
<path d="M191.9 510.88C194.645 510.88 196.87 508.655 196.87 505.91C196.87 503.165 194.645 500.94 191.9 500.94C189.155 500.94 186.93 503.165 186.93 505.91C186.93 508.655 189.155 510.88 191.9 510.88Z" fill="#221108"/>
<path d="M191.9 504.67C194.645 504.67 196.87 502.445 196.87 499.7C196.87 496.955 194.645 494.73 191.9 494.73C189.155 494.73 186.93 496.955 186.93 499.7C186.93 502.445 189.155 504.67 191.9 504.67Z" fill="#221108"/>
<path d="M191.9 498.46C194.645 498.46 196.87 496.235 196.87 493.49C196.87 490.745 194.645 488.52 191.9 488.52C189.155 488.52 186.93 490.745 186.93 493.49C186.93 496.235 189.155 498.46 191.9 498.46Z" fill="#221108"/>
<path d="M191.9 492.25C194.645 492.25 196.87 490.025 196.87 487.28C196.87 484.535 194.645 482.31 191.9 482.31C189.155 482.31 186.93 484.535 186.93 487.28C186.93 490.025 189.155 492.25 191.9 492.25Z" fill="#221108"/>
<path d="M199.361 494.73C202.105 494.73 204.331 492.505 204.331 489.76C204.331 487.015 202.105 484.79 199.361 484.79C196.616 484.79 194.391 487.015 194.391 489.76C194.391 492.505 196.616 494.73 199.361 494.73Z" fill="#221108"/>
<path d="M204.329 492.25C207.074 492.25 209.299 490.025 209.299 487.28C209.299 484.535 207.074 482.31 204.329 482.31C201.585 482.31 199.359 484.535 199.359 487.28C199.359 490.025 201.585 492.25 204.329 492.25Z" fill="#221108"/>
<path d="M209.3 489.76C212.045 489.76 214.27 487.535 214.27 484.79C214.27 482.045 212.045 479.82 209.3 479.82C206.555 479.82 204.33 482.045 204.33 484.79C204.33 487.535 206.555 489.76 209.3 489.76Z" fill="#221108"/>
<path d="M191.9 486.04C194.645 486.04 196.87 483.815 196.87 481.07C196.87 478.325 194.645 476.1 191.9 476.1C189.155 476.1 186.93 478.325 186.93 481.07C186.93 483.815 189.155 486.04 191.9 486.04Z" fill="#221108"/>
<path d="M191.9 479.83C194.645 479.83 196.87 477.605 196.87 474.86C196.87 472.115 194.645 469.89 191.9 469.89C189.155 469.89 186.93 472.115 186.93 474.86C186.93 477.605 189.155 479.83 191.9 479.83Z" fill="#221108"/>
<path d="M191.9 473.61C194.645 473.61 196.87 471.385 196.87 468.64C196.87 465.895 194.645 463.67 191.9 463.67C189.155 463.67 186.93 465.895 186.93 468.64C186.93 471.385 189.155 473.61 191.9 473.61Z" fill="#221108"/>
<path d="M191.9 467.4C194.645 467.4 196.87 465.175 196.87 462.43C196.87 459.685 194.645 457.46 191.9 457.46C189.155 457.46 186.93 459.685 186.93 462.43C186.93 465.175 189.155 467.4 191.9 467.4Z" fill="#221108"/>
<path d="M212.5 446.41C211.27 446.59 210.03 446.72 208.79 446.8C209.947 445.788 211.02 444.685 212 443.5C211.308 441.413 210.296 439.446 209 437.67C207.768 438.362 206.406 438.791 205 438.93C203.77 439.11 202.53 439.24 201.29 439.33C202.92 438 204.44 436 206.04 434.33C202.342 430.977 197.575 429.045 192.586 428.876C187.598 428.707 182.711 430.313 178.795 433.408C174.879 436.504 172.188 440.887 171.2 445.78C170.213 450.673 170.992 455.757 173.4 460.129C175.809 464.501 179.689 467.877 184.353 469.657C189.016 471.437 194.159 471.505 198.868 469.85C203.577 468.194 207.546 464.922 210.07 460.616C212.593 456.309 213.507 451.247 212.65 446.33L212.5 446.41Z" fill="#9D3E0B"/>
<path d="M229.111 471.1C227.843 471.878 226.412 472.354 224.931 472.49C223.701 472.67 222.461 472.81 221.221 472.89C222.539 471.708 223.769 470.431 224.901 469.07C221.904 468.289 218.724 468.653 215.982 470.092C213.24 471.531 211.133 473.941 210.073 476.85C209.014 479.76 209.077 482.96 210.252 485.826C211.426 488.691 213.627 491.015 216.424 492.344C219.221 493.673 222.413 493.911 225.377 493.011C228.34 492.111 230.861 490.139 232.447 487.479C234.033 484.819 234.57 481.664 233.953 478.629C233.336 475.595 231.609 472.899 229.111 471.07V471.1Z" fill="#9D3E0B"/>
<path d="M184.45 494.73C187.195 494.73 189.42 492.505 189.42 489.76C189.42 487.015 187.195 484.79 184.45 484.79C181.706 484.79 179.48 487.015 179.48 489.76C179.48 492.505 181.706 494.73 184.45 494.73Z" fill="#221108"/>
<path d="M179.48 492.25C182.225 492.25 184.45 490.025 184.45 487.28C184.45 484.535 182.225 482.31 179.48 482.31C176.735 482.31 174.51 484.535 174.51 487.28C174.51 490.025 176.735 492.25 179.48 492.25Z" fill="#221108"/>
<path d="M174.509 489.76C177.254 489.76 179.479 487.535 179.479 484.79C179.479 482.045 177.254 479.82 174.509 479.82C171.764 479.82 169.539 482.045 169.539 484.79C169.539 487.535 171.764 489.76 174.509 489.76Z" fill="#221108"/>
<path d="M154.701 471.1C155.968 471.88 157.399 472.355 158.881 472.49C160.111 472.67 161.351 472.81 162.591 472.89C161.27 471.71 160.04 470.433 158.911 469.07C161.907 468.289 165.088 468.653 167.83 470.092C170.572 471.531 172.679 473.941 173.738 476.85C174.798 479.76 174.734 482.96 173.56 485.826C172.385 488.691 170.185 491.015 167.387 492.344C164.59 493.673 161.398 493.911 158.435 493.011C155.472 492.111 152.951 490.139 151.365 487.479C149.779 484.819 149.242 481.664 149.859 478.629C150.476 475.595 152.202 472.899 154.701 471.07V471.1Z" fill="#9D3E0B"/>
<path d="M188.33 519.58H200.44C207.07 519.58 213.429 522.214 218.118 526.902C222.806 531.591 225.44 537.95 225.44 544.58V577.45C225.44 578.575 224.993 579.653 224.198 580.448C223.403 581.243 222.325 581.69 221.2 581.69H167.57C166.446 581.69 165.367 581.243 164.572 580.448C163.777 579.653 163.33 578.575 163.33 577.45V544.58C163.33 537.95 165.964 531.591 170.652 526.902C175.341 522.214 181.7 519.58 188.33 519.58Z" fill="#221108"/>
<g opacity="0.1">
<path d="M212.881 447.77C212.378 448.308 211.844 448.815 211.281 449.29C211.851 449.29 212.411 449.2 212.981 449.14C213.001 448.68 212.931 448.22 212.881 447.77Z" fill="#221108"/>
<path d="M203.82 441.83C205.07 441.75 206.3 441.62 207.54 441.44C208.653 441.299 209.74 441.003 210.77 440.56C210.267 439.559 209.685 438.599 209.03 437.69C208.408 438.069 207.735 438.355 207.03 438.54C206.05 439.72 204.976 440.821 203.82 441.83Z" fill="#221108"/>
<path d="M173.271 452.5C173.263 448.709 174.278 444.986 176.209 441.723C178.14 438.46 180.915 435.778 184.242 433.96C187.569 432.142 191.325 431.255 195.113 431.392C198.902 431.53 202.584 432.686 205.771 434.74L206.091 434.4C204.011 432.549 201.585 431.129 198.954 430.22C196.323 429.311 193.538 428.932 190.759 429.104C187.981 429.276 185.264 429.997 182.765 431.224C180.266 432.451 178.035 434.16 176.199 436.253C174.364 438.346 172.961 440.782 172.072 443.42C171.182 446.058 170.823 448.845 171.015 451.623C171.208 454.4 171.948 457.111 173.193 459.601C174.438 462.091 176.164 464.31 178.271 466.13C175.036 462.326 173.264 457.493 173.271 452.5Z" fill="#221108"/>
</g>
<g opacity="0.1">
<path d="M221.221 475.37C222.461 475.29 223.701 475.16 224.931 474.98C226.413 474.84 227.843 474.361 229.111 473.58C230.515 474.614 231.686 475.932 232.547 477.448C233.408 478.964 233.941 480.644 234.111 482.38C234.159 481.945 234.183 481.507 234.181 481.07C234.19 479.128 233.742 477.21 232.874 475.473C232.005 473.736 230.74 472.228 229.181 471.07C227.913 471.848 226.482 472.324 225.001 472.46L224.001 472.59C223.147 473.587 222.218 474.516 221.221 475.37Z" fill="#221108"/>
<path d="M221.721 471.13C222.136 471.135 222.55 471.165 222.961 471.22C223.611 470.53 224.251 469.79 224.901 469.07C223.062 468.579 221.136 468.517 219.27 468.891C217.404 469.264 215.649 470.061 214.14 471.221C212.632 472.382 211.411 473.873 210.572 475.581C209.733 477.289 209.298 479.167 209.301 481.07C209.301 481.49 209.301 481.9 209.361 482.31C209.668 479.246 211.103 476.405 213.387 474.339C215.671 472.273 218.641 471.129 221.721 471.13Z" fill="#221108"/>
</g>
<g opacity="0.1">
<path d="M162.589 475.37C161.349 475.29 160.109 475.16 158.879 474.98C157.396 474.842 155.966 474.363 154.699 473.58C153.295 474.614 152.124 475.932 151.263 477.448C150.401 478.964 149.869 480.644 149.699 482.38C149.651 481.945 149.627 481.507 149.629 481.07C149.62 479.128 150.067 477.21 150.936 475.473C151.804 473.736 153.07 472.228 154.629 471.07C155.896 471.85 157.327 472.325 158.809 472.46L159.809 472.59C160.657 473.592 161.587 474.522 162.589 475.37Z" fill="#221108"/>
<path d="M162.088 471.13C161.67 471.135 161.253 471.165 160.838 471.22C160.198 470.53 159.558 469.79 158.908 469.07C160.747 468.579 162.673 468.517 164.539 468.891C166.405 469.264 168.16 470.061 169.669 471.221C171.177 472.382 172.398 473.873 173.237 475.581C174.076 477.289 174.511 479.167 174.508 481.07C174.508 481.49 174.508 481.9 174.448 482.31C174.141 479.246 172.706 476.405 170.422 474.339C168.138 472.273 165.168 471.129 162.088 471.13Z" fill="#221108"/>
</g>
</g>
</g>
<defs>
<clipPath id="clip0_20_331">
<rect width="1144" height="637" fill="white"/>
</clipPath>
</defs>
</svg>
