<svg width="843" height="573" viewBox="0 0 843 573" fill="none" xmlns="http://www.w3.org/2000/svg">
<g clip-path="url(#clip0_155_1197)">
<path d="M756.019 559.405C737.118 573.021 712.624 573.705 688.948 572.032C685.642 571.799 682.36 571.525 679.108 571.23C679.088 571.225 679.062 571.227 679.042 571.222C678.886 571.207 678.729 571.192 678.58 571.183C677.908 571.12 677.237 571.057 676.572 570.994L676.729 571.294L677.222 572.224C677.045 571.913 676.868 571.608 676.691 571.297C676.638 571.203 676.58 571.11 676.528 571.017C670.395 560.343 664.312 549.278 662.76 537.091C661.156 524.44 665.664 510.116 676.797 503.899C678.257 503.086 679.804 502.438 681.407 501.968C682.073 501.766 682.748 501.601 683.431 501.456C687.606 500.529 691.953 500.731 696.025 502.041C700.097 503.35 703.746 505.721 706.598 508.909C709.45 512.097 711.401 515.987 712.251 520.179C713.101 524.37 712.82 528.713 711.435 532.76C720.874 523.081 719.113 507.379 715.857 494.256C712.595 481.134 708.646 466.531 715.281 454.745C718.969 448.184 725.456 444.113 732.735 442.474C732.959 442.426 733.182 442.377 733.405 442.336C742.079 440.579 751.095 442.159 758.654 446.76C772.573 455.531 779.722 472.161 782.042 488.452C785.781 514.667 777.508 543.923 756.019 559.405Z" fill="#F2F2F2"/>
<path d="M749.918 517.382C749.369 523.164 747.98 528.836 745.794 534.217C743.78 538.979 741.065 543.414 737.74 547.373C730.826 555.465 722.071 561.778 712.209 565.782C704.75 568.837 696.935 570.937 688.95 572.032C685.644 571.799 682.361 571.525 679.109 571.23C679.089 571.225 679.063 571.226 679.043 571.221C678.887 571.206 678.73 571.192 678.581 571.183C677.909 571.12 677.238 571.057 676.573 570.994L676.73 571.294L677.223 572.224C677.046 571.913 676.869 571.608 676.692 571.296C676.639 571.203 676.581 571.11 676.529 571.016C682.516 565.052 686.986 557.739 689.564 549.691C692.143 541.642 692.755 533.093 691.349 524.76C689.878 516.486 686.472 508.676 681.408 501.968C682.074 501.765 682.749 501.601 683.432 501.456C685.356 504.087 687.044 506.882 688.476 509.81C693.613 520.252 695.252 532.07 693.15 543.516C691.196 553.873 686.327 563.458 679.116 571.145C679.747 571.1 680.385 571.049 681.009 570.992C692.827 569.991 704.621 567.45 715.341 562.246C724.503 557.905 732.458 551.378 738.504 543.24C744.996 534.286 747.857 523.517 748.348 512.571C748.726 500.779 747.49 488.99 744.674 477.532C741.944 465.849 737.794 454.544 732.317 443.869C732.194 443.627 732.169 443.347 732.248 443.087C732.326 442.828 732.501 442.608 732.736 442.473C732.933 442.341 733.174 442.291 733.407 442.336C733.52 442.366 733.626 442.421 733.716 442.498C733.805 442.574 733.876 442.67 733.923 442.778C734.599 444.097 735.262 445.417 735.9 446.751C741.212 457.865 745.124 469.596 747.544 481.675C749.893 493.327 751.147 505.516 749.918 517.382Z" fill="white"/>
<path d="M35.1598 182.126C34.5971 182.125 34.0394 182.02 33.5153 181.815C32.6676 181.49 31.9391 180.914 31.4265 180.164C30.9139 179.415 30.6414 178.527 30.6453 177.619V130.586C30.6435 128.994 30.0103 127.468 28.8846 126.342C27.7589 125.216 26.2326 124.583 24.6406 124.581H15.0093C11.03 124.577 7.21487 122.994 4.40105 120.18C1.58722 117.366 0.00445986 113.551 0 109.572V15.0093C0.0044625 11.0299 1.58723 7.21487 4.40105 4.40105C7.21487 1.58723 11.03 0.00445985 15.0093 0H354.735C358.714 0.00446514 362.529 1.58723 365.343 4.40105C368.157 7.21487 369.739 11.0299 369.744 15.0093V109.572C369.739 113.551 368.157 117.366 365.343 120.18C362.529 122.994 358.714 124.577 354.735 124.581H92.515C91.6826 124.582 90.8595 124.756 90.0976 125.091C89.3358 125.426 88.6516 125.915 88.0885 126.528L38.4667 180.662C38.0476 181.122 37.5371 181.49 36.9677 181.743C36.3983 181.995 35.7825 182.125 35.1598 182.126ZM15.0093 2C11.5602 2.00389 8.25351 3.37577 5.81464 5.81464C3.37576 8.25351 2.0039 11.5602 2 15.0093V109.572C2.0039 113.021 3.37577 116.328 5.81464 118.766C8.25351 121.205 11.5602 122.577 15.0093 122.581H24.6406C26.7629 122.583 28.7976 123.428 30.2982 124.928C31.7989 126.429 32.6429 128.464 32.6453 130.586V177.619C32.6453 178.123 32.7976 178.616 33.0823 179.032C33.367 179.448 33.7707 179.768 34.2406 179.951C34.7105 180.134 35.2246 180.171 35.7157 180.056C36.2067 179.942 36.6517 179.682 36.9924 179.31L86.6143 125.177C87.365 124.36 88.2769 123.707 89.2926 123.26C90.3082 122.814 91.4055 122.582 92.515 122.581H354.735C358.184 122.577 361.49 121.205 363.929 118.766C366.368 116.328 367.74 113.021 367.744 109.572V15.0093C367.74 11.5602 366.368 8.25351 363.929 5.81464C361.49 3.37577 358.184 2.0039 354.735 2H15.0093Z" fill="#CCCCCC"/>
<path d="M36.8154 42.5902C44.0689 42.5902 49.9491 36.71 49.9491 29.4565C49.9491 22.2029 44.0689 16.3228 36.8154 16.3228C29.5618 16.3228 23.6816 22.2029 23.6816 29.4565C23.6816 36.71 29.5618 42.5902 36.8154 42.5902Z" fill="#CCCCCC"/>
<path d="M339.411 102.13H30.3314C29.4108 102.131 28.4991 101.95 27.6483 101.599C26.7974 101.247 26.0243 100.732 25.3729 100.081C24.7216 99.4305 24.2049 98.6579 23.8524 97.8075C23.4998 96.9571 23.3184 96.0456 23.3184 95.125C23.3184 94.2045 23.4998 93.2929 23.8524 92.4425C24.2049 91.5921 24.7216 90.8196 25.3729 90.169C26.0243 89.5185 26.7974 89.0027 27.6483 88.6512C28.4991 88.2996 29.4108 88.1193 30.3314 88.1204H339.411C340.332 88.1193 341.244 88.2996 342.094 88.6512C342.945 89.0027 343.718 89.5185 344.37 90.169C345.021 90.8196 345.538 91.5921 345.89 92.4425C346.243 93.2929 346.424 94.2045 346.424 95.125C346.424 96.0456 346.243 96.9571 345.89 97.8075C345.538 98.6579 345.021 99.4305 344.37 100.081C343.718 100.732 342.945 101.247 342.094 101.599C341.244 101.95 340.332 102.131 339.411 102.13Z" fill="#CCCCCC"/>
<path d="M238.72 72.3599H30.3314C29.4108 72.361 28.4991 72.1806 27.6483 71.8291C26.7974 71.4776 26.0243 70.9618 25.3729 70.3112C24.7216 69.6607 24.2049 68.8881 23.8524 68.0377C23.4998 67.1873 23.3184 66.2758 23.3184 65.3552C23.3184 64.4347 23.4998 63.5231 23.8524 62.6727C24.2049 61.8223 24.7216 61.0498 25.3729 60.3992C26.0243 59.7487 26.7974 59.2329 27.6483 58.8814C28.4991 58.5299 29.4108 58.3495 30.3314 58.3506H238.72C239.64 58.3495 240.552 58.5299 241.403 58.8814C242.253 59.2329 243.027 59.7487 243.678 60.3992C244.329 61.0498 244.846 61.8223 245.199 62.6727C245.551 63.5231 245.733 64.4347 245.733 65.3552C245.733 66.2758 245.551 67.1873 245.199 68.0377C244.846 68.8881 244.329 69.6607 243.678 70.3112C243.027 70.9618 242.253 71.4776 241.403 71.8291C240.552 72.1806 239.64 72.361 238.72 72.3599Z" fill="#CCCCCC"/>
<path d="M35.1598 515.722C34.5971 515.722 34.0394 515.616 33.5153 515.412C32.6677 515.086 31.9392 514.51 31.4266 513.761C30.914 513.011 30.6415 512.123 30.6453 511.215V464.182C30.6435 462.59 30.0103 461.064 28.8846 459.938C27.7589 458.812 26.2326 458.179 24.6406 458.177H15.0093C11.03 458.173 7.21488 456.59 4.40106 453.776C1.58724 450.962 0.00447044 447.147 0 443.168V348.605C0.0044625 344.626 1.58723 340.811 4.40105 337.997C7.21487 335.183 11.03 333.601 15.0093 333.596H354.735C358.714 333.601 362.529 335.183 365.343 337.997C368.157 340.811 369.739 344.626 369.744 348.605V443.168C369.739 447.147 368.157 450.962 365.343 453.776C362.529 456.59 358.714 458.173 354.735 458.177H92.515C91.6826 458.178 90.8595 458.352 90.0976 458.687C89.3358 459.022 88.6516 459.512 88.0885 460.124L38.4667 514.258C38.0476 514.718 37.5371 515.087 36.9677 515.339C36.3983 515.591 35.7825 515.722 35.1598 515.722ZM15.0093 335.596C11.5602 335.6 8.25351 336.972 5.81464 339.411C3.37576 341.85 2.00389 345.156 2 348.605V443.168C2.0039 446.617 3.37577 449.924 5.81464 452.363C8.25351 454.802 11.5602 456.173 15.0093 456.177H24.6406C26.7629 456.18 28.7976 457.024 30.2982 458.525C31.7989 460.025 32.6429 462.06 32.6453 464.182V511.215C32.6453 511.719 32.7976 512.212 33.0823 512.628C33.367 513.044 33.7707 513.365 34.2406 513.547C34.7105 513.73 35.2246 513.767 35.7157 513.652C36.2067 513.538 36.6517 513.278 36.9924 512.906L86.6143 458.773C87.365 457.956 88.2769 457.303 89.2926 456.857C90.3082 456.41 91.4055 456.179 92.515 456.177H354.735C358.184 456.173 361.49 454.802 363.929 452.363C366.368 449.924 367.74 446.617 367.744 443.168V348.605C367.74 345.156 366.368 341.85 363.929 339.411C361.49 336.972 358.184 335.6 354.735 335.596L15.0093 335.596Z" fill="#CCCCCC"/>
<path d="M536.844 342.357C536.221 342.357 535.605 342.226 535.036 341.974C534.466 341.722 533.956 341.354 533.537 340.893L483.915 286.76C483.352 286.147 482.668 285.657 481.906 285.322C481.144 284.987 480.321 284.813 479.489 284.812H217.269C213.29 284.808 209.475 283.225 206.661 280.411C203.847 277.598 202.264 273.783 202.26 269.803V175.241C202.264 171.261 203.847 167.446 206.661 164.633C209.475 161.819 213.29 160.236 217.269 160.231H556.994C560.974 160.236 564.789 161.819 567.602 164.632C570.416 167.446 571.999 171.261 572.004 175.241V269.803C571.999 273.783 570.416 277.598 567.602 280.411C564.789 283.225 560.974 284.808 556.994 284.812H547.363C545.771 284.814 544.245 285.448 543.119 286.573C541.993 287.699 541.36 289.225 541.358 290.817V337.851C541.362 338.759 541.09 339.646 540.577 340.396C540.064 341.145 539.336 341.721 538.488 342.046C537.964 342.251 537.406 342.357 536.844 342.357ZM217.269 162.231C213.82 162.235 210.513 163.607 208.074 166.046C205.636 168.485 204.264 171.792 204.26 175.241V269.803C204.264 273.252 205.636 276.559 208.074 278.998C210.513 281.437 213.82 282.809 217.269 282.812H479.489C480.598 282.814 481.695 283.045 482.711 283.492C483.727 283.939 484.638 284.591 485.389 285.408L535.011 339.541C535.352 339.913 535.797 340.173 536.288 340.288C536.779 340.402 537.293 340.365 537.763 340.183C538.233 340 538.637 339.679 538.921 339.263C539.206 338.847 539.358 338.355 539.358 337.851V290.817C539.361 288.695 540.205 286.66 541.705 285.16C543.206 283.659 545.241 282.815 547.363 282.812H556.994C560.443 282.809 563.75 281.437 566.189 278.998C568.628 276.559 570 273.252 570.004 269.803V175.241C570 171.792 568.628 168.485 566.189 166.046C563.75 163.607 560.443 162.235 556.994 162.231L217.269 162.231Z" fill="#353B42"/>
<path d="M36.8154 376.186C44.0689 376.186 49.9491 370.306 49.9491 363.053C49.9491 355.799 44.0689 349.919 36.8154 349.919C29.5618 349.919 23.6816 355.799 23.6816 363.053C23.6816 370.306 29.5618 376.186 36.8154 376.186Z" fill="#CCCCCC"/>
<path d="M339.411 435.726H30.3314C29.4108 435.727 28.4991 435.546 27.6483 435.195C26.7974 434.843 26.0243 434.327 25.3729 433.677C24.7216 433.026 24.2049 432.254 23.8524 431.403C23.4998 430.553 23.3184 429.642 23.3184 428.721C23.3184 427.8 23.4998 426.889 23.8524 426.038C24.2049 425.188 24.7216 424.416 25.3729 423.765C26.0243 423.114 26.7974 422.599 27.6483 422.247C28.4991 421.896 29.4108 421.715 30.3314 421.716H339.411C341.269 421.716 343.051 422.454 344.364 423.768C345.678 425.082 346.416 426.863 346.416 428.721C346.416 430.579 345.678 432.36 344.364 433.674C343.051 434.988 341.269 435.726 339.411 435.726Z" fill="#CCCCCC"/>
<path d="M238.72 405.956H30.3314C29.4108 405.957 28.4991 405.777 27.6483 405.425C26.7974 405.074 26.0243 404.558 25.3729 403.907C24.7216 403.257 24.2049 402.484 23.8524 401.634C23.4998 400.784 23.3184 399.872 23.3184 398.951C23.3184 398.031 23.4998 397.119 23.8524 396.269C24.2049 395.419 24.7216 394.646 25.3729 393.995C26.0243 393.345 26.7974 392.829 27.6483 392.478C28.4991 392.126 29.4108 391.946 30.3314 391.947H238.72C239.64 391.946 240.552 392.126 241.403 392.478C242.253 392.829 243.027 393.345 243.678 393.995C244.329 394.646 244.846 395.419 245.199 396.269C245.551 397.119 245.733 398.031 245.733 398.951C245.733 399.872 245.551 400.784 245.199 401.634C244.846 402.484 244.329 403.257 243.678 403.907C243.027 404.558 242.253 405.074 241.403 405.425C240.552 405.777 239.64 405.957 238.72 405.956Z" fill="#CCCCCC"/>
<path d="M239.075 201.946C246.329 201.946 252.209 196.065 252.209 188.812C252.209 181.558 246.329 175.678 239.075 175.678C231.822 175.678 225.941 181.558 225.941 188.812C225.941 196.065 231.822 201.946 239.075 201.946Z" fill="#353B42"/>
<path d="M541.671 261.485H232.591C230.733 261.485 228.951 260.747 227.638 259.434C226.324 258.12 225.586 256.338 225.586 254.48C225.586 252.623 226.324 250.841 227.638 249.527C228.951 248.214 230.733 247.476 232.591 247.476H541.671C543.528 247.476 545.31 248.214 546.624 249.527C547.937 250.841 548.675 252.623 548.675 254.48C548.675 256.338 547.937 258.12 546.624 259.434C545.31 260.747 543.528 261.485 541.671 261.485Z" fill="#00A2E2"/>
<path d="M440.979 231.715H232.591C231.671 231.716 230.759 231.536 229.908 231.185C229.057 230.833 228.284 230.317 227.633 229.667C226.981 229.016 226.465 228.244 226.112 227.393C225.76 226.543 225.578 225.631 225.578 224.711C225.578 223.79 225.76 222.879 226.112 222.028C226.465 221.178 226.981 220.405 227.633 219.755C228.284 219.104 229.057 218.588 229.908 218.237C230.759 217.885 231.671 217.705 232.591 217.706H440.979C441.9 217.705 442.812 217.885 443.662 218.237C444.513 218.588 445.286 219.104 445.938 219.755C446.589 220.405 447.106 221.178 447.458 222.028C447.811 222.879 447.992 223.79 447.992 224.711C447.992 225.631 447.811 226.543 447.458 227.393C447.106 228.244 446.589 229.016 445.938 229.667C445.286 230.317 444.513 230.833 443.662 231.185C442.812 231.536 441.9 231.716 440.979 231.715Z" fill="#00A2E2"/>
<path d="M541.537 360.359C541.837 358.919 542.449 357.564 543.33 356.387C544.211 355.21 545.339 354.24 546.635 353.546C547.931 352.852 549.364 352.451 550.831 352.371C552.299 352.291 553.767 352.533 555.131 353.081L578.59 326.125L583.573 344.014L560.532 366.869C559.459 369.1 557.605 370.859 555.322 371.814C553.038 372.769 550.484 372.853 548.143 372.051C545.801 371.248 543.836 369.615 542.618 367.46C541.401 365.305 541.016 362.778 541.537 360.359Z" fill="#FFB8B8"/>
<path d="M670.289 233.862C683.854 233.862 694.851 222.865 694.851 209.301C694.851 195.736 683.854 184.74 670.289 184.74C656.725 184.74 645.729 195.736 645.729 209.301C645.729 222.865 656.725 233.862 670.289 233.862Z" fill="#FFB8B8"/>
<path d="M641.436 547.373L629.177 547.372L623.344 500.084L641.439 500.085L641.436 547.373Z" fill="#FFB8B8"/>
<path d="M644.564 559.257L605.033 559.256V558.756C605.033 556.735 605.431 554.734 606.204 552.867C606.978 551.001 608.111 549.304 609.54 547.876C610.969 546.447 612.665 545.314 614.531 544.54C616.398 543.767 618.399 543.369 620.42 543.369L644.564 543.37L644.564 559.257Z" fill="#212529"/>
<path d="M678.435 560.373L666.177 560.372L664.479 514.214L678.439 513.085L678.435 560.373Z" fill="#FFB8B8"/>
<path d="M681.564 572.257L642.033 572.256V571.756C642.033 569.735 642.431 567.734 643.204 565.867C643.978 564.001 645.111 562.304 646.54 560.876C647.969 559.447 649.665 558.314 651.531 557.54C653.398 556.767 655.399 556.369 657.42 556.369L681.564 556.37L681.564 572.257Z" fill="#212529"/>
<path d="M674.949 551.743L665.402 550.619C664.32 550.489 663.32 549.972 662.59 549.162C661.859 548.352 661.447 547.306 661.428 546.215L659.639 421.876C659.634 421.524 659.506 421.186 659.276 420.919C659.046 420.653 658.73 420.475 658.383 420.418C658.036 420.361 657.679 420.428 657.376 420.607C657.074 420.786 656.843 421.066 656.726 421.398L643.48 458.797L644.427 528.899C644.444 530.056 644.013 531.175 643.225 532.023C642.438 532.87 641.354 533.382 640.199 533.451L627.735 533.981C626.595 534.045 625.472 533.677 624.593 532.949C623.713 532.221 623.141 531.188 622.99 530.056L616.481 450.755L616.477 450.705L626.354 367.886L700.537 373.253L679.944 547.802C679.814 548.896 679.287 549.904 678.464 550.635C677.641 551.367 676.579 551.773 675.478 551.775C675.301 551.775 675.125 551.764 674.949 551.743Z" fill="#212529"/>
<path d="M626.671 375.228C626.005 374.872 625.44 374.354 625.028 373.721C624.617 373.089 624.372 372.362 624.316 371.61C624.316 371.61 630.987 330.125 633.432 329.347L628.083 284.984C627.443 279.573 627.889 274.088 629.397 268.853C630.905 263.617 633.443 258.735 636.864 254.493C640.158 250.379 644.251 246.974 648.897 244.485C653.543 241.996 658.645 240.474 663.896 240.011C664.643 239.944 665.387 239.892 666.126 239.857C672.455 239.518 678.772 240.712 684.541 243.338C690.31 245.963 695.359 249.943 699.26 254.939C703.306 259.977 706.076 265.918 707.333 272.257C708.59 278.595 708.297 285.144 706.479 291.345L703.48 301.784V374.74C703.477 375.453 703.306 376.154 702.983 376.788C702.66 377.423 702.192 377.973 701.618 378.394C692.277 385.249 681.721 387.673 671.462 387.673C652.052 387.673 633.705 378.993 626.671 375.228Z" fill="#00A2E2"/>
<path d="M569.081 361.877L556.178 352.229C555.672 351.851 555.251 351.37 554.943 350.818C554.636 350.266 554.447 349.656 554.391 349.026C554.335 348.397 554.412 347.762 554.617 347.165C554.822 346.567 555.151 346.019 555.582 345.557L632.445 263.083C634.912 260.458 638.239 258.806 641.82 258.425C645.402 258.044 649.002 258.96 651.966 261.007C653.772 262.266 655.278 263.908 656.377 265.815C657.477 267.723 658.142 269.849 658.326 272.043C658.51 274.237 658.207 276.444 657.441 278.508C656.675 280.572 655.463 282.441 653.891 283.984L574.928 361.485C574.234 362.173 573.334 362.614 572.366 362.742C571.397 362.87 570.414 362.678 569.565 362.194C569.397 362.099 569.236 361.993 569.081 361.877Z" fill="#00A2E2"/>
<path d="M667.83 350.957C668.394 349.6 669.249 348.382 670.334 347.391C671.42 346.399 672.709 345.658 674.112 345.218C675.515 344.779 676.997 344.653 678.454 344.848C679.911 345.044 681.308 345.557 682.545 346.35L710.632 324.257L712.181 342.762L685.272 360.905C683.801 362.896 681.651 364.277 679.229 364.788C676.808 365.3 674.283 364.905 672.133 363.678C669.983 362.452 668.357 360.48 667.564 358.135C666.771 355.791 666.866 353.237 667.83 350.957Z" fill="#FFB8B8"/>
<path d="M692.968 359.582C692.225 359.351 691.555 358.93 691.024 358.36C690.494 357.79 690.122 357.091 689.945 356.333L687.108 344.417C686.9 343.571 686.946 342.683 687.239 341.863C687.533 341.043 688.061 340.327 688.758 339.805L707.847 319.16L679.769 275.865C677.644 273.248 676.446 270 676.362 266.63C676.279 263.26 677.314 259.958 679.307 257.239C680.895 255.072 683.028 253.364 685.49 252.287C687.951 251.211 690.653 250.804 693.323 251.108C695.992 251.412 698.534 252.416 700.69 254.018C702.846 255.621 704.541 257.765 705.601 260.233L731.705 311.043C734.301 316.091 734.948 321.918 733.524 327.412C732.1 332.907 728.705 337.686 723.984 340.838L697.308 358.658C696.491 359.389 695.434 359.794 694.337 359.795C693.873 359.795 693.411 359.723 692.968 359.582Z" fill="#00A2E2"/>
<path d="M688.489 231.258C687.91 231.605 687.259 231.815 686.586 231.87C685.913 231.925 685.237 231.825 684.609 231.577C683.981 231.329 683.419 230.94 682.966 230.44C682.513 229.94 682.181 229.342 681.995 228.693L681.98 228.632C681.48 226.588 681.875 224.449 682.004 222.349C682.133 220.249 681.915 217.944 680.477 216.409C677.797 213.546 673.063 215.096 669.206 214.389C666.946 213.898 664.942 212.599 663.571 210.737C662.199 208.875 661.553 206.577 661.753 204.272C661.806 203.836 661.889 203.399 661.984 202.962C662.219 201.854 662.194 200.707 661.911 199.611C661.629 198.515 661.096 197.499 660.354 196.644C659.613 195.788 658.684 195.116 657.639 194.68C656.594 194.244 655.462 194.057 654.333 194.132C650.439 194.375 646.242 195.578 643.004 192.71C641.817 191.579 640.989 190.123 640.624 188.524C640.258 186.925 640.372 185.253 640.951 183.719C642.762 178.398 647.948 175.59 653.086 174.034C659.44 172.161 666.132 171.728 672.676 172.765C679.219 173.803 685.448 176.286 690.912 180.033C694.174 182.307 697.225 185.169 698.631 188.889C700.036 192.61 699.393 197.316 696.282 199.793C698.717 202.344 700.439 205.49 701.276 208.916C702.112 212.342 702.033 215.928 701.047 219.314C699.531 224.294 692.193 229.1 688.489 231.258Z" fill="#212529"/>
<path d="M842.73 572C842.73 572.265 842.624 572.519 842.437 572.706C842.249 572.894 841.995 572.999 841.73 573H460.73C460.465 573 460.211 572.895 460.023 572.707C459.836 572.52 459.73 572.265 459.73 572C459.73 571.735 459.836 571.48 460.023 571.293C460.211 571.105 460.465 571 460.73 571H841.73C841.995 571.001 842.249 571.106 842.437 571.294C842.624 571.481 842.73 571.735 842.73 572Z" fill="#353B42"/>
</g>
<defs>
<clipPath id="clip0_155_1197">
<rect width="842.73" height="573" fill="white"/>
</clipPath>
</defs>
</svg>
