<svg width="787" height="591" viewBox="0 0 787 591" fill="none" xmlns="http://www.w3.org/2000/svg">
<g clip-path="url(#clip0_155_880)">
<path d="M740.608 535.846C740.131 553.651 737.148 571.3 731.748 588.272C731.628 588.666 731.495 589.054 731.366 589.448H698.303C698.338 589.095 698.374 588.701 698.409 588.272C700.613 562.929 688.019 410.521 672.822 384.143C674.154 386.283 743.172 455.319 740.608 535.846Z" fill="#F0F0F0"/>
<path d="M738.127 588.272C737.85 588.666 737.563 589.06 737.268 589.448H712.464C712.652 589.113 712.87 588.719 713.122 588.272C717.22 580.877 729.348 558.767 740.605 535.846C752.699 511.214 763.803 485.648 762.868 476.395C763.158 478.481 771.529 542.101 738.127 588.272Z" fill="#F0F0F0"/>
<path d="M624.172 480.489H0V0H624.172V480.489Z" fill="white"/>
<path d="M624.172 480.489H0V0H624.172V480.489ZM9.22209 471.267H614.95V9.22208H9.22209V471.267Z" fill="#E5E5E5"/>
<path d="M163.356 362.197H116.098C114.819 362.195 113.592 361.686 112.687 360.781C111.782 359.877 111.273 358.65 111.271 357.37V292.226C111.273 290.946 111.782 289.719 112.687 288.814C113.592 287.91 114.819 287.401 116.098 287.399H163.356C164.635 287.401 165.862 287.91 166.767 288.814C167.672 289.719 168.181 290.946 168.183 292.226V357.37C168.181 358.65 167.672 359.877 166.767 360.781C165.862 361.686 164.635 362.195 163.356 362.197Z" fill="#E6E6E6"/>
<path d="M249.535 362.197H202.278C200.998 362.195 199.772 361.686 198.867 360.781C197.962 359.877 197.453 358.65 197.451 357.37V230.436C197.453 229.157 197.962 227.93 198.867 227.025C199.772 226.12 200.998 225.611 202.278 225.61H249.535C250.815 225.611 252.042 226.12 252.947 227.025C253.852 227.93 254.361 229.157 254.362 230.436V357.37C254.361 358.65 253.852 359.877 252.947 360.781C252.042 361.686 250.815 362.195 249.535 362.197Z" fill="#E6E6E6"/>
<path d="M335.714 362.197H288.457C287.177 362.195 285.95 361.686 285.045 360.781C284.14 359.877 283.631 358.65 283.63 357.37V292.226C283.631 290.946 284.14 289.719 285.045 288.814C285.95 287.91 287.177 287.401 288.457 287.399H335.714C336.994 287.401 338.221 287.91 339.125 288.814C340.03 289.719 340.539 290.946 340.541 292.226V357.37C340.539 358.65 340.03 359.877 339.125 360.781C338.221 361.686 336.994 362.195 335.714 362.197Z" fill="#E6E6E6"/>
<path d="M421.894 362.197H374.636C373.386 362.224 372.176 361.754 371.271 360.89C370.366 360.026 369.841 358.839 369.81 357.589V205.827C369.841 204.577 370.366 203.39 371.271 202.526C372.176 201.663 373.386 201.193 374.636 201.22H421.894C423.144 201.193 424.354 201.663 425.259 202.526C426.164 203.39 426.689 204.577 426.721 205.827V357.589C426.689 358.839 426.164 360.026 425.259 360.89C424.355 361.754 423.144 362.224 421.894 362.197Z" fill="#E6E6E6"/>
<path d="M508.073 362.197H460.816C459.536 362.195 458.31 361.686 457.405 360.781C456.5 359.877 455.991 358.65 455.989 357.37V162.143C455.991 160.863 456.5 159.637 457.405 158.732C458.31 157.827 459.536 157.318 460.816 157.317H508.073C509.353 157.318 510.58 157.827 511.485 158.732C512.39 159.637 512.899 160.863 512.9 162.143V357.37C512.899 358.65 512.39 359.877 511.485 360.781C510.58 361.686 509.353 362.195 508.073 362.197Z" fill="#F2F2F2"/>
<path d="M139.727 267.887C145.115 267.887 149.483 263.519 149.483 258.131C149.483 252.742 145.115 248.374 139.727 248.374C134.339 248.374 129.971 252.742 129.971 258.131C129.971 263.519 134.339 267.887 139.727 267.887Z" fill="#3B454E"/>
<path d="M225.907 204.472C231.295 204.472 235.663 200.104 235.663 194.715C235.663 189.327 231.295 184.959 225.907 184.959C220.518 184.959 216.15 189.327 216.15 194.715C216.15 200.104 220.518 204.472 225.907 204.472Z" fill="#3B454E"/>
<path d="M312.086 267.887C317.474 267.887 321.842 263.519 321.842 258.131C321.842 252.742 317.474 248.374 312.086 248.374C306.698 248.374 302.33 252.742 302.33 258.131C302.33 263.519 306.698 267.887 312.086 267.887Z" fill="#3B454E"/>
<path d="M398.266 173.577C403.654 173.577 408.022 169.209 408.022 163.821C408.022 158.433 403.654 154.065 398.266 154.065C392.878 154.065 388.51 158.433 388.51 163.821C388.51 169.209 392.878 173.577 398.266 173.577Z" fill="#3B454E"/>
<path d="M484.446 137.804C489.834 137.804 494.202 133.436 494.202 128.048C494.202 122.66 489.834 118.292 484.446 118.292C479.057 118.292 474.689 122.66 474.689 128.048C474.689 133.436 479.057 137.804 484.446 137.804Z" fill="#3B454E"/>
<path d="M312.292 260.316L225.906 195.613L140.702 259.432L138.752 256.829L225.906 191.549L311.88 255.945L397.315 162.451L397.658 162.312L483.837 127.589L485.053 130.606L399.216 165.19L312.292 260.316Z" fill="#3B454E"/>
<path d="M604.996 574.714L590.317 574.713L583.333 518.093L604.999 518.094L604.996 574.714Z" fill="#FFB6B6"/>
<path d="M608.74 588.943L561.407 588.942V588.343C561.408 583.457 563.349 578.771 566.804 575.316C570.259 571.861 574.944 569.92 579.83 569.92H579.831L608.74 569.921L608.74 588.943Z" fill="#212529"/>
<path d="M552.535 335.064L560.869 467.846L588.85 561.31L610.528 562.88L599.643 448.972L604.416 373.325C604.416 373.325 627.043 356.459 614.532 336.155L552.535 335.064Z" fill="#212529"/>
<path d="M614.575 574.714L599.895 574.713L592.912 518.093L614.577 518.094L614.575 574.714Z" fill="#FFB6B6"/>
<path d="M618.319 588.943L570.986 588.942V588.343C570.987 583.457 572.928 578.771 576.383 575.316C579.838 571.861 584.523 569.92 589.409 569.92H589.411L618.32 569.921L618.319 588.943Z" fill="#212529"/>
<path d="M562.113 335.064L570.447 467.846L598.428 561.31L620.107 562.88L609.221 448.972L613.994 373.325C613.994 373.325 636.621 356.459 624.11 336.155L562.113 335.064Z" fill="#212529"/>
<path d="M607.292 355.626C582.294 355.626 552.872 340.349 551.167 339.451L550.692 339.202L608.065 192.836L636.479 179.413C638.667 178.379 641.091 177.948 643.501 178.164C645.911 178.38 648.22 179.236 650.189 180.642C652.158 182.049 653.716 183.955 654.702 186.165C655.688 188.374 656.067 190.807 655.799 193.212L644.523 294.366L632.753 346.757L632.628 346.879C626.132 353.298 617.047 355.626 607.292 355.626Z" fill="#3B454E"/>
<path d="M515.611 258.734C517.098 257.791 518.773 257.186 520.519 256.961C522.264 256.736 524.038 256.896 525.715 257.431C527.392 257.965 528.932 258.861 530.225 260.055C531.519 261.249 532.535 262.712 533.202 264.341L575.925 262.007L564.715 281.209L525.863 280.481C523.052 281.42 519.994 281.296 517.269 280.131C514.544 278.966 512.341 276.842 511.078 274.161C509.814 271.481 509.577 268.43 510.413 265.586C511.249 262.743 513.098 260.305 515.611 258.734Z" fill="#FFB6B6"/>
<path d="M599.924 288.792L557.108 287.699L557.661 259.378L577.907 252.934L611.115 206.356C612.778 204.024 614.892 202.048 617.331 200.547C619.77 199.046 622.486 198.049 625.317 197.615C628.148 197.181 631.038 197.32 633.815 198.022C636.592 198.724 639.2 199.976 641.484 201.704C643.769 203.432 645.684 205.6 647.116 208.08C648.548 210.561 649.468 213.304 649.822 216.146C650.176 218.988 649.957 221.873 649.177 224.629C648.396 227.385 647.072 229.956 645.28 232.192L599.924 288.792Z" fill="#3B454E"/>
<path d="M624.714 174.019C640.426 174.019 653.163 161.282 653.163 145.57C653.163 129.858 640.426 117.121 624.714 117.121C609.002 117.121 596.265 129.858 596.265 145.57C596.265 161.282 609.002 174.019 624.714 174.019Z" fill="#FFB6B6"/>
<path d="M588.721 121.863C591.592 118.919 595.323 116.961 599.377 116.271C603.329 115.421 607.663 115.157 610.824 112.679C614.416 109.817 615.997 104.381 620.403 103.172C622.32 102.787 624.306 102.944 626.138 103.627C633.179 105.751 639.43 109.918 644.099 115.6C645.199 117.229 646.601 118.631 648.23 119.731C649.203 120.144 650.155 120.607 651.079 121.12C652.094 121.921 652.892 122.962 653.402 124.149C656.579 130.563 657.311 137.914 655.462 144.828C654.36 148.911 652.372 152.694 651.199 156.801C650.026 160.908 644.599 168.721 643.329 166.781C642.06 164.842 640.432 163.034 639.737 160.794C638.383 156.39 639.606 151.958 636.16 148.899C634.029 147.007 630.173 145.738 628.725 148.18C628.15 149.126 628.186 150.324 627.695 151.306C626.725 153.221 623.923 153.604 622.067 152.503C620.278 151.268 619.021 149.404 618.547 147.282C615.757 137.847 611.004 131.908 600.91 135.943C597.15 137.452 592.72 138.47 589.104 135.884C584.339 132.483 585.308 125.742 588.721 121.863Z" fill="#212529"/>
<path d="M524.837 377.762H477.58C476.3 377.761 475.073 377.252 474.168 376.347C473.264 375.442 472.754 374.215 472.753 372.936V177.709C472.754 176.429 473.264 175.202 474.168 174.298C475.073 173.393 476.3 172.884 477.58 172.882H524.837C526.117 172.884 527.344 173.393 528.249 174.298C529.153 175.202 529.662 176.429 529.664 177.709V372.936C529.662 374.215 529.153 375.442 528.249 376.347C527.344 377.252 526.117 377.761 524.837 377.762Z" fill="#00A2E2"/>
<path d="M514.414 275.497C515.9 274.555 517.576 273.949 519.321 273.724C521.067 273.499 522.841 273.659 524.518 274.194C526.195 274.728 527.735 275.624 529.028 276.818C530.322 278.012 531.337 279.475 532.004 281.104L574.728 278.77L563.518 297.972L524.666 297.244C521.855 298.183 518.797 298.059 516.072 296.894C513.347 295.729 511.144 293.605 509.88 290.924C508.617 288.244 508.38 285.193 509.216 282.349C510.051 279.506 511.901 277.068 514.414 275.497Z" fill="#FFB6B6"/>
<path d="M598.727 305.555L555.911 304.462L556.464 276.141L576.709 269.697L609.918 223.119C611.581 220.787 613.694 218.812 616.134 217.31C618.573 215.809 621.289 214.812 624.12 214.378C626.951 213.944 629.841 214.083 632.617 214.785C635.394 215.488 638.002 216.74 640.287 218.467C642.571 220.195 644.487 222.363 645.919 224.844C647.351 227.324 648.271 230.067 648.625 232.909C648.979 235.751 648.759 238.636 647.979 241.392C647.199 244.148 645.874 246.719 644.083 248.955L598.727 305.555Z" fill="#3B454E"/>
<path d="M785.781 590.646H329.589C329.431 590.646 329.275 590.616 329.129 590.556C328.984 590.496 328.851 590.407 328.74 590.296C328.628 590.185 328.54 590.053 328.479 589.907C328.419 589.762 328.388 589.606 328.388 589.448C328.388 589.291 328.419 589.135 328.479 588.989C328.54 588.844 328.628 588.712 328.74 588.6C328.851 588.489 328.984 588.401 329.129 588.341C329.275 588.281 329.431 588.251 329.589 588.251H785.781C785.939 588.251 786.095 588.281 786.241 588.341C786.386 588.401 786.519 588.489 786.63 588.6C786.742 588.712 786.83 588.844 786.891 588.989C786.951 589.135 786.982 589.291 786.982 589.448C786.982 589.606 786.951 589.762 786.891 589.907C786.83 590.053 786.742 590.185 786.63 590.296C786.519 590.407 786.386 590.496 786.241 590.556C786.095 590.616 785.939 590.646 785.781 590.646Z" fill="#CACACA"/>
</g>
<defs>
<clipPath id="clip0_155_880">
<rect width="786.979" height="590.646" fill="white"/>
</clipPath>
</defs>
</svg>
